<svg width="100" height="41" viewBox="0 0 100 41" fill="none" xmlns="http://www.w3.org/2000/svg">
<path d="M19.8514 33.6407C22.0615 31.9811 23.77 32.0219 24.6107 33.7495C25.2615 33.1374 25.9259 32.6204 26.848 32.4844C28.5971 32.2395 29.4649 32.9741 29.4649 34.7425C29.4649 35.8716 29.4649 37.0143 29.4649 38.1433C29.4649 38.4698 29.4785 38.7827 29.8717 38.9051C30.3056 39.0411 30.0887 39.3948 30.0887 39.6533C30.1158 40.8368 30.1022 40.8368 28.9497 40.8368C28.2039 40.8368 27.4581 40.8096 26.7124 40.8504C26.2107 40.8776 26.0073 40.7687 26.0344 40.1974C26.0751 38.7283 26.048 37.2455 26.048 35.7764C26.048 35.0962 25.5056 34.7561 24.8548 35.0146C24.6378 35.0962 24.6785 35.2459 24.6785 35.3955C24.6785 36.4429 24.6785 37.4768 24.6785 38.5242C24.6785 38.6739 24.6242 38.8507 24.8548 38.9051C25.0446 38.9595 25.37 38.7691 25.37 39.15C25.3836 39.6941 25.37 40.2246 25.3158 40.7687C25.3022 40.8912 25.0717 40.8368 24.9497 40.8368C23.8649 40.8368 22.7802 40.8232 21.6954 40.8504C21.3158 40.864 21.2615 40.6871 21.2615 40.3606C21.2751 38.8643 21.2751 37.3679 21.2615 35.8716C21.2615 35.0962 20.8141 34.7833 20.0683 35.001C19.8242 35.069 19.8378 35.2322 19.8378 35.4227C19.8378 36.4429 19.8378 37.4632 19.8378 38.4834C19.8378 38.6466 19.7836 38.8643 20.0412 38.9187C20.2446 38.9595 20.5565 38.8235 20.5565 39.1908C20.57 39.7077 20.57 40.2382 20.5158 40.7415C20.5022 40.9184 20.2446 40.8504 20.0954 40.8504C18.7666 40.8504 17.4242 40.8368 16.0954 40.864C15.7293 40.864 15.6209 40.7415 15.648 40.3879C15.6751 40.0206 15.648 39.6669 15.6615 39.2996C15.6615 39.15 15.648 38.9459 15.8649 38.9323C16.4751 38.9051 16.4344 38.4834 16.4344 38.0617C16.4344 37.1503 16.4344 36.2525 16.4344 35.3411C16.4344 35.0826 16.448 34.7425 16.1497 34.7289C15.4581 34.6881 15.6073 34.2256 15.6073 33.8175C15.6073 32.6068 15.6073 32.6068 16.8005 32.6068C17.37 32.6068 17.9259 32.6068 18.4954 32.6068C19.5395 32.5932 19.5395 32.5932 19.8514 33.6407Z" fill="#F9F9F9"/>
<path d="M7.79697 20.3504C7.89188 20.5952 8.12239 20.568 8.31222 20.6224C9.24782 20.9217 9.89866 21.5066 10.0478 22.4997C10.2105 23.6015 9.93934 24.581 8.99019 25.2611C8.17663 25.8461 7.22748 26.0773 6.2512 26.1045C4.31222 26.1589 2.37324 26.1317 0.434256 26.1453C0.0952735 26.1453 0.000358186 26.0229 0.0274768 25.71C0.0545955 25.4108 0.0410362 25.1251 0.0274768 24.8258C0.0139175 24.4857 -0.0403198 24.1593 0.502053 24.1729C0.800358 24.1865 0.908833 23.86 0.908833 23.5607C0.908833 21.6563 0.908833 19.7518 0.908833 17.8474C0.908833 17.6161 0.881714 17.2897 0.637646 17.2897C-0.189472 17.2761 0.0410362 16.7047 0.0274768 16.2422C0.0139175 16.011 0.0410362 15.7933 0.0274768 15.562C0.0139175 15.3036 0.108833 15.1948 0.36646 15.2084C2.60375 15.2764 4.84104 15.0451 7.06476 15.358C7.87832 15.4668 8.65121 15.7525 9.20714 16.3918C10.4275 17.8474 9.70883 19.8062 7.79697 20.3504ZM4.48849 22.8534C4.48849 23.0846 4.51561 23.3023 4.48849 23.5335C4.43426 23.996 4.58341 24.1729 5.07154 24.1457C6.11561 24.1048 6.49527 23.6832 6.40036 22.5813C6.34612 21.8331 5.89866 21.5202 4.96307 21.5338C4.12239 21.5475 4.62409 22.1868 4.48849 22.5269C4.46137 22.6085 4.48849 22.7445 4.48849 22.8534ZM4.48849 18.4595C4.48849 18.7316 4.48849 19.0037 4.48849 19.2757C4.48849 19.3981 4.47493 19.5342 4.63765 19.6022C5.05799 19.779 5.91222 19.4934 6.12917 19.0717C6.40036 18.5547 6.25121 17.7386 5.81731 17.4665C5.45121 17.2488 5.01731 17.1944 4.63765 17.3305C4.29866 17.4529 4.52917 17.8474 4.47493 18.1194C4.47493 18.2283 4.48849 18.3507 4.48849 18.4595Z" fill="#F9F9F9"/>
<path d="M5.15273 29.9134C6.67137 29.9134 8.17646 29.927 9.6951 29.8998C10.0748 29.8998 10.251 29.9678 10.2375 30.4031C10.1968 31.4642 10.2104 32.5388 10.2375 33.5999C10.2375 33.9263 10.1426 34.008 9.81714 34.0216C8.12222 34.1032 8.10866 34.1168 7.90527 32.4436C7.85104 32.0355 7.6612 31.9947 7.33578 31.9947C6.94256 31.9811 6.96968 32.2259 6.98324 32.4844C6.98324 34.3616 6.98324 36.2389 6.98324 38.1297C6.98324 38.565 7.09171 38.9187 7.60697 38.9051C7.89171 38.8915 7.94595 39.0411 7.93239 39.2724C7.93239 39.3132 7.93239 39.3676 7.93239 39.4084C7.97307 40.8232 7.97307 40.8232 6.54934 40.8232C5.329 40.8232 4.10866 40.8096 2.88832 40.8368C2.50866 40.8368 2.34595 40.7279 2.38663 40.3334C2.41375 40.0614 2.40019 39.7893 2.38663 39.5172C2.37307 39.1636 2.34595 38.8507 2.88832 38.8643C3.24087 38.8779 3.34934 38.565 3.34934 38.2249C3.34934 36.2933 3.34934 34.3752 3.34934 32.4436C3.34934 32.1715 3.33578 31.9675 2.95612 31.9675C2.6307 31.9675 2.42731 32.0491 2.44087 32.4028C2.44087 32.43 2.44087 32.4436 2.44087 32.4708C2.18324 34.1304 2.08832 34.1984 0.393408 34.008C0.122222 33.9808 0.0679845 33.8719 0.0679845 33.6271C0.0815438 32.5116 0.0815438 31.4097 0.0679845 30.2943C0.0544252 29.8862 0.271374 29.8726 0.583239 29.8726C2.07476 29.9134 3.60697 29.9134 5.15273 29.9134Z" fill="#F9F9F9"/>
<path d="M37.1124 18.9084C37.8446 18.3235 38.6311 17.861 39.5802 17.7794C40.0006 17.7386 40.3938 17.7794 40.787 17.861C41.5192 18.0242 42.0074 18.5547 42.0345 19.3573C42.0887 20.6904 42.0751 22.0236 42.0887 23.3567C42.0887 23.7376 42.0209 24.1321 42.5633 24.2545C42.848 24.3225 42.6989 24.6354 42.6989 24.8394C42.7124 26.1453 42.7124 26.1453 41.4243 26.1453C40.7057 26.1453 39.9735 26.1181 39.2548 26.1589C38.7531 26.1861 38.6582 26.0093 38.6718 25.5468C38.6989 24.1184 38.6853 22.6901 38.6853 21.2618C38.6853 20.4592 37.9531 20.0103 37.248 20.3368C37.0582 20.4184 37.0582 20.568 37.0582 20.7313C37.0582 21.7787 37.0718 22.8125 37.0446 23.86C37.0311 24.2409 37.248 24.2545 37.5192 24.2273C37.8718 24.1865 37.9667 24.3361 37.9802 24.6898C38.0345 26.1589 38.048 26.1589 36.5701 26.1589C35.5124 26.1589 34.4412 26.1453 33.3836 26.1725C33.004 26.1861 32.8548 26.0773 32.8955 25.6828C32.9226 25.3971 32.909 25.0979 32.909 24.7986C32.909 24.5129 32.8277 24.2137 33.3158 24.2137C33.6141 24.2137 33.6684 23.9144 33.6684 23.6423C33.6684 22.6221 33.6684 21.6019 33.6684 20.5816C33.6684 20.3368 33.6277 20.1327 33.3836 20.0103C33.2073 19.9287 32.8684 20.0783 32.8684 19.7246C32.8548 19.1669 32.8684 18.5956 32.909 18.0378C32.9226 17.9154 33.1396 17.929 33.2751 17.929C34.265 17.929 35.2684 17.9154 36.2582 17.929C36.7463 17.9426 36.7463 17.9562 37.1124 18.9084Z" fill="#F9F9F9"/>
<path d="M15.8375 25.0843C14.9019 25.9549 13.8985 26.363 12.7053 26.2814C11.5121 26.1997 10.8205 25.5468 10.7934 24.3497C10.7663 23.1526 10.7934 21.9419 10.7934 20.7449C10.7934 20.3912 10.7934 20.0375 10.3324 19.9695C10.0883 19.9287 10.0883 19.779 10.0748 19.575C9.92562 17.9154 9.92562 17.9154 11.5663 17.9154C12.2849 17.9154 13.0171 17.929 13.7358 17.9018C14.1155 17.8882 14.2375 18.0242 14.2375 18.4051C14.2239 19.8743 14.2239 21.357 14.2239 22.8261C14.2239 23.6695 14.7392 24.0232 15.5663 23.8056C15.8104 23.7376 15.8239 23.5879 15.8239 23.3975C15.8239 22.3772 15.8104 21.357 15.8239 20.3368C15.8239 20.0239 15.6883 19.9287 15.4171 19.9559C15.0239 19.9967 14.9968 19.779 14.9832 19.4526C14.9426 17.9018 14.929 17.9018 16.4612 17.9018C17.1799 17.9018 17.9121 17.929 18.6307 17.8882C19.0917 17.861 19.2544 18.0106 19.2409 18.4867C19.2138 20.1191 19.2273 21.7515 19.2273 23.3839C19.2273 23.7784 19.1866 24.1865 19.7697 24.2137C20.0138 24.2273 19.946 24.4313 19.9595 24.581C20.1087 26.1181 20.1087 26.1181 18.5629 26.1181C18.0883 26.1181 17.6138 26.0773 17.1392 26.1317C16.3663 26.2405 15.8646 26.0501 15.8375 25.0843Z" fill="#F9F9F9"/>
<path d="M9.92591 4.38023C10.9022 3.46882 11.892 3.06072 13.0717 3.10153C14.3462 3.15595 15.0242 3.8225 15.0378 5.1148C15.0513 6.31188 15.0378 7.52257 15.0378 8.71965C15.0378 9.07333 14.97 9.42701 15.4852 9.57665C15.8107 9.67187 15.6479 10.0392 15.6479 10.284C15.6615 11.4811 15.6615 11.4811 14.4683 11.4811C13.6954 11.4811 12.9361 11.4539 12.1632 11.4811C11.7429 11.4947 11.6208 11.3723 11.6208 10.9506C11.6479 9.52224 11.6344 8.0939 11.6344 6.66557C11.6344 5.78136 11.214 5.46849 10.3462 5.64533C10.0886 5.69974 10.0208 5.80857 10.0208 6.05342C10.0344 7.10087 10.0344 8.13471 10.0208 9.18216C10.0208 9.50863 10.17 9.57665 10.4276 9.53584C10.8886 9.46782 10.9293 9.71268 10.9293 10.0936C10.9429 11.4811 10.9564 11.4811 9.55981 11.4811C8.47506 11.4811 7.39031 11.4675 6.30557 11.4811C5.96659 11.4811 5.80387 11.4131 5.83099 11.0322C5.85811 10.7193 5.83099 10.3928 5.84455 10.08C5.84455 9.7943 5.7632 9.48143 6.25133 9.50863C6.50896 9.52224 6.60387 9.26377 6.60387 9.00531C6.60387 7.94427 6.61743 6.86961 6.60387 5.80857C6.60387 5.63172 6.5632 5.37326 6.37337 5.35966C5.61404 5.33245 5.81743 4.78833 5.80387 4.35303C5.80387 4.17618 5.81743 3.98574 5.79031 3.8089C5.72252 3.33279 5.89879 3.18315 6.38692 3.21036C7.17337 3.25117 7.97337 3.26477 8.75981 3.21036C9.49201 3.18315 9.92591 3.42801 9.92591 4.38023Z" fill="#F9F9F9"/>
<path d="M80.1627 4.2714C81.0847 3.45521 82.0881 3.01991 83.2949 3.10153C84.5288 3.19675 85.139 3.8225 85.1661 5.06039C85.1796 6.31188 85.1661 7.54977 85.1661 8.80126C85.1661 9.12774 85.139 9.45422 85.5729 9.54944C85.9661 9.63106 85.8034 9.94393 85.8034 10.1616C85.8305 11.4947 85.8305 11.4947 84.5288 11.4947C83.783 11.4947 83.0373 11.4675 82.2915 11.5083C81.8576 11.5355 81.7627 11.3859 81.7763 10.9778C81.8034 9.52223 81.7898 8.0803 81.7898 6.62476C81.7898 5.82217 81.1254 5.40047 80.3661 5.68614C80.1627 5.76775 80.1627 5.89018 80.1627 6.05342C80.1627 7.10087 80.1763 8.13471 80.1491 9.18215C80.1356 9.54944 80.339 9.60385 80.6102 9.56304C81.0169 9.50863 81.0847 9.69908 81.0983 10.0664C81.1254 11.5083 81.139 11.5083 79.7152 11.5083C78.6305 11.5083 77.5458 11.4947 76.461 11.5219C76.0813 11.5355 75.9186 11.4267 75.9593 11.0322C75.9864 10.7193 75.9729 10.3928 75.9593 10.08C75.9458 9.78069 75.9593 9.56304 76.3661 9.56304C76.6508 9.56304 76.7593 9.30458 76.7593 9.01892C76.7593 7.97147 76.7593 6.93763 76.7593 5.89018C76.7593 5.67253 76.678 5.41407 76.4746 5.40047C75.8508 5.38687 75.9322 4.97877 75.9322 4.57067C75.9458 3.27837 75.9322 3.27837 77.1932 3.27837C77.7356 3.27837 78.278 3.27837 78.8203 3.27837C79.8237 3.25117 79.8237 3.25117 80.1627 4.2714Z" fill="#F9F9F9"/>
<path d="M41.2202 4.33942C42.1558 3.50963 43.1185 3.04712 44.2982 3.10153C45.6541 3.16955 46.2643 3.78169 46.2914 5.14201C46.305 6.32549 46.2914 7.49536 46.2914 8.67884C46.2914 9.05973 46.2372 9.44062 46.7796 9.57665C47.0914 9.65827 46.9287 10.0528 46.9287 10.2976C46.9423 11.4811 46.9423 11.4811 45.7762 11.4811C44.9897 11.4811 44.1897 11.4539 43.4033 11.4947C42.9829 11.5083 42.8609 11.3859 42.8745 10.9642C42.9016 9.53584 42.888 8.1075 42.888 6.67917C42.888 5.76776 42.5897 5.5365 41.6812 5.65893C41.3558 5.69974 41.2745 5.83577 41.2745 6.13504C41.288 7.11447 41.288 8.0803 41.2745 9.05973C41.2609 9.42701 41.3558 9.63106 41.7626 9.56305C42.1423 9.49503 42.1965 9.68547 42.2101 10.0256C42.2507 11.5083 42.2643 11.5083 40.8135 11.5083C39.7694 11.5083 38.7389 11.4811 37.6948 11.5219C37.1931 11.5355 37.0575 11.3587 37.0982 10.9098C37.1253 10.5969 37.0982 10.2704 37.0982 9.95754C37.0982 9.7807 37.0846 9.57665 37.3558 9.57665C37.8304 9.56305 37.8846 9.23657 37.8846 8.86928C37.8846 7.91706 37.8846 6.96484 37.8711 6.01261C37.8711 5.75415 37.8846 5.40047 37.5999 5.38687C36.9084 5.35966 37.044 4.89715 37.044 4.48906C37.044 3.26477 37.044 3.26477 38.2914 3.26477C38.8338 3.26477 39.3762 3.30558 39.9185 3.25117C40.6914 3.16955 41.2202 3.34639 41.2202 4.33942Z" fill="#F9F9F9"/>
<path d="M94.6982 11.141C93.41 11.9572 91.7287 11.7804 90.888 10.7193C90.1151 11.4539 89.1795 11.6851 88.149 11.5763C86.9287 11.4539 86.1016 10.6513 85.9931 9.50862C85.871 8.18911 86.5219 7.20968 87.7151 6.856C88.4609 6.63835 89.2338 6.67916 90.0066 6.67916C90.2371 6.67916 90.6032 6.92402 90.6575 6.48872C90.7117 6.09422 90.6575 5.69973 90.1829 5.5501C89.5727 5.35965 88.9355 5.38686 88.4202 5.72694C87.9049 6.06702 87.3897 5.97179 86.8609 5.999C86.6304 6.0126 86.5219 5.91738 86.5355 5.68613C86.549 5.52289 86.5355 5.37325 86.5355 5.21002C86.5355 3.50962 86.5355 3.50962 88.2575 3.25116C89.4507 3.07432 90.6439 2.9927 91.8371 3.21035C93.3558 3.49601 94.0202 4.2714 94.0744 5.82216C94.1016 6.74718 94.1151 7.6858 94.0744 8.61081C94.0473 9.14134 94.1558 9.52223 94.7117 9.68546C94.7117 10.1616 94.6982 10.6513 94.6982 11.141ZM90.6575 8.74684C90.7931 8.22992 90.5083 8.1347 90.0744 8.1347C89.5456 8.1347 89.2066 8.31154 89.2066 8.91008C89.2066 9.4134 89.4236 9.68546 89.9388 9.67186C90.5355 9.65826 90.7795 9.34538 90.6575 8.74684Z" fill="#F9F9F9"/>
<path d="M55.1866 7.16887C55.1866 7.713 55.1866 8.25713 55.1866 8.80126C55.1866 9.15494 55.1731 9.48142 55.6476 9.56303C56.0137 9.63105 55.8375 9.97113 55.8375 10.1888C55.8646 11.3587 55.7968 11.4539 54.6443 11.5763C53.7629 11.6715 52.868 11.7804 52.2036 10.9642C52.0409 10.7601 51.9053 10.9234 51.7426 11.005C50.807 11.5627 49.8171 11.7531 48.7595 11.4675C47.7968 11.1954 47.2273 10.5153 47.1324 9.52222C47.0239 8.37956 47.4307 7.53616 48.3256 7.06005C49.207 6.59754 50.1561 6.66556 51.1053 6.66556C51.3222 6.66556 51.729 6.97843 51.7832 6.44791C51.8239 5.999 51.7019 5.61811 51.2138 5.49568C50.6307 5.35965 50.007 5.37325 49.5188 5.72694C49.0307 6.06702 48.529 5.95819 48.0273 5.999C47.7561 6.0126 47.6748 5.89017 47.6883 5.63171C47.7019 5.40046 47.6883 5.18281 47.6883 4.95155C47.6883 3.55043 47.6883 3.53682 49.0443 3.29197C50.4138 3.06071 51.7832 2.93828 53.1527 3.23755C54.5358 3.53682 55.1595 4.3122 55.1866 5.71333C55.1866 6.21665 55.1866 6.69276 55.1866 7.16887ZM51.7832 8.81486C51.9324 8.28434 51.6883 8.10749 51.1731 8.1211C50.6307 8.1347 50.3188 8.33875 50.3188 8.91008C50.3188 9.3998 50.5629 9.67186 51.0646 9.65826C51.5934 9.65826 51.9188 9.44061 51.7832 8.81486Z" fill="#F9F9F9"/>
<path d="M71.0644 11.6307C69.3966 11.5627 67.8373 11.0594 67.0102 9.33178C66.2508 7.74021 66.4 6.14863 67.4712 4.7203C68.8 2.95189 72.0678 2.54379 74.0203 3.89051C75.8373 5.142 76.3797 7.78102 75.1864 9.69907C74.2508 11.1682 72.8 11.6035 71.0644 11.6307ZM72.3797 7.49535C72.339 6.97843 72.339 6.4343 72.0949 5.93098C71.9186 5.5637 71.6339 5.31884 71.2 5.31884C70.7661 5.31884 70.4542 5.53649 70.3051 5.91738C69.9119 6.92402 69.9254 7.94425 70.3051 8.95089C70.4542 9.33178 70.7525 9.54943 71.2 9.56303C71.6474 9.57664 71.9186 9.33178 72.0949 8.96449C72.3254 8.52919 72.3254 8.02587 72.3797 7.49535Z" fill="#F9F9F9"/>
<path d="M27.2007 8.09389C26.4956 8.09389 25.8041 8.09389 25.099 8.09389C24.7736 8.09389 24.6651 8.16191 24.76 8.5292C25.0312 9.59024 26.4685 10.0119 27.3769 9.20935C28.0007 8.65162 28.6651 9.00531 29.2888 8.89648C29.3295 8.89648 29.3837 8.91008 29.4108 8.93729C29.6956 9.18215 29.4515 10.9506 29.099 11.0866C27.2007 11.7804 25.2753 11.9028 23.3363 11.209C22.7939 11.0186 22.3464 10.6649 22.021 10.1752C21.0447 8.63802 20.9905 7.00564 21.6956 5.37326C22.3464 3.87691 23.6481 3.26476 25.221 3.12873C25.4515 3.11513 25.6685 3.11513 25.899 3.11513C29.099 3.15594 29.9125 5.15561 29.7905 7.78102C29.7769 8.1347 29.56 8.1075 29.343 8.1075C28.638 8.09389 27.9193 8.1075 27.2007 8.09389ZM25.6007 6.50232C26.5905 6.50232 26.5905 6.50232 26.6041 6.14864C26.6041 5.50929 26.2651 5.06038 25.7498 5.04678C25.2075 5.03318 24.6922 5.5637 24.76 6.18945C24.8142 6.8424 25.3837 6.31188 25.6007 6.50232Z" fill="#F9F9F9"/>
<path d="M36.1359 37.4496C35.458 37.4496 34.78 37.4768 34.102 37.436C33.5461 37.4088 33.5597 37.6672 33.6953 38.0481C34.0071 38.9459 35.2817 39.3132 36.1359 38.6194C36.7868 38.0889 37.4512 38.293 38.1156 38.2386C38.3325 38.2249 38.3868 38.3474 38.3868 38.5378C38.3868 39.0411 38.3868 39.5309 38.3868 40.0342C38.3868 40.3062 38.1698 40.3606 37.9936 40.4287C36.1902 41.0952 34.3461 41.2177 32.502 40.6327C31.363 40.2654 30.6715 39.4356 30.3732 38.2794C30.1427 37.4088 30.1156 36.5246 30.3054 35.6539C30.78 33.4366 32.7054 32.2123 35.1732 32.4436C37.9664 32.7021 38.8342 34.4161 38.7122 37.0551C38.6986 37.4088 38.5224 37.4632 38.2376 37.4496C37.5461 37.436 36.841 37.4496 36.1359 37.4496ZM34.5359 35.8172C35.6207 35.8172 35.7156 35.722 35.3902 34.933C35.1868 34.4433 34.8071 34.3208 34.3461 34.4433C33.7902 34.5929 33.641 35.1234 33.6681 35.5587C33.6953 36.0756 34.2105 35.6676 34.4681 35.8036C34.4817 35.8172 34.5088 35.8172 34.5359 35.8172Z" fill="#F9F9F9"/>
<path d="M48.7459 22.7717C48.0408 22.7717 47.3493 22.7853 46.6442 22.7717C46.2917 22.7581 46.2239 22.8942 46.3052 23.2206C46.5493 24.2545 47.9594 24.6898 48.8815 23.9008C49.5052 23.3703 50.1561 23.6559 50.8069 23.5743C50.8611 23.5607 50.9696 23.6151 50.9832 23.6423C51.1052 24.2273 51.0374 24.8122 51.0239 25.3972C51.0103 25.7508 50.6442 25.7644 50.4137 25.8461C48.7188 26.3902 47.0103 26.5126 45.2883 26.0093C44.0544 25.6556 43.3086 24.7986 42.9967 23.5607C42.4815 21.5474 43.051 19.6158 44.4476 18.5956C45.79 17.6025 48.3798 17.4801 49.8035 18.3371C50.9832 19.0445 51.2679 20.2143 51.3764 21.4794C51.4849 22.7717 51.4713 22.7717 50.1967 22.7853C49.695 22.7717 49.2205 22.7717 48.7459 22.7717ZM47.2137 21.2074C47.4984 20.9625 48.095 21.5338 48.1493 20.8265C48.2035 20.1463 47.7967 19.7246 47.2408 19.7382C46.7255 19.7518 46.251 20.2687 46.3188 20.8537C46.3866 21.493 46.9289 20.9761 47.2137 21.2074Z" fill="#F9F9F9"/>
<path d="M62.3328 26.2678C61.4243 26.3222 60.5294 26.1861 59.6481 26.0093C59.2413 25.9277 59.0514 25.7508 59.1328 25.3291C59.1464 25.2203 59.1192 25.0979 59.1328 24.9891C59.2142 24.5265 58.8752 23.7512 59.2955 23.6423C59.9057 23.4791 60.6921 23.3023 61.3159 23.9552C61.6955 24.3633 62.265 24.3361 62.7938 24.2545C63.0379 24.2137 63.2413 24.0912 63.2548 23.8328C63.2684 23.5607 63.065 23.4519 62.8209 23.4111C62.3057 23.3295 61.7904 23.2615 61.2887 23.1662C59.9328 22.9078 59.2277 22.1732 59.1464 20.9217C59.0379 19.4526 59.6481 18.4459 60.9904 18.0514C62.5904 17.5889 64.204 17.7386 65.804 18.1058C66.0481 18.1603 66.1565 18.2691 66.143 18.5139C66.143 18.65 66.1701 18.786 66.143 18.922C66.0616 19.3845 66.4142 20.1463 65.9667 20.2824C65.3701 20.4592 64.6108 20.5816 63.987 20.0375C63.5938 19.6974 63.0514 19.7382 62.5498 19.8198C62.3599 19.8471 62.1972 19.9559 62.1701 20.1599C62.143 20.4184 62.3328 20.5272 62.5362 20.5544C63.065 20.6496 63.6074 20.7449 64.1362 20.8265C66.3735 21.1666 66.7396 22.7309 66.2786 24.4041C65.8989 25.778 64.7192 26.1045 63.4853 26.2678C63.1057 26.3086 62.726 26.2678 62.3328 26.2678Z" fill="#F9F9F9"/>
<path d="M54.7123 26.2813C53.8716 26.3086 52.9903 26.1861 52.0954 25.9957C51.7293 25.9141 51.5259 25.7644 51.5937 25.3563C51.6208 25.2067 51.5937 25.0435 51.5937 24.8802C51.5937 23.4791 51.5937 23.4791 52.9903 23.5335C53.2208 23.5471 53.4106 23.5879 53.5733 23.7784C54.0072 24.2681 54.5903 24.3089 55.2005 24.2273C55.4716 24.2001 55.6886 24.0912 55.7021 23.7784C55.7157 23.4791 55.4852 23.4111 55.2547 23.3703C54.7394 23.2886 54.2242 23.2206 53.7225 23.1254C52.2988 22.8533 51.6344 22.078 51.5801 20.6768C51.5259 19.3437 52.2174 18.3371 53.5055 17.997C55.0649 17.5753 56.6377 17.7113 58.1971 18.065C58.4954 18.133 58.6174 18.2691 58.5903 18.5683C58.5767 18.7044 58.6038 18.8404 58.5903 18.9764C58.5225 19.4253 58.8344 20.1463 58.414 20.2687C57.831 20.432 57.0988 20.568 56.4886 20.0511C56.1089 19.7246 55.6072 19.7246 55.1327 19.7926C54.9157 19.8334 54.6581 19.8742 54.631 20.1599C54.6174 20.4592 54.8615 20.5272 55.0784 20.568C55.5937 20.6632 56.1089 20.7312 56.6106 20.8129C58.1971 21.0985 58.8479 21.7787 58.875 23.1934C58.9022 24.8394 58.1835 25.778 56.6649 26.1317C56.0411 26.2813 55.4174 26.295 54.7123 26.2813Z" fill="#F9F9F9"/>
<path d="M42.1292 40.9592C41.2479 40.9864 40.3801 40.8504 39.5123 40.6871C39.0784 40.6055 38.8885 40.4015 38.9563 39.9526C38.9834 39.8165 38.9428 39.6805 38.9699 39.5445C39.0648 39.1092 38.6851 38.3882 39.1733 38.2658C39.7699 38.1297 40.5292 37.9393 41.1258 38.5786C41.519 39.0003 42.1021 38.9867 42.658 38.8915C42.9021 38.8507 43.0784 38.6875 43.0784 38.4426C43.0784 38.2113 42.8885 38.1025 42.6716 38.0617C42.0885 37.9529 41.5055 37.8849 40.936 37.7624C39.6207 37.4632 39.0241 36.7558 38.9428 35.4635C38.8614 34.1848 39.4173 33.2326 40.597 32.7973C42.2784 32.1987 43.9733 32.4028 45.6546 32.7837C45.8716 32.8381 45.9529 32.9469 45.9529 33.1646C45.9529 33.6815 45.9529 34.212 45.9529 34.7289C45.9529 34.8378 45.9394 35.001 45.8038 34.9874C45.1936 34.9466 44.5292 35.2322 43.9733 34.8105C43.4987 34.4569 42.9834 34.4024 42.4411 34.4705C42.2241 34.4977 41.9801 34.5929 41.9801 34.8786C41.9801 35.137 42.2106 35.205 42.4004 35.2322C42.9699 35.3411 43.5529 35.4091 44.136 35.5315C45.5597 35.8172 46.1834 36.4837 46.2512 37.7624C46.3326 39.3132 45.736 40.2654 44.4072 40.7143C43.6614 40.9456 42.9021 41 42.1292 40.9592Z" fill="#F9F9F9"/>
<path d="M23.3084 26.2814C22.427 26.295 21.5592 26.1861 20.6914 25.9957C20.3389 25.9141 20.1084 25.778 20.1762 25.3699C20.2033 25.2203 20.1626 25.0435 20.1762 24.8938C20.244 24.4449 19.9321 23.724 20.3525 23.6151C20.9491 23.4655 21.7084 23.275 22.305 23.9144C22.7253 24.3497 23.3355 24.3361 23.905 24.2137C24.1084 24.1729 24.2847 24.0368 24.2711 23.792C24.2711 23.5335 24.0948 23.4383 23.8779 23.3975C23.3491 23.3023 22.8067 23.2342 22.2779 23.139C20.9355 22.8806 20.244 22.1324 20.1626 20.8673C20.0677 19.4526 20.6372 18.4867 21.9118 18.065C23.5525 17.5345 25.2067 17.7249 26.8609 18.0922C27.1592 18.1603 27.1457 18.3371 27.1321 18.5411C27.0643 19.1261 27.444 19.9695 26.9694 20.2551C26.5491 20.5136 25.7491 20.568 25.1796 20.1327C24.6914 19.7518 24.1491 19.711 23.5796 19.8198C23.3762 19.8606 23.1728 19.9559 23.1864 20.2143C23.1999 20.432 23.3762 20.5136 23.5525 20.5544C24.0813 20.6496 24.6236 20.7313 25.1525 20.8265C26.8067 21.1257 27.4304 21.8059 27.444 23.3295C27.4575 24.8938 26.6982 25.8188 25.1796 26.1589C24.5694 26.2814 23.9321 26.295 23.3084 26.2814Z" fill="#F9F9F9"/>
<path d="M4.62402 6.06702C4.62402 6.97843 4.62402 7.87624 4.62402 8.78765C4.62402 9.22295 4.71893 9.57664 5.24775 9.54943C5.53249 9.53583 5.60029 9.68546 5.58673 9.91672C5.58673 9.95753 5.58673 10.0119 5.58673 10.0527C5.62741 11.4811 5.62741 11.4811 4.20368 11.4811C2.98334 11.4811 1.763 11.4675 0.542661 11.4947C0.135881 11.5083 -0.0539493 11.4131 0.000288034 10.9778C0.0274067 10.7057 0.0138474 10.4336 0.000288034 10.1616C0.000288034 9.79429 -0.0268306 9.49502 0.515542 9.53583C0.840966 9.56304 0.976559 9.29097 0.976559 8.9781C0.976559 7.03284 0.976559 5.07398 0.976559 3.12873C0.976559 2.81586 0.800288 2.571 0.488424 2.5846C0.0138474 2.61181 0.0138474 2.35335 0.000288034 1.99966C0.000288034 0.571329 0.000287977 0.571329 1.45114 0.571329C2.64436 0.571329 3.85114 0.598536 5.04436 0.557726C5.50537 0.544123 5.64097 0.693758 5.60029 1.12906C5.57317 1.41473 5.57317 1.714 5.60029 2.01327C5.62741 2.38055 5.57317 2.61181 5.11215 2.5982C4.70537 2.5982 4.62402 2.93828 4.63758 3.27836C4.62402 4.21698 4.62402 5.142 4.62402 6.06702Z" fill="#F9F9F9"/>
<path d="M16.3258 7.53616C16.3258 6.92401 16.3122 6.31187 16.3258 5.69973C16.3258 5.42766 16.2715 5.26442 15.9461 5.31884C15.5529 5.38685 15.4986 5.1556 15.5122 4.84273C15.5258 4.50265 15.5258 4.16257 15.5122 3.82249C15.4986 3.4688 15.5258 3.18314 16.0139 3.25115C16.3122 3.29196 16.3258 3.08792 16.3258 2.87026C16.3258 2.43496 16.3393 2.01326 16.3122 1.57796C16.2986 1.22428 16.4071 1.10185 16.7732 1.10185C17.6139 1.12906 18.441 1.12906 19.2817 1.10185C19.6342 1.08825 19.7834 1.19707 19.7427 1.56436C19.7292 1.76841 19.7427 1.97245 19.7427 2.1765C19.7427 3.16953 19.7427 3.16953 20.7325 3.26476C20.8817 3.27836 21.0986 3.23755 21.1122 3.4416C21.1393 4.01293 21.1664 4.58427 21.0986 5.142C21.058 5.46847 20.6783 5.33244 20.4749 5.30523C19.8919 5.23722 19.6885 5.41406 19.7292 6.0262C19.797 6.91041 19.7563 7.79462 19.7563 8.67882C19.7563 9.26376 20.0275 9.60384 20.6241 9.54943C21.1122 9.50862 21.1664 9.72627 21.1664 10.1344C21.1664 11.5763 21.18 11.5763 19.702 11.6579C19.6749 11.6579 19.6614 11.6579 19.6342 11.6579C16.7597 11.7259 16.2309 10.6921 16.3258 8.48838C16.3393 8.17551 16.3258 7.84903 16.3258 7.53616Z" fill="#F9F9F9"/>
<path d="M56.5159 7.65859C56.5159 7.15527 56.5159 6.66555 56.5159 6.16224C56.5024 5.74054 56.638 5.40046 55.9329 5.23722C55.3905 5.10119 55.8244 4.20338 55.7295 3.65925C55.6888 3.46881 55.6888 3.21034 56.0142 3.26476C56.5295 3.34638 56.5295 3.0199 56.5295 2.65261C56.5295 1.11545 56.543 1.11545 58.0617 1.11545C58.5363 1.11545 59.0108 1.12906 59.4854 1.10185C59.8515 1.07464 59.9735 1.22428 59.9329 1.57796C59.9193 1.7548 59.9329 1.94525 59.9329 2.12209C59.9329 3.15593 59.96 3.06071 60.9227 3.29196C61.7227 3.48241 61.1668 4.25779 61.2888 4.76111C61.3566 5.03317 61.3702 5.31884 60.882 5.33244C59.9193 5.34605 59.9193 5.37325 59.9193 6.35268C59.9193 7.12806 59.9329 7.88984 59.9193 8.66522C59.9057 9.25016 60.1769 9.59024 60.7735 9.54943C61.2481 9.50862 61.3295 9.71267 61.3159 10.1344C61.3159 11.5763 61.3295 11.5763 59.8515 11.6579C59.282 11.6851 58.7261 11.6579 58.1702 11.5355C57.1396 11.2906 56.5837 10.6241 56.543 9.57664C56.5159 8.93729 56.543 8.31154 56.543 7.67219C56.5295 7.65859 56.5295 7.65859 56.5159 7.65859Z" fill="#F9F9F9"/>
<path d="M94.8882 9.71268C95.7289 9.57664 95.756 8.99171 95.7424 8.29794C95.7018 6.62475 95.7153 4.95156 95.7289 3.27837C95.7289 2.88388 95.6475 2.59821 95.1865 2.58461C94.9018 2.58461 94.8746 2.40777 94.8611 2.17651C94.7119 0.571335 94.7119 0.571335 96.339 0.571335C96.9763 0.571335 97.6001 0.571335 98.2373 0.571335C99.0373 0.571335 99.1458 0.666557 99.1458 1.46915C99.1458 3.8497 99.1458 6.21666 99.1458 8.59721C99.1458 9.07333 99.0373 9.61745 99.7967 9.56304C99.9051 9.56304 99.9458 9.63106 99.9594 9.72628C99.9729 9.7943 99.9594 9.86231 99.9729 9.93033C100.095 11.4947 100.095 11.4947 98.5357 11.4947C97.4916 11.4947 96.4611 11.4947 95.417 11.4947C95.1729 11.4947 94.8882 11.5627 94.8882 11.1682C94.9424 10.6785 94.9424 10.1888 94.8882 9.71268Z" fill="#F9F9F9"/>
<path d="M34.238 4.23059C34.7397 3.65925 35.282 3.22395 36.0685 3.16954C36.5566 3.14233 36.8414 3.22395 36.7871 3.82249C36.7329 4.43463 36.977 5.18281 36.7058 5.61811C36.4075 6.06702 35.5803 5.80856 34.9973 5.87657C34.4142 5.94459 34.1295 6.13503 34.1973 6.78798C34.2651 7.41373 34.2109 8.05308 34.2109 8.69243C34.2109 9.14134 34.0481 9.69907 34.8481 9.57664C35.0109 9.54943 35.0786 9.69907 35.0651 9.8487C35.0651 10.2976 35.0651 10.7601 35.0651 11.209C35.0651 11.5083 34.8617 11.5083 34.6447 11.5083C33.2481 11.5083 31.8515 11.5083 30.4414 11.5083C30.1566 11.5083 30.0346 11.4131 30.0346 11.1274C30.0481 10.7193 30.0346 10.3112 30.0346 9.90311C30.0346 9.73988 30.021 9.57664 30.2651 9.57664C30.7939 9.57664 30.8075 9.20935 30.8075 8.82846C30.8075 7.91705 30.7939 7.01924 30.8075 6.10783C30.8075 5.68613 30.7939 5.31884 30.2244 5.33244C30.0075 5.33244 29.9803 5.18281 29.9803 5.00597C29.9803 4.55706 29.9939 4.09455 29.9803 3.64565C29.9668 3.33278 30.1159 3.26476 30.3871 3.26476C31.4041 3.27836 32.421 3.27836 33.438 3.26476C34.1159 3.23755 33.9939 3.8497 34.238 4.23059Z" fill="#F9F9F9"/>
<path d="M31.9461 21.1257C31.9461 21.9419 31.9461 22.7581 31.9461 23.5743C31.9461 23.8328 31.9596 24.1729 32.2308 24.1865C32.8681 24.2001 32.719 24.6218 32.719 24.9754C32.719 26.1453 32.719 26.1453 31.58 26.1453C30.4546 26.1453 29.3291 26.1317 28.1902 26.1453C27.8376 26.1453 27.702 26.0501 27.7291 25.6964C27.7563 25.3427 27.7291 24.9754 27.7291 24.6082C27.7291 24.3769 27.7563 24.2273 28.0546 24.2137C28.4342 24.2001 28.5156 23.9416 28.5156 23.6015C28.5156 22.6085 28.502 21.6155 28.5156 20.6088C28.5156 20.2823 28.4478 19.9967 28.0681 19.9695C27.7156 19.9559 27.6885 19.7654 27.6885 19.4798C27.6342 17.9018 27.6207 17.9018 29.1935 17.9154C29.8444 17.9154 30.5088 17.9426 31.1596 17.9018C31.7291 17.861 31.9325 18.1466 31.9325 18.6636C31.9325 19.4934 31.9325 20.3095 31.9461 21.1257C31.9325 21.1257 31.9325 21.1257 31.9461 21.1257Z" fill="#F9F9F9"/>
<path d="M14.685 35.79C14.685 36.6062 14.685 37.4224 14.685 38.2386C14.685 38.497 14.7257 38.7283 14.9833 38.8779C15.146 38.9731 15.485 38.7827 15.485 39.1636C15.485 39.6805 15.4986 40.211 15.4579 40.7279C15.4443 40.9184 15.1867 40.8368 15.0511 40.8368C13.6952 40.8368 12.3392 40.8232 10.9969 40.8504C10.6036 40.8504 10.4681 40.7279 10.5087 40.3471C10.5358 40.0342 10.5223 39.7077 10.5087 39.3948C10.4952 39.1228 10.5087 38.9187 10.8748 38.8915C11.2003 38.8779 11.3087 38.6194 11.3087 38.3066C11.3087 37.2863 11.3087 36.2661 11.3087 35.2459C11.3087 35.0146 11.2816 34.7153 11.024 34.7017C10.3189 34.6745 10.4952 34.1848 10.4952 33.7903C10.4816 32.5932 10.4952 32.5932 11.702 32.5932C12.4748 32.5932 13.2342 32.6204 14.007 32.5932C14.5087 32.5796 14.7121 32.7973 14.7121 33.2734C14.6714 34.1168 14.6714 34.9466 14.685 35.79C14.6714 35.79 14.6714 35.79 14.685 35.79Z" fill="#F9F9F9"/>
<path d="M65.7361 6.54314C65.7361 7.33212 65.7361 8.13471 65.7361 8.9237C65.7361 9.15495 65.7226 9.48143 65.9802 9.49503C66.6853 9.52224 66.4955 10.012 66.509 10.4064C66.5226 11.4947 66.509 11.4947 65.3972 11.4947C64.2717 11.4947 63.1328 11.4811 62.0073 11.5083C61.6548 11.5083 61.5192 11.4131 61.5463 11.0458C61.5734 10.7601 61.5599 10.4609 61.5463 10.1616C61.5463 9.84871 61.465 9.52224 61.9802 9.53584C62.2378 9.53584 62.3192 9.26378 62.3192 9.01892C62.3328 7.97147 62.3328 6.93763 62.3192 5.89019C62.3192 5.65893 62.2378 5.35966 61.9938 5.35966C61.4243 5.37326 61.4921 5.00598 61.4785 4.63869C61.4785 3.26477 61.465 3.26477 62.8616 3.26477C63.5124 3.26477 64.1768 3.26477 64.8277 3.26477C65.587 3.26477 65.7226 3.3872 65.7361 4.16258C65.7497 4.95157 65.7361 5.75415 65.7361 6.54314Z" fill="#F9F9F9"/>
<path d="M51.2818 35.79C51.8649 35.79 52.4479 35.8036 53.0445 35.79C53.3971 35.79 53.5598 35.8172 53.5056 36.2797C53.3293 37.5176 52.9089 38.7147 52.8547 39.9661C52.8276 40.5511 52.5564 40.9048 51.8242 40.8368C50.7666 40.7551 49.7089 40.7959 48.6513 40.8232C48.1903 40.8368 48.0954 40.6463 48.1632 40.2654C48.4208 38.9187 48.6784 37.5584 48.9225 36.2117C48.9903 35.858 49.1666 35.7764 49.4784 35.79C50.0615 35.8036 50.6717 35.79 51.2818 35.79Z" fill="#79CE03"/>
<path d="M12.9764 32.2667C12.0273 32.2667 11.39 31.6818 11.4035 30.8112C11.4171 29.9406 12.0679 29.3285 12.99 29.3285C13.9256 29.3285 14.5629 29.927 14.5629 30.8112C14.5493 31.6954 13.9391 32.2667 12.9764 32.2667Z" fill="#F9F9F9"/>
<path d="M30.2106 14.6778C31.1597 14.6642 31.8106 15.2492 31.8241 16.1334C31.8377 16.9632 31.2004 17.5617 30.2784 17.5889C29.3157 17.6161 28.6513 17.0448 28.6377 16.1742C28.6377 15.2764 29.2479 14.6914 30.2106 14.6778Z" fill="#F9F9F9"/>
<path d="M64.0406 -1.71224e-06C64.9627 0.0136015 65.6406 0.652951 65.6135 1.49635C65.5864 2.35335 64.9084 2.95189 63.9728 2.93829C63.0644 2.91108 62.4271 2.31254 62.4406 1.46914C62.4406 0.584935 63.0915 -0.0136049 64.0406 -1.71224e-06Z" fill="#F9F9F9"/>
</svg>
