<svg width="128" height="23" viewBox="0 0 128 23" fill="none" xmlns="http://www.w3.org/2000/svg">
<path d="M23.2713 7.58615C23.2713 6.99326 23.6388 6.73229 23.9902 6.66374C24.0889 6.62887 24.2024 6.61083 24.2591 6.41841L24.343 6.14181C24.4133 5.91451 24.2727 5.87964 24.1604 5.87964H21.2019C21.0749 5.87964 21.0058 5.93255 20.9626 6.0011L20.8492 6.31499C20.7924 6.45449 20.822 6.59519 21.0058 6.62887C21.6952 6.80204 21.9061 6.90547 21.9061 7.58495V18.0513C21.9061 18.7825 21.8074 19.5305 21.652 19.9322C21.525 20.2617 21.2574 20.5936 20.9478 20.6802V21.3958C22.0602 21.3958 23.2725 20.5936 23.2725 17.616V7.58615H23.2713Z" fill="white"/>
<path d="M27.4118 6.81888H29.4664C30.4111 6.81888 30.6232 8.21391 30.8353 8.00225L31.0869 7.74249C31.1313 7.69198 31.1597 7.63906 31.1597 7.58615V6.31499C31.1856 6.06965 31.0191 5.87964 30.749 5.87964H25.2413C25.1575 5.87964 25.0588 5.91451 24.9996 6.06965L24.8886 6.3679C24.8183 6.55912 24.9453 6.61083 25.1575 6.66374C25.763 6.78521 26.0417 7.04617 26.0417 7.72565V16.8679C26.0417 18.0874 26.3549 18.0705 26.7915 18.0705H31.1449C31.5272 18.0705 31.7899 17.913 31.7899 17.634V16.0489C31.7899 15.9792 31.764 15.9118 31.706 15.8914L31.357 15.7531C31.1597 15.6834 30.9611 17.1301 29.5096 17.1301H28.2689C27.6659 17.1301 27.4118 16.9738 27.4118 15.5114V11.9216H30.2002C30.4271 11.9216 30.5653 11.8699 30.6503 11.6786L30.8477 11.2445C30.9204 11.087 30.8477 10.9823 30.6639 10.9823H27.4118V6.81888Z" fill="white"/>
<path fill-rule="evenodd" clip-rule="evenodd" d="M34.4802 6.81888H35.7344C36.7037 6.81888 37.4227 7.32518 37.4523 9.06536C37.4782 10.9823 36.536 11.853 35.4532 11.8194H34.4814V6.81888H34.4802ZM40.0878 17.5642C39.4514 17.1974 38.4254 15.0375 37.0836 12.2535C38.0702 11.5572 38.8163 10.2487 38.8163 8.91023C38.804 6.78521 37.7162 5.87964 36.0156 5.87964H32.306C32.2258 5.87964 32.1259 5.91451 32.0704 6.06965L31.957 6.3679C31.8867 6.55912 32.0137 6.61083 32.2258 6.66374C32.8301 6.78521 33.1138 7.04617 33.1138 7.72565V16.3628C33.1138 16.9545 32.7462 17.2167 32.3948 17.2852C32.2961 17.3213 32.1827 17.3381 32.1272 17.5306L32.0421 17.8084C31.9718 18.0345 32.1136 18.0705 32.2258 18.0705H35.1819C35.3102 18.0705 35.3805 18.0176 35.4224 17.9491L35.5334 17.6328C35.5926 17.4957 35.5605 17.355 35.3805 17.3201C34.6898 17.1445 34.4802 17.0423 34.4802 16.3616V12.7574H35.9428L38.085 17.6508C38.1405 17.7915 38.2416 18.0705 38.4661 18.0705H40.0878V17.5642Z" fill="white"/>
<path d="M41.8157 7.58615C41.8157 6.99326 42.1832 6.73229 42.5347 6.66374C42.6334 6.62887 42.7468 6.61083 42.8023 6.41841L42.8862 6.14181C42.9577 5.91451 42.8159 5.87964 42.7036 5.87964H39.7476C39.6193 5.87964 39.5478 5.93255 39.5058 6.0011L39.3924 6.31499C39.3369 6.45449 39.3665 6.59519 39.5478 6.62887C40.2396 6.80204 40.4493 6.90547 40.4493 7.58495V13.4188C40.4493 16.0489 41.2965 18.2786 44.1552 18.2786C45.9594 18.2786 47.665 17.076 47.665 13.3659V7.58615C47.665 6.99326 48.0313 6.73229 48.384 6.66374C48.4826 6.62887 48.5949 6.61083 48.6504 6.41841L48.7355 6.14181C48.807 5.91451 48.6639 5.87964 48.5529 5.87964H46.0864C45.9594 5.87964 45.8904 5.93255 45.8472 6.0011L45.735 6.31499C45.6782 6.45449 45.7066 6.59519 45.8904 6.62887C46.581 6.80204 46.7919 6.90547 46.7919 7.58495V13.4032C46.7919 15.8397 46.0309 17.0952 44.1848 17.0952C42.4237 17.0952 41.8169 15.0736 41.8169 13.3659V7.58615H41.8157Z" fill="white"/>
<path d="M54.1297 8.16088C54.1728 8.09234 54.2135 8.03701 54.2135 7.96847V6.68047C54.2419 6.38462 54.0175 6.22949 53.5945 6.02023C53.1702 5.80977 52.6646 5.66907 52.0171 5.66907C50.1562 5.66907 49.0142 7.3407 49.0142 8.56015C49.0142 10.2667 50.1697 11.0688 51.0009 11.7988C51.8741 12.5673 53.3108 13.6448 53.2134 15.2142C53.1702 16.4325 52.4673 17.3897 51.3253 17.3897C50.6495 17.3897 50.0143 17.0422 49.748 16.2737C49.3953 15.5449 49.3953 14.7789 49.1992 14.8474L48.8169 15.0026C48.6763 15.0735 48.733 15.3345 48.733 15.5245V17.2154C48.733 17.6688 48.733 17.6844 49.4655 17.9646C49.9169 18.1378 50.4941 18.2785 51.2846 18.2785C52.8767 18.2785 54.6242 17.1288 54.5675 14.8991C54.512 12.9485 53.6364 12.0598 52.1022 10.7886C50.9454 9.83132 50.2141 9.11696 50.3683 7.86264C50.4817 6.97511 51.2155 6.45317 51.9049 6.45317C52.5388 6.45317 52.9606 6.71534 53.243 7.42969C53.4255 7.88068 53.6944 8.59623 53.8066 8.47477L54.1297 8.16088Z" fill="white"/>
<path fill-rule="evenodd" clip-rule="evenodd" d="M57.7908 13.42L59.4532 8.161L61.0873 13.42H57.7908ZM64.7377 17.5462C64.7648 17.4428 64.6945 17.3201 64.5404 17.2696C63.7659 17.0074 63.7227 17.0952 63.4403 16.2245C62.4956 13.3864 61.3117 9.85187 60.3399 6.3679C60.298 6.10693 60.1845 5.87964 59.9872 5.87964H57.9585C57.8031 5.87964 57.6761 5.89648 57.6206 6.05402L57.5503 6.29695C57.3518 6.71666 58.0152 6.60963 58.3396 6.95838C58.4937 7.13156 58.8465 7.39253 58.5924 8.17663L55.9989 16.2233C55.7041 17.0231 55.6055 17.1289 55.0123 17.284C54.8014 17.355 54.6879 17.3899 54.646 17.5294L54.5782 17.7555C54.4487 18.1198 54.7459 18.0693 55.0123 18.0693H57.1261C57.3246 18.0693 57.3653 17.8781 57.4085 17.7915L57.4911 17.616C57.6749 17.2155 56.5612 17.3706 56.8301 16.536L57.5207 14.3605H61.382L61.9727 16.3616C62.2687 17.3887 61.509 17.2335 61.3956 17.4945L61.2685 17.824C61.1835 18.0152 61.324 18.0681 61.4498 18.0681H64.2407C64.3529 18.0681 64.5083 18.0489 64.565 17.9286L64.7377 17.5462Z" fill="white"/>
<path d="M65.3128 17.8084C65.2425 18.0345 65.3831 18.0705 65.4953 18.0705H71.484C71.8651 18.0705 72.1327 17.913 72.1327 17.634V16.0489C72.1327 15.9792 72.1043 15.9118 72.0476 15.8914L71.6949 15.7531C71.4988 15.6834 71.3015 17.1301 69.8499 17.1301H68.6093C68.0038 17.1301 67.7497 16.9738 67.7497 15.5114V7.58615C67.7497 6.99326 68.116 6.73229 68.4687 6.66374C68.5674 6.62887 68.6796 6.61083 68.7376 6.41841L68.8214 6.14181C68.8917 5.91451 68.7511 5.87964 68.6389 5.87964H65.6803C65.5521 5.87964 65.483 5.93255 65.4411 6.0011L65.3276 6.31499C65.2709 6.45449 65.2993 6.59519 65.483 6.62887C66.1736 6.80204 66.3845 6.90547 66.3845 7.58495V16.3616C66.3845 16.9533 66.0182 17.2155 65.6655 17.284C65.5669 17.3201 65.4546 17.3369 65.3967 17.5294L65.3128 17.8084Z" fill="white"/>
<path d="M74.0876 6.81888H76.1447C77.0893 6.81888 77.3002 8.21391 77.5111 8.00225L77.7639 7.74249C77.8071 7.69198 77.8355 7.63906 77.8355 7.58615V6.31499C77.8638 6.06965 77.6949 5.87964 77.4273 5.87964H71.9171C71.8332 5.87964 71.7333 5.91451 71.6803 6.06965L71.5644 6.3679C71.4941 6.55912 71.6211 6.61083 71.8332 6.66374C72.4388 6.78521 72.7212 7.04617 72.7212 7.72565V16.8679C72.7212 18.0874 73.0307 18.0705 73.4673 18.0705H77.8207C78.2017 18.0705 78.4693 17.913 78.4693 17.634V16.0489C78.4693 15.9792 78.441 15.9118 78.3842 15.8914L78.0328 15.7531C77.8355 15.6834 77.6381 17.1301 76.1866 17.1301H74.946C74.3404 17.1301 74.0876 16.9738 74.0876 15.5114V11.9216H76.8772C77.1041 11.9216 77.2447 11.8699 77.3286 11.6786L77.5247 11.2445C77.5962 11.087 77.5247 10.9823 77.3434 10.9823H74.0876V6.81888Z" fill="white"/>
<path d="M89.6538 7.72565C89.6538 7.02934 89.9486 6.83692 90.3716 6.73109C90.527 6.67938 90.6676 6.6433 90.7231 6.47012L90.8082 6.15624C90.8785 5.91331 90.7514 5.87964 90.6108 5.87964H88.9916C88.793 5.87964 88.5822 5.96743 88.3996 6.43525L84.764 15.7026L81.3418 6.59519C81.1025 5.94819 81.0038 5.87964 80.5401 5.87964H78.6644C78.5374 5.87964 78.4671 5.93255 78.4276 6.0011L78.3117 6.31499C78.2537 6.47132 78.2833 6.59519 78.5657 6.66374C78.8481 6.73229 79.3414 6.99326 79.8187 7.62102V16.3628C79.8187 16.9545 79.4512 17.2167 79.0997 17.2852C79.0035 17.3213 78.8876 17.3381 78.8346 17.5306L78.7482 17.8084C78.6767 18.0345 78.821 18.0705 78.9308 18.0705H81.3985C81.523 18.0705 81.5933 18.0176 81.6377 17.9491L81.7487 17.6328C81.8042 17.4957 81.7759 17.355 81.5933 17.3201C80.9015 17.1469 80.6918 17.0423 80.6918 16.3616V8.83927H80.719L83.9599 17.5125C84.0734 17.8264 84.1856 18.0705 84.2707 18.0705H84.5531C84.6666 18.0705 84.7357 17.895 84.822 17.6857L88.259 8.84048H88.2874V16.364C88.2874 16.9557 87.9199 17.2179 87.5672 17.2864C87.4698 17.3225 87.3563 17.3394 87.3008 17.5318L87.2157 17.8096C87.1454 18.0357 87.2872 18.0717 87.3995 18.0717H90.358C90.4838 18.0717 90.5541 18.0188 90.596 17.9503L90.7083 17.634C90.7662 17.4969 90.7366 17.3562 90.5541 17.3213C89.8635 17.1481 89.6538 17.0435 89.6538 16.3628V7.72565Z" fill="white"/>
<path d="M96.9323 6.81884H98.1298C99.2138 6.81884 100.115 7.55123 100.115 9.32629C100.115 11.052 99.2989 12.2017 97.7488 12.2017C97.6217 12.2017 97.5366 12.2535 97.6217 12.4278L97.819 12.8283C99.5937 12.9846 101.455 11.9059 101.482 9.11944C101.51 6.83928 100.06 5.8808 98.5787 5.8808H94.7606C94.6767 5.8808 94.5781 5.91567 94.5213 6.07081L94.4091 6.36786C94.3388 6.55907 94.4659 6.61079 94.678 6.6637C95.2823 6.78516 95.5659 7.04613 95.5659 7.72561V16.3628C95.5659 16.9545 95.1984 17.2166 94.8469 17.2852C94.7483 17.3213 94.6348 17.3381 94.5793 17.5305L94.4942 17.8083C94.4239 18.0344 94.5657 18.0705 94.678 18.0705H97.6353C97.7623 18.0705 97.8338 18.0176 97.8745 17.949L97.988 17.6327C98.0447 17.4956 98.0151 17.3549 97.8338 17.3201C97.142 17.1445 96.9323 17.0423 96.9323 16.3616V6.81884Z" fill="white"/>
<path fill-rule="evenodd" clip-rule="evenodd" d="M106.638 18.2797C109.609 18.2797 111.948 15.5979 111.948 11.7314C111.948 8.36894 109.918 5.66907 107.13 5.66907C103.806 5.66907 101.819 8.80428 101.819 12.2185C101.819 16.1535 104.45 18.2797 106.638 18.2797ZM107.005 17.338C104.666 17.338 103.312 14.9172 103.312 11.6785C103.312 8.54332 104.821 6.61071 106.835 6.61071C108.988 6.61071 110.455 8.64915 110.455 11.9215C110.453 14.3952 109.369 17.338 107.005 17.338Z" fill="white"/>
<path d="M117.485 8.16088C117.527 8.09234 117.567 8.03701 117.567 7.96847V6.68047C117.597 6.38462 117.373 6.22949 116.949 6.02023C116.526 5.80977 116.02 5.66907 115.371 5.66907C113.512 5.66907 112.37 7.3407 112.37 8.56015C112.37 10.2667 113.526 11.0688 114.355 11.7988C115.23 12.5673 116.668 13.6448 116.569 15.2142C116.526 16.4325 115.822 17.3897 114.681 17.3897C114.005 17.3897 113.37 17.0422 113.103 16.2737C112.751 15.5449 112.751 14.7789 112.553 14.8474L112.172 15.0026C112.032 15.0735 112.088 15.3345 112.088 15.5245V17.2154C112.088 17.6688 112.088 17.6844 112.821 17.9646C113.272 18.1378 113.851 18.2785 114.64 18.2785C116.232 18.2785 117.978 17.1288 117.923 14.8991C117.866 12.9485 116.993 12.0598 115.458 10.7886C114.301 9.83132 113.568 9.11696 113.724 7.86264C113.837 6.97511 114.571 6.45317 115.259 6.45317C115.894 6.45317 116.316 6.71534 116.598 7.42969C116.781 7.88068 117.05 8.59623 117.162 8.47477L117.485 8.16088Z" fill="white"/>
<path d="M122.923 6.95954H125.472C125.697 6.95954 125.854 6.94271 126.008 6.75149L126.276 6.24519C126.473 5.96859 126.276 5.8808 126.08 5.8808H119.005C118.779 5.8808 118.625 5.89763 118.469 6.08885L118.202 6.59515C118.004 6.87175 118.202 6.95954 118.402 6.95954H121.556V16.3628C121.556 16.9545 121.189 17.2166 120.837 17.2852C120.739 17.3213 120.625 17.3381 120.57 17.5305L120.485 17.8083C120.414 18.0344 120.556 18.0705 120.668 18.0705H123.626C123.754 18.0705 123.824 18.0176 123.865 17.949L123.978 17.6327C124.035 17.4956 124.005 17.3549 123.824 17.3201C123.132 17.1445 122.923 17.0423 122.923 16.3616V6.95954Z" fill="white"/>
<path d="M4.67664 6.54828H6.53021C6.69547 6.54828 6.80769 6.53626 6.91992 6.416L7.11354 6.09369C7.25783 5.91691 7.11354 5.86279 6.97172 5.86279H1.83031C1.66505 5.86279 1.55159 5.87121 1.4406 5.99508L1.24575 6.31498C1.10269 6.49417 1.24575 6.54828 1.39004 6.54828H3.68265V12.5397C3.68265 12.9173 3.41873 13.0845 3.15975 13.129C3.08945 13.1518 3.00683 13.1639 2.96736 13.2841L2.9057 13.4633C2.85514 13.6064 2.95626 13.6293 3.03766 13.6293H5.18844C5.28093 13.6293 5.33273 13.5968 5.36356 13.5511L5.44496 13.3515C5.48565 13.2649 5.46715 13.1747 5.33273 13.1518C4.82957 13.0388 4.67664 12.9726 4.67664 12.5397V6.54828Z" fill="white"/>
<path d="M9.01236 6.94755C9.01236 6.57113 9.27874 6.40397 9.53403 6.36068C9.60555 6.33783 9.68695 6.3258 9.72888 6.20434L9.79054 6.02635C9.84111 5.88324 9.73751 5.86279 9.65612 5.86279H7.5041C7.41407 5.86279 7.36228 5.89406 7.33021 5.93736L7.24882 6.13939C7.20935 6.22839 7.22909 6.31498 7.36228 6.33903C7.86421 6.44847 8.0159 6.51702 8.0159 6.94755V12.5397C8.0159 12.9173 7.75075 13.0845 7.49424 13.129C7.42517 13.1518 7.34131 13.1639 7.30062 13.2841L7.24019 13.4633C7.18716 13.6052 7.28952 13.6293 7.37214 13.6293H9.52046C9.61542 13.6293 9.66475 13.5968 9.69682 13.5535L9.77944 13.3515C9.81891 13.2661 9.79794 13.1735 9.66475 13.153C9.16405 13.04 9.01113 12.9739 9.01113 12.5409V9.63419H12.5037V12.5409C12.5037 12.9185 12.2361 13.0857 11.9796 13.1302C11.9105 13.1518 11.8279 13.1639 11.7872 13.2841L11.7243 13.4633C11.6737 13.6052 11.7761 13.6293 11.8587 13.6293H14.007C14.1007 13.6293 14.1525 13.5968 14.1834 13.5535L14.266 13.3515C14.3042 13.2661 14.2845 13.1735 14.1525 13.153C13.6506 13.04 13.4952 12.9739 13.4952 12.5409V6.94875C13.4952 6.57234 13.7641 6.40517 14.0181 6.36188C14.0909 6.33903 14.171 6.327 14.2142 6.20554L14.2759 6.02755C14.3277 5.88324 14.2228 5.86279 14.1414 5.86279H11.9931C11.8994 5.86279 11.8476 5.89406 11.8168 5.93736L11.7354 6.13939C11.6934 6.22839 11.7156 6.31498 11.8464 6.33903C12.3495 6.44847 12.5037 6.51702 12.5037 6.94755V9.00041H9.01236V6.94755Z" fill="white"/>
<path d="M16.2846 6.46049H17.7818C18.4675 6.46049 18.6204 7.34922 18.7758 7.21573L18.9583 7.04737C18.9867 7.01369 19.0101 6.98122 19.0101 6.94755V6.13939C19.0311 5.98426 18.9065 5.86279 18.7117 5.86279H14.7073C14.6457 5.86279 14.5766 5.88324 14.5334 5.98426L14.452 6.17066C14.4027 6.29453 14.4927 6.3258 14.6457 6.36188C15.0872 6.43885 15.2919 6.6036 15.2919 7.03654V12.8632C15.2919 13.6401 15.5176 13.6293 15.8333 13.6293H18.999C19.274 13.6293 19.4689 13.5307 19.4689 13.3515V12.3413C19.4689 12.2992 19.4504 12.2523 19.4072 12.2403L19.1519 12.1525C19.0101 12.1068 18.8658 13.0304 17.8114 13.0304H16.9099C16.4709 13.0304 16.2846 12.9294 16.2846 11.9973V9.71116H18.3146C18.4774 9.71116 18.5809 9.67628 18.6414 9.55602L18.7857 9.27942C18.8375 9.1784 18.7857 9.11105 18.6512 9.11105H16.2859V6.46049H16.2846Z" fill="white"/>
<path d="M2.80664 14.4338H19.4703V18.0958H2.80664V14.4338Z" fill="#BB2026"/>
</svg>
