<svg width="34" height="34" viewBox="0 0 34 34" fill="none" xmlns="http://www.w3.org/2000/svg">
<path d="M25.5 17L17 25.5H34L25.5 17Z" fill="url(#paint0_linear_148_15600)"/>
<path d="M8.5 17L0 8.5V25.5L8.5 17Z" fill="url(#paint1_linear_148_15600)"/>
<path d="M25.5 17L34 8.5H17L25.5 17Z" fill="url(#paint2_linear_148_15600)"/>
<path d="M17 8.5L25.5 0H8.5L17 8.5Z" fill="url(#paint3_linear_148_15600)"/>
<path d="M25.5 34L34 25.5H17L25.5 34Z" fill="url(#paint4_linear_148_15600)"/>
<path d="M8.5 34L17 25.5H0L8.5 34Z" fill="url(#paint5_linear_148_15600)"/>
<path d="M25.5 0L17 8.5H34L25.5 0Z" fill="url(#paint6_linear_148_15600)"/>
<path d="M0 8.5H17L8.5 0L0 8.5Z" fill="url(#paint7_linear_148_15600)"/>
<path d="M17 25.5L8.5 34H25.5L17 25.5Z" fill="url(#paint8_linear_148_15600)"/>
<path d="M8.5 17L0 25.5H17L8.5 17Z" fill="url(#paint9_linear_148_15600)"/>
<path d="M17 8.5H0L8.5 17L17 8.5Z" fill="url(#paint10_linear_148_15600)"/>
<defs>
<linearGradient id="paint0_linear_148_15600" x1="16.9912" y1="21.2604" x2="33.9912" y2="21.2604" gradientUnits="userSpaceOnUse">
<stop stop-color="white" stop-opacity="0.52"/>
<stop offset="1" stop-color="white" stop-opacity="0.62"/>
</linearGradient>
<linearGradient id="paint1_linear_148_15600" x1="-0.00884" y1="17.0138" x2="8.49116" y2="17.0138" gradientUnits="userSpaceOnUse">
<stop stop-color="white"/>
<stop offset="1" stop-color="white" stop-opacity="0.97"/>
</linearGradient>
<linearGradient id="paint2_linear_148_15600" x1="16.9912" y1="12.7673" x2="33.9912" y2="12.7673" gradientUnits="userSpaceOnUse">
<stop stop-color="white" stop-opacity="0.52"/>
<stop offset="1" stop-color="white" stop-opacity="0.62"/>
</linearGradient>
<linearGradient id="paint3_linear_148_15600" x1="8.49116" y1="4.27414" x2="25.4912" y2="4.27414" gradientUnits="userSpaceOnUse">
<stop stop-color="white" stop-opacity="0.8"/>
<stop offset="1" stop-color="white" stop-opacity="0.7"/>
</linearGradient>
<linearGradient id="paint4_linear_148_15600" x1="16.9912" y1="29.7535" x2="33.9912" y2="29.7535" gradientUnits="userSpaceOnUse">
<stop stop-color="white" stop-opacity="0.67"/>
<stop offset="1" stop-color="white" stop-opacity="0.62"/>
</linearGradient>
<linearGradient id="paint5_linear_148_15600" x1="-0.00884" y1="29.7535" x2="16.9912" y2="29.7535" gradientUnits="userSpaceOnUse">
<stop stop-color="white" stop-opacity="0.89"/>
<stop offset="1" stop-color="white" stop-opacity="0.8"/>
</linearGradient>
<linearGradient id="paint6_linear_148_15600" x1="16.9912" y1="4.27414" x2="33.9912" y2="4.27414" gradientUnits="userSpaceOnUse">
<stop stop-color="white" stop-opacity="0.67"/>
<stop offset="1" stop-color="white" stop-opacity="0.62"/>
</linearGradient>
<linearGradient id="paint7_linear_148_15600" x1="-0.00884" y1="4.27414" x2="16.9912" y2="4.27414" gradientUnits="userSpaceOnUse">
<stop stop-color="white" stop-opacity="0.89"/>
<stop offset="1" stop-color="white" stop-opacity="0.8"/>
</linearGradient>
<linearGradient id="paint8_linear_148_15600" x1="8.49116" y1="29.7535" x2="25.4912" y2="29.7535" gradientUnits="userSpaceOnUse">
<stop stop-color="white" stop-opacity="0.8"/>
<stop offset="1" stop-color="white" stop-opacity="0.7"/>
</linearGradient>
<linearGradient id="paint9_linear_148_15600" x1="-0.00884" y1="21.2604" x2="16.9912" y2="21.2604" gradientUnits="userSpaceOnUse">
<stop stop-color="white" stop-opacity="0.9"/>
<stop offset="1" stop-color="white" stop-opacity="0.95"/>
</linearGradient>
<linearGradient id="paint10_linear_148_15600" x1="-0.00884" y1="12.7673" x2="16.9912" y2="12.7673" gradientUnits="userSpaceOnUse">
<stop stop-color="white" stop-opacity="0.9"/>
<stop offset="1" stop-color="white" stop-opacity="0.95"/>
</linearGradient>
</defs>
</svg>
