<svg width="61" height="36" viewBox="0 0 61 36" fill="none" xmlns="http://www.w3.org/2000/svg">
<path d="M28.721 31.1853C30.0554 28.1958 31.4533 25.3951 32.5971 22.4685C33.1054 21.1783 33.7726 20.5804 35.1705 20.8322C35.6153 20.9266 36.1236 20.8322 36.6637 20.8322C36.6637 25.7727 36.6637 30.6503 36.6637 35.6224C35.7742 35.6224 34.8846 35.6224 33.8679 35.6224C33.8679 32.6958 33.8679 29.7692 33.8679 26.8112C33.8044 26.7797 33.7091 26.7797 33.6455 26.7482C33.5184 27.0629 33.4231 27.3461 33.296 27.6294C32.2794 30.0524 31.2309 32.4755 30.2778 34.9615C29.9601 35.7482 29.4518 35.6853 28.8481 35.6853C28.1809 35.6538 27.5137 35.9056 27.1325 34.9615C26.084 32.2238 24.9085 29.5175 23.6377 26.7797C23.6377 29.7063 23.6377 32.6329 23.6377 35.6224C22.621 35.6224 21.7314 35.6224 20.7783 35.6224C20.7783 30.7133 20.7783 25.8357 20.7783 20.8322C21.795 20.8322 22.8117 20.8007 23.7965 20.8636C23.9872 20.8636 24.2413 21.2413 24.3684 21.5245C25.7346 24.5455 27.1007 27.5664 28.4351 30.5874C28.4986 30.7448 28.5939 30.9021 28.721 31.1853Z" fill="white"/>
<path d="M41.5244 2.23427C42.5093 2.23427 43.3989 2.23427 44.352 2.23427C44.352 4.12238 44.352 5.97902 44.352 7.8986C46.5442 7.8986 48.6411 7.8986 50.8015 7.8986C50.8015 5.28671 50.8015 2.67483 50.8015 0C51.7864 0 52.676 0 53.6926 0C53.6926 2.58042 53.6926 5.19231 53.6926 7.96154C55.1541 7.83566 56.5202 8.37063 57.7911 7.45804C58.6171 6.86014 59.7926 7.11189 60.4598 7.8986C61.0952 8.62238 61.1588 9.81818 60.5869 10.6049C59.9833 11.4545 58.776 11.9266 58.0135 11.3287C56.7109 10.2902 55.2812 10.9196 53.788 10.6678C53.788 12.8392 53.788 14.9161 53.788 17.0245C52.7713 17.0245 51.8499 17.0245 50.865 17.0245C50.865 14.9476 50.865 12.9336 50.865 10.8252C48.7046 10.8252 46.6077 10.8252 44.4473 10.8252C44.4473 12.8706 44.4473 14.8846 44.4473 16.993C43.4307 16.993 42.5093 16.993 41.5562 16.993C41.5244 12.021 41.5244 7.17483 41.5244 2.23427Z" fill="white"/>
<path d="M39.2372 12.1469C38.6971 15.0105 36.4414 17.0245 33.6138 17.2762C30.4049 17.5594 27.7044 16.6783 26.0841 13.7832C24.3685 10.7622 24.432 7.64686 26.4971 4.78322C28.3716 2.13986 31.1357 1.51049 34.1857 2.04546C36.8862 2.51749 38.4747 4.24826 39.3008 6.95455C38.3159 6.95455 37.3945 6.98602 36.5049 6.92308C36.3461 6.92308 36.0919 6.73427 35.9966 6.57693C35.0752 4.84616 33.5502 4.34266 31.7393 4.62588C29.8966 4.94056 28.6575 6.1049 28.2763 7.86714C28.0221 8.96853 28.0539 10.1958 28.2763 11.2972C28.6575 13.0594 29.833 14.2238 31.7075 14.507C33.582 14.7902 35.1705 14.2867 36.1237 12.493C36.219 12.3357 36.5049 12.1469 36.6955 12.1469C37.5216 12.1154 38.3476 12.1469 39.2372 12.1469Z" fill="white"/>
<path d="M50.166 31.1853C51.0556 31.1853 51.8499 31.1539 52.6759 31.2168C52.8665 31.2168 53.0889 31.5315 53.1525 31.7518C53.5973 33.1049 54.7728 33.8287 56.1072 33.3252C56.6155 33.1364 57.1238 32.5699 57.3462 32.0664C57.6322 31.4056 57.2827 30.7448 56.6473 30.3671C56.0754 30.0525 55.44 29.8007 54.8363 29.549C54.1691 29.2657 53.4702 29.0455 52.8348 28.6678C50.8967 27.5664 50.2296 26.1189 50.6426 23.9161C50.9603 22.1539 52.2947 20.9581 54.328 20.6119C57.1556 20.1399 59.3796 21.5245 59.8244 24.0734C59.8561 24.3252 59.8561 24.5455 59.8561 24.8601C58.903 24.8601 57.9816 24.8601 57.0285 24.8601C56.8697 23.8532 56.3296 23.1294 55.1858 23.0979C54.3915 23.0664 53.7561 23.3497 53.502 24.1678C53.2478 24.9546 53.502 25.6154 54.2009 26.0245C54.7092 26.3077 55.2811 26.528 55.853 26.7483C56.552 27.0315 57.2827 27.2832 57.9499 27.6294C59.7608 28.542 60.5551 29.9581 60.3009 31.9406C60.0785 33.7972 59.0619 35.0874 57.2191 35.6224C55.6941 36.0944 54.1374 36.0629 52.6759 35.3706C50.9603 34.6154 50.2613 33.1678 50.166 31.1853Z" fill="white"/>
<path d="M14.7095 2.20279C17.5689 2.20279 20.3012 2.20279 23.2241 2.20279C23.2241 2.92657 23.2876 3.65034 23.1923 4.34265C23.1605 4.53146 22.7158 4.78321 22.4616 4.78321C21.1272 4.81468 19.7928 4.84615 18.4585 4.78321C17.823 4.75174 17.5371 4.94055 17.5689 5.63286C17.6324 6.3881 17.5689 7.14335 17.5689 7.96153C19.1892 7.96153 20.746 7.96153 22.3663 7.96153C22.3663 8.90559 22.3663 9.75524 22.3663 10.6993C20.8095 10.6993 19.2845 10.6993 17.6642 10.6993C17.6642 11.8951 17.6642 13.028 17.6642 14.2552C19.4751 14.2552 21.2861 14.2552 23.1605 14.2552C23.1605 15.1993 23.1605 16.0489 23.1605 16.9615C20.3329 16.9615 17.5371 16.9615 14.6777 16.9615C14.7095 12.021 14.7095 7.17482 14.7095 2.20279Z" fill="white"/>
<path d="M42.6997 32.979C44.6378 32.979 46.4487 32.979 48.2914 32.979C48.2914 33.8916 48.2914 34.7412 48.2914 35.6224C45.5273 35.6224 42.7315 35.6224 39.9039 35.6224C39.8721 35.3392 39.8404 35.0559 39.8404 34.8042C39.8404 30.4615 39.8404 26.1189 39.8086 21.7762C39.8086 21.0524 39.9674 20.8007 40.7617 20.8007C42.9857 20.8636 45.2096 20.8322 47.4336 20.8322C47.7195 20.8322 47.9737 20.8636 48.3232 20.8951C48.3232 21.7447 48.3232 22.5629 48.3232 23.4755C46.4805 23.4755 44.6695 23.4755 42.6997 23.4755C42.6997 24.451 42.668 25.3322 42.7315 26.1818C42.7633 26.3706 43.1763 26.6538 43.3987 26.6538C44.5107 26.7168 45.6227 26.7168 46.7346 26.6538C47.3701 26.6224 47.656 26.8112 47.6242 27.5035C47.5607 29.7378 47.9102 29.2972 45.7815 29.3601C44.9872 29.3916 44.193 29.3916 43.3987 29.3601C42.8586 29.3287 42.668 29.5489 42.6997 30.0839C42.7315 30.9965 42.6997 31.9091 42.6997 32.979Z" fill="white"/>
<path d="M12.5177 2.23425C12.5177 3.0839 12.5177 3.87062 12.5177 4.81467C11.2469 4.81467 10.0078 4.87761 8.73698 4.7832C7.91094 4.75174 7.65677 5.00348 7.65677 5.82167C7.72031 9.15733 7.68854 12.493 7.68854 15.8287C7.68854 16.1748 7.68854 16.521 7.68854 16.9301C6.70365 16.9301 5.81406 16.9301 4.7974 16.9301C4.7974 12.9336 4.7974 8.93705 4.7974 4.81467C3.14531 4.81467 1.58854 4.81467 0 4.81467C0 3.90209 0 3.0839 0 2.23425C4.16198 2.23425 8.29219 2.23425 12.5177 2.23425Z" fill="white"/>
<path d="M4.7974 23.507C3.08177 23.507 1.55677 23.507 0 23.507C0 22.6259 0 21.8392 0 20.9266C4.13021 20.9266 8.26042 20.9266 12.4859 20.9266C12.4859 21.7448 12.4859 22.5629 12.4859 23.507C10.9292 23.507 9.3724 23.507 7.72031 23.507C7.72031 23.979 7.72031 24.3252 7.72031 24.7028C7.72031 28.0699 7.68854 31.4371 7.75208 34.8042C7.75208 35.5594 7.52969 35.8112 6.76719 35.7483C6.16354 35.6853 5.5599 35.7483 4.82917 35.7483C4.7974 31.6573 4.7974 27.6294 4.7974 23.507Z" fill="white"/>
<path d="M17.76 35.6539C16.8704 35.6539 16.0444 35.6539 15.123 35.6539C15.123 32.0979 15.123 28.6049 15.123 25.0175C15.9809 25.0175 16.8704 25.0175 17.76 25.0175C17.76 28.5734 17.76 32.0979 17.76 35.6539Z" fill="white"/>
<path d="M18.2997 21.8392C18.2679 22.8776 17.5372 23.5385 16.4252 23.5385C15.3768 23.5385 14.6143 22.7832 14.6143 21.7448C14.6143 20.7692 15.4403 19.951 16.457 19.951C17.5054 19.951 18.3314 20.8007 18.2997 21.8392Z" fill="white"/>
</svg>
