<svg width="130" height="12" viewBox="0 0 130 12" fill="none" xmlns="http://www.w3.org/2000/svg">
<g clip-path="url(#clip0_148_15831)">
<path d="M0 4.84694C0.081761 4.51552 0.149895 4.19792 0.245283 3.8665C0.926625 1.32565 3.29769 -0.234765 5.85954 0.165696C8.31237 0.552347 10.1792 2.89987 10.0021 5.35787C9.81132 8.05062 7.83543 10.0529 5.28721 10.1496C2.62998 10.2601 0.476939 8.43727 0.122641 5.78595C0.0953878 5.64786 0.0408805 5.52358 0 5.3993C0 5.21978 0 5.02646 0 4.84694ZM6.41824 4.22553C6.33648 3.5627 5.49161 2.65131 5.04193 2.62369C4.91929 2.60988 4.75576 2.6375 4.66038 2.70655C4.45597 2.84464 4.31971 3.06558 4.1153 3.20367C3.40671 3.67318 3.37945 4.626 4.08805 5.0955C4.38784 5.28883 4.76939 5.35787 5.08281 5.53739C5.30084 5.66167 5.49161 5.85499 5.62788 6.06213C5.66876 6.11736 5.46436 6.46259 5.36897 6.46259C5.09644 6.46259 4.8239 6.37973 4.56499 6.29688C4.25157 6.18641 3.95178 6.04832 3.52935 5.88261C3.5566 6.18641 3.52935 6.31069 3.57023 6.36593C4.00629 6.82162 4.40147 7.31875 4.90566 7.66397C5.34172 7.96777 5.39623 7.33255 5.65514 7.16685C5.7369 7.12542 5.85954 7.12542 5.90042 7.05637C6.13207 6.72496 6.52725 6.36593 6.51363 6.03451C6.51363 5.66167 6.20021 5.21978 5.91405 4.92979C5.72327 4.69504 5.32809 4.69504 5.04193 4.55695C4.83753 4.44648 4.66038 4.26696 4.51048 4.08744C4.48323 4.05983 4.66038 3.75603 4.74214 3.74222C4.97379 3.72841 5.20545 3.79746 5.42348 3.8665C5.75052 3.96316 6.05031 4.08744 6.41824 4.22553ZM9.0891 4.68123C9.02096 4.68123 8.96646 4.68123 8.89832 4.68123C8.78931 4.40505 8.70755 4.11506 8.5849 3.85269C8.44864 3.54889 8.29874 3.2451 8.14885 2.95511C8.12159 3.59032 8.84381 4.08745 8.33962 4.80551C8.44864 4.97122 8.59853 5.16455 8.77568 5.41311C8.89832 5.12312 8.99371 4.90217 9.0891 4.68123ZM4.55136 8.87916C4.18344 8.67203 3.88365 8.52013 3.59748 8.35442C3.62474 8.29918 3.65199 8.23014 3.67924 8.1749C3.43396 8.20252 3.17505 8.21633 2.84801 8.24395C3.05241 8.52013 3.20231 8.71345 3.33857 8.90678C3.3522 8.85154 3.36583 8.79631 3.37945 8.74107C3.74738 8.7825 4.1153 8.82392 4.55136 8.87916ZM3.40671 1.85039C2.37107 1.62945 2.42558 2.60988 1.94864 3.01034C2.4392 2.62369 2.91614 2.23704 3.40671 1.85039Z" fill="white"/>
<path d="M130 7.88491C129.223 10.0253 127.002 10.8538 124.931 9.79055C124.467 9.5558 124.345 9.16915 124.413 8.71345C124.467 8.31299 124.577 7.91253 124.795 7.52588C124.835 7.66397 124.876 7.81587 124.904 7.95396C125.149 9.30724 126.621 10.0667 127.847 9.45913C128.719 9.03106 128.801 8.00919 127.983 7.4016C127.247 6.86305 126.471 6.37973 125.721 5.88261C124.713 5.20597 124.372 4.37743 124.672 3.30033C124.931 2.3337 125.721 1.78134 126.893 1.72611C127.057 1.72611 127.206 1.7123 127.37 1.72611C127.983 1.76753 128.583 1.80896 129.278 1.85039C129.237 2.37513 129.21 2.88606 129.155 3.63175C128.733 2.38894 127.97 2.08514 126.975 2.27847C126.471 2.37513 126.007 2.66512 126.007 3.18986C126.007 3.54889 126.293 4.00459 126.58 4.23934C127.152 4.72266 127.806 5.12312 128.447 5.49596C129.237 5.93785 129.823 6.51782 130.014 7.44302C130 7.60873 130 7.74682 130 7.88491Z" fill="white"/>
<path d="M36.4383 1.80898C36.4383 1.14614 36.4383 0.607595 36.4383 0C36.8198 0 37.1469 0 37.5693 0C37.5693 0.53855 37.5693 1.0771 37.5693 1.65708C37.8964 1.65708 38.128 1.65708 38.4142 1.65708C38.4142 1.11853 38.4142 0.593786 38.4142 0.013809C38.7821 0.013809 39.1091 0.013809 39.5452 0.013809C39.5452 0.359033 39.5725 0.718067 39.5452 1.06329C39.5043 1.54661 39.6133 1.78136 40.1857 1.8504C41.085 1.96087 41.889 2.31991 42.1752 3.35558C42.4205 4.22555 42.0662 4.87457 41.4666 5.44074C42.7748 6.22785 43.0337 6.75259 42.802 8.10587C42.6385 9.0725 41.9844 9.6939 40.8534 9.95627C39.627 10.2325 39.627 10.2325 39.5861 11.5029C39.5861 11.6133 39.5725 11.7238 39.5588 11.9033C39.2045 11.9033 38.8639 11.9033 38.4551 11.9033C38.4551 11.3372 38.4551 10.7848 38.4551 10.191C38.1553 10.1772 37.91 10.1634 37.6102 10.1496C37.6102 10.7434 37.6102 11.3096 37.6102 11.9171C37.2423 11.9171 36.9425 11.9171 36.5473 11.9171C36.5473 11.351 36.5473 10.7848 36.5473 10.1358C35.7706 10.1358 35.0892 10.1358 34.3125 10.1358C34.3943 9.63867 34.4488 9.2382 34.5033 8.85155C35.7024 8.63061 35.7024 8.63061 35.7024 7.34638C35.7024 6.26928 35.7024 5.17837 35.7024 4.10127C35.7024 3.03797 35.6752 3.01036 34.6532 2.95512C34.5578 2.95512 34.476 2.94131 34.3261 2.91369C34.3261 2.55466 34.3261 2.20944 34.3261 1.78136C34.9938 1.80898 35.6616 1.80898 36.4383 1.80898ZM37.6647 6.29689C37.6647 7.19448 37.6647 7.94016 37.6647 8.82394C38.4005 8.74108 39.0819 8.69965 39.7496 8.56157C40.2674 8.45109 40.649 8.13349 40.6217 7.51208C40.6081 6.9183 40.2129 6.64212 39.736 6.54545C39.0819 6.40737 38.4142 6.37975 37.6647 6.29689ZM37.6647 5.31646C38.3188 5.20598 38.932 5.19217 39.4771 4.98504C39.7632 4.87457 40.0903 4.41887 40.0767 4.14269C40.0494 3.82509 39.7224 3.36939 39.4226 3.25892C38.8775 3.06559 38.2507 3.0794 37.6647 3.01036C37.6647 3.81128 37.6647 4.48792 37.6647 5.31646Z" fill="white"/>
<path d="M103.305 1.93327C102.76 2.11278 102.624 2.52705 102.637 3.0656C102.651 4.95743 102.624 6.83545 102.651 8.72728C102.651 9.01727 102.787 9.34869 102.978 9.56963C103.387 10.0529 103.809 10.5777 104.341 10.8953C104.995 11.2819 105.758 11.4753 106.412 11.7238C105.853 12.0138 105.104 12.0967 104.436 11.7514C103.714 11.3924 103.005 10.9367 102.446 10.3706C100.729 8.63062 99.0942 6.80783 97.4317 5.02648C97.3091 4.9022 97.1728 4.77791 96.9412 4.55697C96.9412 6.20024 96.9139 7.70542 96.9684 9.2106C96.982 9.47297 97.35 9.72153 97.5407 9.95628C96.6277 9.95628 95.6057 9.95628 94.5973 9.95628C95.1969 9.76295 95.2923 9.32107 95.2923 8.7549C95.265 6.91831 95.3059 5.0679 95.265 3.23131C95.265 2.9137 95.1015 2.51324 94.8835 2.27849C93.6707 0.966637 93.1256 0.718075 91.5449 0.690458C92.2263 0.207143 92.9485 0.0966716 93.5753 0.414278C94.3657 0.814738 95.1697 1.29805 95.7965 1.93327C97.459 3.59034 99.0261 5.35789 100.634 7.08401C100.702 7.16687 100.729 7.29115 100.77 7.40162C100.838 7.36019 100.907 7.31877 100.975 7.27734C100.975 5.74454 101.002 4.21175 100.947 2.69276C100.934 2.4442 100.648 2.19564 100.484 1.94707C101.356 1.93327 102.337 1.93327 103.305 1.93327Z" fill="white"/>
<path d="M87.6346 1.94705C87.0078 2.07133 86.8579 2.4856 86.8715 3.06558C86.8851 5.38548 86.8715 7.70539 86.8715 10.1634C84.991 8.35441 83.1514 6.60067 81.1482 4.66742C81.1482 5.37167 81.1482 5.85499 81.1482 6.3383C81.1482 7.19446 81.1482 8.03681 81.1482 8.89296C81.1482 9.59722 81.2436 9.69388 81.925 9.95625C80.8621 9.95625 79.7855 9.95625 78.7227 9.95625C79.3495 9.83197 79.4858 9.4177 79.4721 8.83773C79.4585 6.4902 79.4585 4.14268 79.4585 1.69849C81.339 3.50746 83.1923 5.30263 85.1681 7.20827C85.1681 5.59262 85.1954 4.12887 85.1409 2.67892C85.1273 2.41655 84.7457 2.16799 84.5686 1.94705C85.5088 1.94705 86.5717 1.94705 87.6346 1.94705Z" fill="white"/>
<path d="M120.529 6.73876C120.91 5.34405 121.278 4.14267 121.578 2.91367C121.646 2.62369 121.483 2.27846 121.415 1.93324C121.973 1.93324 122.696 1.93324 123.431 1.93324C122.736 2.11275 122.478 2.60988 122.287 3.24509C121.742 5.09549 121.156 6.93209 120.611 8.76868C120.474 9.21057 120.393 9.65245 120.256 10.2877C119.411 8.39584 118.621 6.62829 117.735 4.68122C116.945 6.58686 116.236 8.31298 115.514 10.0805C115.46 9.95625 115.364 9.74912 115.283 9.54198C114.506 7.38778 113.715 5.23358 112.939 3.07938C112.748 2.52702 112.475 2.07133 111.835 1.94705C112.911 1.94705 113.988 1.94705 114.996 1.94705C114.915 2.19561 114.683 2.51321 114.751 2.74797C115.133 4.00458 115.582 5.24739 116.087 6.69733C116.822 4.91598 117.476 3.32794 118.199 1.58801C118.989 3.32794 119.725 4.94359 120.529 6.73876Z" fill="white"/>
<path d="M23.6155 9.97009C22.3891 9.97009 21.299 9.97009 20.2088 9.97009C20.8356 9.79058 20.9719 9.32107 20.9719 8.7549C20.9583 6.86307 20.9583 4.98505 20.9719 3.09322C20.9719 2.52706 20.8356 2.08517 20.1543 2.01612C20.1679 1.93327 20.1952 1.86423 20.2088 1.78137C21.8849 1.87803 23.5746 1.86423 25.2371 2.08517C26.2455 2.22326 26.7088 2.99656 26.7361 3.94938C26.7633 5.09553 26.2864 5.79978 25.1008 6.26929C26.4771 7.26354 26.7224 9.26584 28.4394 9.90105C26.6134 10.3706 25.2099 9.74915 24.3922 8.10588C24.2015 7.71923 24.0516 7.30496 23.8472 6.91831C23.6564 6.57309 23.3975 6.25548 23.1795 5.95168C24.5421 5.71693 25.0736 4.97125 24.8147 3.56273C24.6375 2.5961 23.9562 2.25088 22.6889 2.51325C22.6889 3.28655 22.6889 4.08747 22.6889 4.88839C22.6889 6.15882 22.6889 7.41543 22.6889 8.68586C22.6889 9.55582 22.757 9.63868 23.6155 9.97009Z" fill="white"/>
<path d="M68.9927 10.2325C68.3795 10.1082 67.739 10.0667 67.1395 9.87342C65.2181 9.25201 64.2642 7.59494 64.4686 5.3855C64.6321 3.5351 65.9812 2.11277 67.8889 1.82278C69.4015 1.60184 70.9005 1.65708 72.1677 2.65132C73.6667 3.82509 73.8847 5.45455 73.5032 7.19448C73.1625 8.75489 71.8135 9.85961 70.151 10.0806C69.7694 10.1358 69.3879 10.1496 69.0063 10.1772C68.9927 10.2048 68.9927 10.2186 68.9927 10.2325ZM66.1856 5.93786C66.4309 6.7664 66.5399 7.63636 66.9214 8.35443C67.8208 10.1082 70.2464 10.122 71.1866 8.39586C72.0451 6.79402 72.0315 5.10932 71.1866 3.52129C70.26 1.78136 67.8344 1.79517 66.9214 3.54891C66.5535 4.25316 66.4445 5.09551 66.1856 5.93786Z" fill="white"/>
<path d="M17.0879 1.91943C17.7965 1.91943 18.5187 1.91943 19.2273 1.91943C18.6004 2.05752 18.5323 2.4856 18.5459 3.03796C18.5732 4.34981 18.5596 5.66167 18.5459 6.97352C18.5323 8.98963 17.4149 10.1358 15.4254 10.1772C15.0438 10.191 14.6487 10.1634 14.2671 10.122C12.5365 9.90102 11.5417 8.7963 11.5145 7.02875C11.5009 5.67548 11.5009 4.30839 11.5145 2.95511C11.5145 2.47179 11.4872 2.02991 10.874 1.91943C11.8824 1.91943 12.8908 1.91943 13.8992 1.91943C13.286 2.08514 13.2315 2.55465 13.2315 3.0932C13.2451 4.30839 13.2042 5.53739 13.2451 6.75258C13.2587 7.29113 13.3541 7.85729 13.5313 8.36823C13.8447 9.22438 14.635 9.68008 15.5208 9.65246C16.461 9.62484 17.2514 9.05867 17.5239 8.1749C17.6193 7.85729 17.6874 7.49826 17.6874 7.16684C17.7011 5.74452 17.6874 4.30839 17.7011 2.88606C17.7283 2.37513 17.5512 2.08514 17.0879 1.91943Z" fill="white"/>
<path d="M107.42 9.41771C109.028 9.61103 110.473 9.54199 111.167 7.7192C111.031 8.38203 110.909 9.04486 110.731 9.7077C110.691 9.83198 110.432 9.97006 110.268 9.97006C108.524 9.98387 106.78 9.98387 104.817 9.98387C105.54 9.68008 105.621 9.22438 105.608 8.68583C105.58 6.84924 105.58 5.01264 105.608 3.16224C105.621 2.56845 105.526 2.11276 104.872 1.8642C106.712 1.8642 108.565 1.8642 110.459 1.8642C110.459 2.36132 110.459 2.99653 110.459 3.78364C110.295 3.01034 110.023 2.47179 109.301 2.44417C108.687 2.41656 108.074 2.44417 107.42 2.44417C107.42 3.54889 107.42 4.62599 107.42 5.68928C108.987 5.92404 109.355 5.79975 109.941 4.77789C109.941 5.28882 109.941 5.66166 109.941 6.03451C109.941 6.39354 109.941 6.75257 109.941 7.36017C109.41 5.8688 108.347 6.35211 107.42 6.25545C107.42 7.33255 107.42 8.35441 107.42 9.41771Z" fill="white"/>
<path d="M63.3107 6.65595C63.9648 9.11395 62.8474 9.88725 60.9124 10.122C59.4815 10.2877 58.078 10.0806 56.9469 9.07252C55.5843 7.85733 55.3799 6.2693 55.8159 4.59841C56.2656 2.92752 57.5056 2.09899 59.1136 1.82281C60.3128 1.62948 61.5119 1.69853 62.6702 2.1128C63.0109 2.23708 63.188 2.41659 63.1608 2.81705C63.1199 3.27275 63.1472 3.74225 63.0518 4.22557C62.9973 4.1151 62.9428 4.00462 62.8883 3.88034C62.4249 2.78943 61.6073 2.25088 60.449 2.23708C59.2908 2.22327 58.4187 2.74801 57.9417 3.8113C57.3013 5.24743 57.3149 6.72499 57.9962 8.14732C58.5004 9.22442 59.4679 9.73535 60.5989 9.6525C61.7845 9.55583 62.6021 8.97586 62.9564 7.80209C63.079 7.45687 63.1744 7.11164 63.3107 6.65595Z" fill="white"/>
<path d="M52.3269 2.40278C52.3269 4.66745 52.3269 6.82165 52.3269 8.97585C52.3269 9.48678 52.5722 9.79058 53.0628 9.97009C51.9999 9.97009 50.937 9.97009 49.8605 9.97009C50.4601 9.80439 50.5963 9.37631 50.5827 8.79633C50.5554 6.89069 50.5691 4.98505 50.5691 3.06561C50.5691 2.85847 50.5554 2.66515 50.5418 2.47182C48.8793 2.15421 48.2661 2.40278 47.8301 3.60416C47.8301 2.92752 47.8301 2.34754 47.8301 1.78137C50.242 1.78137 52.6267 1.78137 55.0659 1.78137C55.0659 2.2785 55.0659 2.83085 55.0659 3.21751C54.7389 2.96894 54.3846 2.55467 53.9485 2.41659C53.4716 2.2785 52.9265 2.40278 52.3269 2.40278Z" fill="white"/>
<path d="M77.6457 1.91943C77.1006 2.09895 76.9098 2.44417 76.9234 2.98272C76.9371 4.9436 76.9371 6.89066 76.9234 8.85154C76.9234 9.4039 77.0597 9.80436 77.6729 9.95626C76.61 9.95626 75.5335 9.95626 74.4706 9.95626C75.152 9.74912 75.2065 9.19676 75.2065 8.58917C75.1928 6.794 75.1928 4.99884 75.2065 3.20367C75.2065 2.60988 75.1111 2.11276 74.4434 1.91943C75.5063 1.91943 76.5828 1.91943 77.6457 1.91943Z" fill="white"/>
<path d="M43.8652 9.97005C44.4239 9.80434 44.601 9.4315 44.5874 8.86533C44.5738 6.95969 44.5602 5.04025 44.5874 3.13461C44.601 2.55463 44.4784 2.11274 43.8516 1.93323C44.9145 1.93323 45.991 1.93323 47.0539 1.93323C46.4679 2.12655 46.318 2.54082 46.318 3.10699C46.3453 5.01263 46.3316 6.93208 46.318 8.83772C46.318 9.39007 46.4815 9.77673 47.0539 9.97005C45.991 9.97005 44.9281 9.97005 43.8652 9.97005Z" fill="white"/>
<path d="M6.41828 4.22553C6.05035 4.08744 5.75056 3.96316 5.45077 3.8665C5.23274 3.79745 4.98746 3.72841 4.76943 3.74221C4.67404 3.74221 4.51052 4.04601 4.53777 4.08744C4.68767 4.26696 4.86482 4.44647 5.06922 4.55694C5.34176 4.70884 5.75056 4.69503 5.94134 4.90217C6.2275 5.20597 6.54092 5.63404 6.54092 6.00689C6.54092 6.35211 6.15937 6.69734 5.92771 7.02875C5.88683 7.0978 5.76419 7.08399 5.68243 7.13922C5.42352 7.29112 5.35538 7.92633 4.93295 7.63635C4.42876 7.29112 4.03358 6.78019 3.59752 6.3383C3.55664 6.28307 3.58389 6.15879 3.55664 5.85499C3.96545 6.0207 4.26524 6.17259 4.59228 6.26926C4.85119 6.35211 5.13735 6.44877 5.39626 6.43496C5.49165 6.43496 5.69605 6.08974 5.65517 6.0345C5.5189 5.82737 5.32813 5.63404 5.1101 5.50976C4.79668 5.33025 4.41513 5.2612 4.11534 5.06788C3.40675 4.61218 3.434 3.64555 4.14259 3.17605C4.347 3.03796 4.49689 2.81701 4.68767 2.67892C4.78306 2.60988 4.94658 2.59607 5.06922 2.59607C5.49165 2.65131 6.33651 3.5627 6.41828 4.22553Z" fill="#1F1F1F"/>
<path d="M9.08944 4.68122C8.99406 4.90216 8.89867 5.1231 8.77603 5.39928C8.59888 5.15072 8.46261 4.95739 8.33997 4.79169C8.84416 4.05981 8.12194 3.5765 8.14919 2.94128C8.29909 3.24508 8.44898 3.53507 8.58525 3.83887C8.70789 4.11505 8.78965 4.39123 8.89867 4.66741C8.9668 4.68122 9.02131 4.68122 9.08944 4.68122Z" fill="#1F1F1F"/>
<path d="M4.55101 8.87918C4.11495 8.82395 3.74703 8.78252 3.3791 8.74109C3.36548 8.79633 3.35185 8.85157 3.33822 8.9068C3.18833 8.71348 3.05206 8.52015 2.84766 8.24397C3.1747 8.21635 3.41998 8.18874 3.67889 8.17493C3.65164 8.23016 3.62439 8.29921 3.59713 8.35444C3.8833 8.50634 4.18309 8.67205 4.55101 8.87918Z" fill="#1F1F1F"/>
<path d="M3.40631 1.85043C2.91575 2.23708 2.43881 2.62374 1.94824 3.01039C2.42518 2.62374 2.37067 1.6433 3.40631 1.85043Z" fill="#1F1F1F"/>
</g>
<defs>
<clipPath id="clip0_148_15831">
<rect width="130" height="12" fill="white"/>
</clipPath>
</defs>
</svg>
