<svg width="84" height="32" viewBox="0 0 84 32" fill="none" xmlns="http://www.w3.org/2000/svg">
<path d="M75.0772 25.2308L70.7695 17.5385H75.0772L76.9234 21.2308L79.3849 17.5385H84.0003L78.7695 25.2308V30.7692H75.0772V25.2308Z" fill="#CB3919"/>
<path d="M0 30.7692V17.2308L7.38462 24.6154L14.7692 17.2308V30.7692H10.4615V27.0769L7.38462 30.7692L4.30769 27.0769V30.7692H0Z" fill="#CB3919"/>
<path fill-rule="evenodd" clip-rule="evenodd" d="M22.7694 31.3846C26.8478 31.3846 30.154 28.0784 30.154 24C30.154 19.9216 26.8478 16.6154 22.7694 16.6154C18.691 16.6154 15.3848 19.9216 15.3848 24C15.3848 28.0784 18.691 31.3846 22.7694 31.3846ZM26.7691 26.4615C27.9586 26.4615 28.9229 25.4972 28.9229 24.3077C28.9229 23.1181 27.9586 22.1538 26.7691 22.1538C25.5795 22.1538 24.6152 23.1181 24.6152 24.3077C24.6152 25.4972 25.5795 26.4615 26.7691 26.4615Z" fill="#CB3919"/>
<path d="M31.3848 30.7692V16.6154L40.6155 24V17.2307H44.9232V32L35.6925 25.2307V30.7692H31.3848Z" fill="#CB3919"/>
<path d="M46.7695 31.3846V17.2308H51.0772V21.8462L56.308 16.9231L58.7695 20L54.7695 24L58.7695 28L56.0003 31.3846L51.0772 26.4616V31.3846H46.7695Z" fill="#CB3919"/>
<path d="M59.6924 30.7692V17.2308H69.5385V21.5385H64.0001V22.7692H69.5385V25.8462H64.0001V27.0769H69.5385V30.7692H59.6924Z" fill="#CB3919"/>
<path fill-rule="evenodd" clip-rule="evenodd" d="M6.76923 0V14.1538H10.4615V8.30769L19.6923 15.3846V0.615385H16V7.38461L6.76923 0ZM0 0.615385V14.1538H4.30769V0.615385H0ZM27.6923 0.615385V4.30769C27.8974 4.51282 28.4308 5.16923 28.9231 6.15385C29.5385 7.38461 29.8462 9.53846 28.9231 11.6923C28 13.8462 25.8462 14.7692 24 14.7692C22.5231 14.7692 20.9231 13.5385 20.3077 12.9231L23.0769 9.84615C23.282 10.0513 23.8769 10.4615 24.6154 10.4615C25.5385 10.4615 25.8462 9.23077 25.8462 8.61538C25.8462 8 24.9231 6.76923 24 6.76923C23.0769 6.76923 20.9231 5.84615 20.9231 3.69231C20.9231 1.96923 22.9744 0.923077 24 0.615385H27.6923ZM35.0769 0.615385H30.7692V14.1538H35.0769V0.615385ZM37.5385 0.615385H43.3846C43.5697 0.670911 43.7798 0.716417 44.0105 0.766368C45.0581 0.993219 46.529 1.31176 48 3.07692C49.5385 4.92308 49.5385 8 48.6154 10.4615C47.8769 12.4308 44.8205 13.7436 43.3846 14.1538H37.5385V0.615385ZM59.6923 0.615385H50.4615V14.1538H59.6923V9.84615H54.1538V9.23077H59.6923V5.53846H54.1538V4.92308H59.6923V0.615385ZM62.1538 0.615385H68.6154C70.0923 0.615385 71.282 1.23077 71.6923 1.53846C72.6154 2.25641 74.4615 4.18462 74.4615 6.15385C74.4615 8.12308 72.6154 9.84615 71.6923 10.4615H73.2308C73.9692 10.4615 74.9744 10.0513 75.3846 9.84615L72.3077 14.7692C71.4872 14.6667 69.6 14.3385 68.6154 13.8462C67.6308 13.3538 66.359 12.6154 65.8462 12.3077V14.1538H62.1538V0.615385ZM48 7.38462C48 8.40422 47.1735 9.23077 46.1538 9.23077C45.1342 9.23077 44.3077 8.40422 44.3077 7.38462C44.3077 6.36501 45.1342 5.53846 46.1538 5.53846C47.1735 5.53846 48 6.36501 48 7.38462ZM71.3843 9.23077C72.4039 9.23077 73.2305 8.40422 73.2305 7.38462C73.2305 6.36501 72.4039 5.53846 71.3843 5.53846C70.3647 5.53846 69.5382 6.36501 69.5382 7.38462C69.5382 8.40422 70.3647 9.23077 71.3843 9.23077Z" fill="white"/>
</svg>
