<svg width="130" height="25" viewBox="0 0 130 25" fill="none" xmlns="http://www.w3.org/2000/svg">
<path d="M12.3187 -0.000205356C19.1157 -0.0172122 24.6541 5.56102 24.6708 12.4318C24.6876 19.3535 19.1493 24.9998 12.3354 24.9998C5.55516 24.9998 0.0168214 19.4216 3.85074e-05 12.5338C-0.0167443 5.59503 5.45447 0.0168014 12.3187 -0.000205356ZM5.4209 9.42156C5.45447 11.3944 5.48803 13.3841 5.50481 15.3569C5.50481 15.7311 5.58873 15.9862 5.97473 16.1392C9.39844 17.5338 12.8054 18.9284 16.2123 20.3569C16.6654 20.544 16.7997 20.442 16.7997 19.9488C16.7661 18.1461 16.7493 16.3263 16.7493 14.5236C16.7493 14.0644 16.5647 13.8263 16.1451 13.6392C15.2557 13.2651 14.299 12.993 13.4767 12.4658C14.3158 12.0916 15.155 11.7005 16.0109 11.3773C16.5144 11.1903 16.6822 10.9182 16.6822 10.3739C16.6486 8.70728 16.6654 7.04061 16.6486 5.37394C16.6486 4.38755 16.6318 4.37054 15.7591 4.7617C13.913 5.56102 12.0501 6.32632 10.2208 7.15966C8.72712 7.83993 7.16632 8.35013 5.73977 9.18347C5.68943 9.20047 5.62229 9.21748 5.57195 9.23449C5.45447 9.2685 5.40412 9.31952 5.4209 9.42156Z" fill="#FAC846"/>
<path d="M66.9804 13.5035C67.8699 11.3436 68.6755 9.40486 69.4475 7.44908C69.716 6.76881 70.0181 6.15656 70.874 6.36065C71.6292 6.54772 71.6628 7.19398 71.6628 7.84024C71.646 10.1872 71.646 12.5511 71.6628 14.8981C71.6628 15.5783 71.4782 16.0885 70.7398 16.1736C70.1356 16.2416 69.7831 15.7484 69.7831 14.8811C69.7831 13.6736 69.7831 12.4491 69.7831 11.2246C69.3971 11.2416 69.3971 11.5137 69.33 11.7008C68.8433 12.8402 68.3734 13.9797 67.9035 15.1362C67.7188 15.5783 67.5007 15.9525 66.9636 15.9355C66.4601 15.9185 66.2587 15.5783 66.0909 15.1532C65.6545 14.0477 65.2014 12.9593 64.7315 11.8709C64.6308 11.6328 64.614 11.3266 64.3119 11.1906C64.0434 11.4287 64.1777 11.7178 64.1609 11.9729C64.1441 12.9593 64.1441 13.9627 64.1609 14.9491C64.1777 15.6634 63.9259 16.1566 63.1875 16.1396C62.5162 16.1226 62.2476 15.6464 62.2644 14.9661C62.2812 14.1498 62.2644 13.3164 62.2644 12.5001C62.2644 10.8504 62.2644 9.21779 62.2644 7.56813C62.2644 6.92187 62.449 6.44568 63.1203 6.30963C63.7917 6.19058 64.1609 6.56473 64.3958 7.14296C65.235 9.21779 66.0741 11.2416 66.9804 13.5035Z" fill="#F8F8F9"/>
<path d="M109.776 15.9695C109.223 15.9695 108.652 15.9865 108.098 15.9695C107.427 15.9525 107.058 15.6294 107.058 14.9151C107.058 12.4491 107.058 9.98313 107.058 7.53415C107.058 6.88789 107.41 6.54775 108.048 6.53075C109.172 6.51374 110.28 6.49673 111.404 6.53075C112.999 6.58177 114.022 8.12939 113.469 9.64299C113.301 10.0852 113.402 10.3063 113.704 10.6294C114.593 11.5648 114.828 12.7042 114.358 13.9287C113.905 15.1022 113.016 15.7995 111.774 15.9185C111.102 15.9865 110.431 15.9355 109.76 15.9355C109.776 15.9525 109.776 15.9525 109.776 15.9695ZM108.937 12.7382C108.937 14.3709 108.937 14.3709 110.532 14.3709C110.817 14.3709 111.085 14.3879 111.371 14.3539C112.176 14.2858 112.781 13.6736 112.814 12.8743C112.848 12.075 112.327 11.3777 111.539 11.2246C111.186 11.1566 110.817 11.1736 110.448 11.1736C108.937 11.1736 108.937 11.1906 108.937 12.7382ZM109.995 9.69401C110.431 9.69401 110.767 9.71102 111.102 9.69401C111.589 9.64299 111.874 9.33687 111.874 8.86068C111.858 8.36748 111.539 8.11238 111.052 8.09537C110.632 8.07836 110.213 8.12939 109.81 8.07837C109.139 7.99333 108.954 8.19741 108.921 8.92871C108.853 10.0512 109.609 9.62598 109.995 9.69401Z" fill="#F8F8F9"/>
<path d="M128.205 14.8133C126.543 15.8507 125.335 15.7827 124.328 14.6262C123.288 13.4188 123.22 11.412 124.194 10.1535C125.167 8.89496 126.577 8.69087 127.869 9.67727C128.171 9.91536 128.306 10.0514 128.44 9.54121C128.557 9.15006 128.927 9.014 129.329 9.08203C129.732 9.16706 129.967 9.43917 129.967 9.86434C129.967 11.9562 130.051 14.065 129.883 16.1399C129.699 18.3507 126.728 19.5242 124.999 18.1807C124.63 17.8916 124.513 17.5344 124.714 17.1433C124.916 16.7521 125.285 16.6501 125.721 16.8201C127.567 17.5174 128.306 16.9392 128.205 14.8133ZM128.239 12.4324C128.255 11.3439 127.567 10.4426 126.711 10.4596C125.889 10.4766 125.218 11.3269 125.218 12.3814C125.201 13.4698 125.889 14.3711 126.745 14.3541C127.567 14.3371 128.222 13.4868 128.239 12.4324Z" fill="#F8F8F9"/>
<path d="M32.0215 11.5136C32.0048 7.6701 35.4452 5.27214 38.6004 6.70071C38.9193 6.85377 39.2382 7.05785 39.5235 7.27894C39.9095 7.58506 40.1109 7.99323 39.7584 8.45241C39.406 8.89459 38.9864 8.86057 38.5836 8.53744C38.013 8.07826 37.3753 7.84016 36.6536 7.89119C35.4285 7.99323 34.5725 8.65649 34.1026 9.79595C33.5488 11.1735 33.7502 12.483 34.7068 13.6055C35.4285 14.4558 36.3683 14.83 37.4928 14.5408C37.9123 14.4388 38.2648 14.2347 38.5669 13.9286C38.9864 13.4864 39.4731 13.2653 39.9431 13.7755C40.4633 14.3368 40.0941 14.813 39.641 15.2041C37.2746 17.2959 33.297 16.0545 32.2901 12.9082C32.0887 12.381 32.0215 11.8538 32.0215 11.5136Z" fill="#F8F8F9"/>
<path d="M77.8221 11.9049C77.8221 10.9355 77.4864 10.5273 76.664 10.4423C76.0766 10.3742 75.4892 10.4763 74.9354 10.6974C74.4823 10.8844 74.0795 10.8164 73.8949 10.3232C73.727 9.88105 73.962 9.54091 74.3816 9.38785C75.8081 8.86064 77.2347 8.80962 78.5773 9.62594C79.3829 10.1191 79.685 10.9355 79.7017 11.8708C79.7185 12.8913 79.7017 13.9117 79.7017 14.9321C79.7017 15.4083 79.7689 15.9185 79.1647 16.1395C78.7116 16.2926 78.443 16.1395 77.9731 15.4593C76.9829 16.0885 75.9424 16.3606 74.7844 16.0885C73.7774 15.8504 73.2068 15.2892 73.0725 14.3708C72.9382 13.4525 73.3578 12.5681 74.197 12.0749C75.1032 11.5307 76.2445 11.4627 77.8221 11.9049ZM76.3619 12.8913C76.127 12.9253 75.9424 12.9423 75.741 12.9763C75.1871 13.0783 74.8179 13.3674 74.8515 13.9967C74.8851 14.6259 75.3382 14.762 75.8249 14.83C76.4291 14.9151 76.9661 14.711 77.5032 14.4729C77.9899 14.2518 77.8892 13.8606 77.8892 13.4695C77.906 13.0443 77.5367 13.0783 77.3018 13.0273C76.9997 12.9423 76.664 12.9253 76.3619 12.8913Z" fill="#F8F8F9"/>
<path d="M122.045 13.4526C122.045 14.0818 122.029 14.6941 122.045 15.3233C122.045 15.6975 121.945 15.9866 121.576 16.1226C121.19 16.2587 120.787 16.1907 120.619 15.8335C120.418 15.4083 120.25 15.5104 119.931 15.6805C119.075 16.1566 118.152 16.3097 117.178 16.0716C116.188 15.8505 115.601 15.2893 115.467 14.456C115.316 13.4186 115.685 12.5852 116.541 12.075C117.481 11.5138 118.504 11.5138 119.545 11.7179C119.763 11.7519 120.065 12.007 120.199 11.7179C120.317 11.4798 120.166 11.1737 119.981 10.9356C119.545 10.3573 118.907 10.3913 118.303 10.4594C117.9 10.5104 117.497 10.6805 117.095 10.7655C116.742 10.8335 116.423 10.7485 116.272 10.3573C116.121 9.98318 116.239 9.64304 116.557 9.48998C117.883 8.84372 119.276 8.82672 120.602 9.43896C121.727 9.96617 122.096 10.9696 122.029 12.1771C122.029 12.6022 122.045 13.0274 122.045 13.4526ZM118.42 14.8471C119.025 14.8471 119.478 14.66 119.931 14.439C120.367 14.2349 120.3 13.8777 120.3 13.5036C120.317 13.0954 119.981 13.0614 119.729 13.0274C119.293 12.9594 118.84 12.9083 118.404 12.9254C117.766 12.9424 117.195 13.1975 117.212 13.9458C117.246 14.7281 117.883 14.8131 118.42 14.8471Z" fill="#F8F8F9"/>
<path d="M88.3118 11.7688C89.0335 11.0035 89.7719 10.2382 90.4936 9.45586C90.8292 9.09872 91.2152 8.82661 91.6348 9.28579C92.0208 9.71096 91.7355 10.0511 91.4334 10.3742C90.9803 10.8844 90.1076 11.2756 90.1243 11.9048C90.1411 12.4831 90.7789 13.0443 91.1481 13.6055C91.4334 14.0477 91.7355 14.5069 92.0208 14.9491C92.2725 15.3402 92.239 15.7314 91.8698 16.0035C91.467 16.3096 91.0642 16.1906 90.7957 15.7654C90.309 15.0341 89.8558 14.3028 89.3691 13.5715C89.2181 13.3504 89.1006 12.8912 88.8656 13.0103C88.5132 13.1633 88.1272 13.4525 88.0936 13.9457C88.0768 14.3708 88.0936 14.796 88.0768 15.2212C88.0433 15.7824 87.758 16.1565 87.2041 16.1565C86.6167 16.1565 86.2979 15.7654 86.2979 15.1531C86.2979 12.5511 86.2979 9.94906 86.2979 7.33001C86.2979 6.73477 86.5328 6.32661 87.1538 6.3096C87.8419 6.29259 88.0768 6.75178 88.0768 7.36402C88.0936 8.77559 88.0768 10.1872 88.0768 11.5987C88.144 11.6667 88.2279 11.7178 88.3118 11.7688Z" fill="#F8F8F9"/>
<path d="M97.0389 13.3675C96.4515 13.3675 95.8641 13.3845 95.2767 13.3675C94.7732 13.3505 94.7732 13.5886 94.9914 13.9287C95.411 14.592 96.0152 14.7451 96.7368 14.609C96.955 14.558 97.1564 14.4559 97.341 14.3369C97.7606 14.0818 98.1634 14.0478 98.4487 14.49C98.7508 14.9661 98.5158 15.3403 98.113 15.6464C97.1396 16.3777 95.4613 16.3607 94.3872 15.6124C92.9103 14.575 92.5411 12.16 93.632 10.4934C94.6054 8.99675 96.569 8.58859 98.0627 9.609C99.0528 10.2723 99.6235 11.2076 99.5731 12.4661C99.5563 13.0784 99.271 13.4015 98.6333 13.3845C98.0962 13.3675 97.576 13.3675 97.0389 13.3675ZM96.2501 12.2791C96.6361 12.2791 97.0389 12.2621 97.4249 12.2791C97.9116 12.3131 97.9452 12.058 97.8109 11.7178C97.5592 11.0546 97.106 10.6464 96.3844 10.5784C95.6963 10.5274 95.2096 10.8505 94.9075 11.4627C94.639 12.007 94.6557 12.3811 95.4277 12.2791C95.6963 12.2451 95.9816 12.2791 96.2501 12.2791Z" fill="#F8F8F9"/>
<path d="M44.8771 9.06464C46.8071 9.08164 48.3512 10.6633 48.3344 12.6701C48.3176 14.6769 46.7736 16.2245 44.8268 16.2075C42.88 16.1905 41.3527 14.6089 41.3863 12.6021C41.4031 10.5782 42.9135 9.06464 44.8771 9.06464ZM46.5386 12.6361C46.5218 11.4626 45.8337 10.6123 44.8771 10.5952C43.9037 10.5782 43.1485 11.4796 43.1485 12.6701C43.1485 13.8435 43.8366 14.6769 44.8268 14.6939C45.8337 14.7109 46.5386 13.8606 46.5386 12.6361Z" fill="#F8F8F9"/>
<path d="M54.8971 10.1871C56.2901 8.82658 57.7502 8.72454 58.7236 9.84699C59.0929 10.2552 59.311 10.7483 59.311 11.3096C59.3278 12.6191 59.3278 13.9116 59.3278 15.2211C59.3278 15.7994 59.0425 16.1735 58.4887 16.1735C57.9181 16.1735 57.6495 15.7654 57.6495 15.2041C57.6327 14.1327 57.6663 13.0443 57.6327 11.9728C57.616 11.0034 57.2971 10.6293 56.5251 10.5953C55.6524 10.5613 54.9643 11.1055 54.9307 11.9728C54.8804 12.9932 54.8971 14.0137 54.9307 15.0341C54.9475 15.6973 54.7293 16.1905 54.0244 16.1735C53.3699 16.1565 53.1685 15.6633 53.1685 15.0511C53.1853 13.5205 53.1685 11.9898 53.1685 10.4592C53.1685 9.89801 53.051 9.25175 53.823 9.09869C54.5783 8.94563 54.7461 9.54086 54.8971 10.1871Z" fill="#F8F8F9"/>
<path d="M101.15 12.8233C101.15 12.4322 101.15 12.024 101.15 11.6328C101.167 11.1226 101.268 10.6294 100.496 10.4594C100.026 10.3573 100.026 9.541 100.513 9.42195C101.201 9.25188 101.184 8.82671 101.15 8.31651C101.134 8.12943 101.15 7.90834 101.184 7.72127C101.285 7.27909 101.62 7.058 102.04 7.07501C102.476 7.09202 102.778 7.33011 102.862 7.77229C102.913 7.99338 102.913 8.23147 102.879 8.45256C102.795 9.08181 102.963 9.40494 103.668 9.3029C104.155 9.23487 104.624 9.35392 104.641 9.94916C104.641 10.5444 104.171 10.6634 103.685 10.5954C102.997 10.4934 102.845 10.7825 102.879 11.4287C102.929 12.2451 102.913 13.0614 102.879 13.8947C102.862 14.4049 102.997 14.7281 103.567 14.6771C104.104 14.643 104.49 14.8811 104.473 15.4083C104.473 16.0036 104.037 16.2077 103.483 16.1736C103.097 16.1566 102.694 16.1566 102.325 16.0886C101.604 15.9696 101.184 15.5104 101.15 14.7621C101.117 14.1158 101.15 13.4696 101.15 12.8063C101.167 12.8233 101.167 12.8233 101.15 12.8233Z" fill="#F8F8F9"/>
<path d="M83.0086 10C83.3946 9.65991 83.6463 9.3878 83.9484 9.20073C84.4351 8.91161 84.8882 8.99665 85.14 9.54087C85.3917 10.0681 85.14 10.4592 84.6365 10.5953C83.361 10.9354 83.0086 11.8028 83.0757 13.0273C83.1093 13.7245 83.0925 14.4388 83.0757 15.1531C83.0757 15.7483 82.7904 16.1565 82.1862 16.1735C81.582 16.1905 81.2799 15.7824 81.2799 15.1871C81.2631 13.4694 81.2799 11.7347 81.2799 10.0171C81.2799 9.54087 81.4813 9.16672 81.968 9.09869C82.589 8.99665 82.8743 9.3878 83.0086 10Z" fill="#F8F8F9"/>
<path d="M49.6777 12.5681C49.6777 11.7518 49.6777 10.9355 49.6777 10.1021C49.6777 9.5069 49.8959 9.09874 50.5337 9.06472C51.1546 9.03071 51.4399 9.43887 51.4567 10.0171C51.4735 11.7348 51.4735 13.4695 51.4567 15.1872C51.4567 15.7994 51.1211 16.1736 50.5337 16.1396C49.9966 16.1055 49.6945 15.7484 49.6945 15.1702C49.6945 14.3198 49.6777 13.4355 49.6777 12.5681Z" fill="#F8F8F9"/>
<path d="M50.6675 6.3266C51.1877 6.37762 51.5402 6.71776 51.5234 7.31299C51.5234 7.95925 51.1542 8.29939 50.5164 8.28238C49.9122 8.26537 49.5766 7.87422 49.5934 7.31299C49.6102 6.68374 49.9626 6.3266 50.6675 6.3266Z" fill="#F8F8F9"/>
<path d="M13.4601 12.483C14.2824 13.0102 15.239 13.2823 16.1285 13.6565C16.5481 13.8265 16.7327 14.0816 16.7327 14.5408C16.7327 16.3435 16.7663 18.1633 16.7831 19.966C16.7999 20.4422 16.6656 20.5612 16.1957 20.3742C12.7888 18.9626 9.38183 17.551 5.95813 16.1565C5.57213 16.0034 5.48821 15.7483 5.48821 15.3742C5.47143 13.4014 5.43786 11.4116 5.4043 9.43878C5.45465 9.37075 5.48821 9.31973 5.53856 9.2517C5.58891 9.2347 5.65604 9.21769 5.70639 9.20068C5.75674 9.26871 5.7903 9.37075 5.85743 9.40477C8.37486 10.4422 10.8755 11.5646 13.4601 12.483Z" fill="#504F55"/>
<path d="M13.4597 12.483C10.8752 11.5646 8.37453 10.4422 5.8571 9.38777C5.78997 9.35376 5.7564 9.25172 5.70605 9.18369C7.1326 8.35036 8.6934 7.84015 10.1871 7.15988C12.0164 6.32655 13.8793 5.56124 15.7254 4.76192C16.6149 4.38777 16.6149 4.38777 16.6149 5.37417C16.6149 7.04083 16.6149 8.7075 16.6485 10.3742C16.6653 10.9014 16.4806 11.1905 15.9772 11.3776C15.138 11.7007 14.2989 12.1089 13.4597 12.483Z" fill="#948050"/>
<path d="M5.55541 9.25171C5.50506 9.31974 5.4715 9.37076 5.42115 9.43878C5.40437 9.31974 5.45471 9.26872 5.55541 9.25171Z" fill="#948050"/>
</svg>
