<svg width="143" height="16" viewBox="0 0 143 16" fill="none" xmlns="http://www.w3.org/2000/svg">
<path d="M15.5653 0C15.5653 5.23922 15.5653 10.4941 15.5653 15.8118C15.1492 15.8118 14.8563 15.8118 14.5481 15.8118C10.0018 15.8118 5.45554 15.8118 0.924669 15.8118C0.616446 15.8118 0.308223 15.8274 0 15.8431C0 10.5725 0 5.30196 0 0C5.19356 0 10.3717 0 15.5653 0ZM7.92133 9.78823C7.10454 11.1843 5.62507 11.7961 4.22265 11.3882C4.05313 11.3412 3.82196 11.1373 3.80655 10.9961C3.77573 10.0235 3.79114 9.03529 3.79114 8.03137C4.43841 8.03137 5.03944 7.87451 5.50178 8.07843C5.90247 8.25098 6.13363 8.81569 6.41104 9.16078C6.41104 8.23529 6.41104 7.26274 6.41104 6.2902C5.82541 7.60784 5.60966 7.71765 3.76032 7.41961C3.76032 7.07451 3.76032 6.72941 3.76032 6.36863C3.76032 4.29804 3.76032 4.29804 5.81 4.43922C7.13536 4.53333 7.28947 4.67451 7.62852 5.9451C7.64393 6.02353 7.70557 6.10196 7.76722 6.21176C8.53777 4.53333 8.86141 4.29804 10.1559 4.54902C10.1559 6.38431 10.1714 8.23529 10.1559 10.0863C10.1559 10.7922 10.4642 11.7176 9.24669 11.749C10.3101 11.749 11.3734 11.749 12.4368 11.749C11.5429 11.7333 11.3734 11.2157 11.4197 10.4314C11.4659 9.72549 11.4351 9.01961 11.4351 8.31372C11.4351 7.04314 11.4351 5.77255 11.4351 4.50196C12.9299 4.31373 13.2998 4.56471 14.055 6.33726C14.055 5.47451 14.055 4.8 14.055 4.09412C9.90936 4.09412 5.81 4.09412 1.54111 4.09412C2.49661 4.43922 2.49661 4.43922 2.49661 5.34902C2.49661 7.04314 2.49661 8.75294 2.49661 10.4471C2.49661 11.0745 2.54284 11.6863 1.67981 11.7647C3.74491 11.7647 5.81 11.7647 7.90592 11.7647C7.92133 11.1216 7.92133 10.5255 7.92133 9.78823Z" fill="#E81F3D"/>
<path d="M110.945 2.55689C108.54 2.35297 107.97 2.80787 107.23 5.41179C107.23 4.87846 107.23 4.34512 107.23 3.82748C107.23 3.30983 107.23 2.79218 107.23 2.22748C110.482 2.22748 113.657 2.22748 116.909 2.22748C116.909 3.35689 116.909 4.4863 116.909 5.72552C117.941 5.72552 118.881 5.72552 119.914 5.72552C119.806 5.86669 119.791 5.92944 119.76 5.92944C118.511 6.07061 118.496 6.07061 118.496 7.38826C118.496 8.95689 118.527 10.5255 118.481 12.0941C118.45 12.9098 118.696 13.3334 119.544 13.2706C119.636 13.2706 119.713 13.3177 119.791 13.4432C118.45 13.4432 117.094 13.4432 115.737 13.4432C115.768 13.3804 115.784 13.3177 115.814 13.3177C117.001 13.0981 117.017 13.0981 117.047 11.8275C117.078 10.2589 117.032 8.69022 117.063 7.1216C117.078 6.3216 116.832 5.86669 115.969 5.96081C115.876 5.9765 115.784 5.92944 115.691 5.75689C116.046 5.72552 116.4 5.69414 116.755 5.66277C116.986 3.21571 115.876 2.25885 113.133 2.57258C113.118 2.83924 113.102 3.10591 113.102 3.38826C113.102 6.25885 113.102 9.14512 113.102 12.0157C113.102 13.0353 113.164 13.0824 114.196 13.1765C114.52 13.2079 114.859 13.2392 115.183 13.2706C115.213 13.2706 115.229 13.349 115.275 13.4275C113.087 13.4275 110.898 13.4275 108.725 13.4275C108.725 13.3804 108.71 13.3177 108.71 13.2706C109.203 13.2392 109.712 13.2863 110.174 13.1608C110.467 13.0667 110.898 12.7059 110.898 12.4706C110.96 9.1765 110.945 5.89807 110.945 2.55689Z" fill="white"/>
<path d="M54.6168 10.8863C54.1699 9.92944 54.5089 8.61179 53.3993 8.01571C52.8291 7.70199 52.0894 7.71767 51.3496 7.56081C51.3496 9.33336 51.3342 10.949 51.365 12.549C51.365 12.7216 51.6733 13.0196 51.8274 13.0196C52.9524 13.0196 54.0774 13.0667 55.187 12.8941C56.497 12.7059 56.9747 11.6236 57.2983 10.4628C57.4524 9.91375 57.5603 9.34905 57.699 8.78434C57.7607 8.80003 57.8223 8.80003 57.884 8.81571C57.884 10.353 57.884 11.8745 57.884 13.4432C54.2623 13.4432 50.6407 13.4432 47.0191 13.4432C47.0037 13.3804 47.0037 13.302 46.9883 13.2392C47.389 13.1765 47.7743 13.0824 48.1749 13.0824C48.853 13.0667 49.1304 12.753 49.1304 12.0628C49.115 9.19218 49.115 6.3216 49.1304 3.43532C49.1304 2.74512 48.8068 2.50983 48.1904 2.49414C47.8051 2.47846 47.4198 2.44709 47.0345 2.41571C47.0345 2.35297 47.0499 2.29022 47.0499 2.22748C50.4712 2.22748 53.9079 2.22748 57.3292 2.22748C57.3292 3.6863 57.3292 5.11375 57.3292 6.5412C57.2675 6.5412 57.2059 6.55689 57.1442 6.55689C57.0518 6.0863 56.9593 5.61571 56.8668 5.16081C56.4507 3.21571 55.6956 2.52552 53.7384 2.47846C50.9335 2.41571 51.365 2.10199 51.288 4.78434C51.2726 5.58434 51.288 6.40003 51.288 7.27846C52.1972 7.35689 53.1836 7.48238 53.7384 6.71375C54.2007 6.0863 54.2932 5.16081 54.6014 4.21963C54.6168 6.57258 54.6168 8.7216 54.6168 10.8863Z" fill="white"/>
<path d="M20.0039 13.3647C20.5125 13.3177 21.021 13.3334 21.5142 13.2079C21.7762 13.1294 22.146 12.8157 22.1614 12.5961C22.2077 9.25493 22.1923 5.92944 22.1923 2.60395C19.9422 2.25885 19.0946 2.91767 18.5244 5.36473C18.5244 4.32944 18.5244 3.30983 18.5244 2.22748C21.7299 2.22748 24.9355 2.22748 28.1718 2.22748C28.1718 3.21571 28.1718 4.18826 28.1718 5.31767C27.8019 2.85493 27.1238 2.33728 24.4115 2.57258C24.3961 2.83924 24.3652 3.10591 24.3652 3.38826C24.3652 6.3216 24.3806 9.23924 24.3344 12.1726C24.319 12.9412 24.6118 13.2079 25.3053 13.2392C25.706 13.2549 26.1067 13.3334 26.5074 13.4902C24.3498 13.4902 22.1923 13.4902 20.0193 13.4902C20.0039 13.4275 20.0039 13.3961 20.0039 13.3647Z" fill="white"/>
<path d="M32.0551 5.78821C33.4112 5.78821 34.7828 5.78821 36.139 5.78821C34.8137 6.18037 34.8137 6.18036 34.7983 7.70193C34.7983 9.19213 34.8445 10.6823 34.7983 12.1725C34.7828 12.9098 34.9524 13.3333 35.7537 13.2706C35.877 13.2549 35.9849 13.3019 36.1082 13.4431C34.7674 13.4431 33.4267 13.4431 32.0859 13.4431C32.1013 13.4117 32.1013 13.3333 32.1167 13.3333C33.288 13.0666 33.288 13.0666 33.3034 11.7961C33.3188 11.1372 33.3034 10.4941 33.3034 9.77252C32.1784 9.77252 31.0688 9.77252 29.8975 9.77252C29.8975 10.7451 29.8667 11.7176 29.9129 12.6588C29.9283 12.8313 30.1749 13.0666 30.3598 13.1451C30.591 13.2549 30.8684 13.2392 31.1304 13.4431C31.0533 13.4588 30.9609 13.4902 30.8838 13.4902C29.6047 13.4902 28.3256 13.4902 27.0156 13.4902C27.0619 13.3804 27.0773 13.3176 27.1081 13.3019C28.3718 13.0353 28.3718 13.0353 28.3718 11.7019C28.3718 10.1647 28.3718 8.62742 28.3718 7.07448C28.3718 6.0235 28.3718 6.0235 27.3084 5.92938C27.216 5.92938 27.1235 5.89801 27.031 5.77252C28.4026 5.77252 29.7588 5.77252 31.2845 5.77252C29.8667 6.13331 29.8667 6.13331 29.8513 7.59213C29.8513 8.10978 29.8513 8.62742 29.8513 9.20782C30.9917 9.20782 32.0859 9.20782 33.2571 9.20782C33.2571 8.28233 33.2725 7.35684 33.2417 6.43135C33.2417 6.27448 32.9797 6.07056 32.7948 6.00782C32.5482 5.9137 32.2708 5.9137 32.0088 5.88233C32.0397 5.88233 32.0397 5.83527 32.0551 5.78821Z" fill="white"/>
<path d="M86.5333 6.13332C86.5333 8.07842 86.4871 9.81959 86.5487 11.5765C86.5949 12.8941 86.7336 12.9882 87.9511 13.4117C86.9802 13.4117 86.0093 13.4117 85.0538 13.4117C86.3175 13.2706 86.3484 12.3451 86.3021 11.3568C86.2405 10.0549 86.2405 8.73724 86.1943 7.43528C86.148 6.25881 86.071 6.16469 84.9922 5.75685C85.9014 5.75685 86.8261 5.74116 87.7354 5.78822C87.8587 5.78822 87.982 6.149 88.059 6.35293C88.4905 7.71763 88.922 9.08234 89.3535 10.447C89.4152 10.6667 89.5076 10.8706 89.6309 11.247C90.1549 9.52155 90.6481 7.95293 91.0796 6.3843C91.2183 5.89802 91.4032 5.6941 91.9272 5.72547C92.6978 5.77253 93.4837 5.74116 94.2543 5.80391C92.9597 6.18038 92.9597 6.18038 92.9597 7.67057C92.9597 9.16077 93.006 10.651 92.9443 12.1412C92.9135 12.9412 93.1293 13.3333 93.9615 13.2549C94.0539 13.2392 94.1464 13.2863 94.2389 13.4117C92.8981 13.4117 91.5573 13.4117 90.232 13.4117C90.2474 13.3647 90.2628 13.3019 90.2936 13.2863C91.5727 13.098 91.5727 13.098 91.5727 11.7333C91.5727 9.96077 91.5727 8.18822 91.5727 6.41567C91.5265 6.39998 91.4803 6.3843 91.4495 6.36861C91.3724 6.54116 91.2799 6.69802 91.2337 6.87057C90.6327 8.8941 90.047 10.9176 89.446 12.9412C89.3844 13.1294 89.2302 13.3019 89.1224 13.4745C88.9991 13.3019 88.8142 13.1608 88.7525 12.9725C88.1052 10.9333 87.4734 8.8941 86.8415 6.85489C86.7336 6.66665 86.6566 6.47842 86.5333 6.13332Z" fill="white"/>
<path d="M129.346 13.4588C128.036 13.4588 126.741 13.4588 125.432 13.4588C125.462 13.3961 125.478 13.3333 125.509 13.3333C126.711 13.1608 126.711 13.1608 126.711 11.9372C126.711 10.0862 126.711 8.25096 126.572 6.3686C126.464 6.66664 126.341 6.96468 126.264 7.27841C125.724 9.17645 125.2 11.0902 124.646 12.9882C124.599 13.1608 124.445 13.3176 124.353 13.4745C124.214 13.3176 124.014 13.1764 123.952 13.0039C123.32 10.9647 122.704 8.92547 122.087 6.87056C122.026 6.68233 121.964 6.47841 121.779 6.29017C121.764 6.52546 121.748 6.76076 121.748 6.98037C121.764 8.50194 121.764 10.0078 121.825 11.5294C121.887 12.847 121.995 12.9412 123.181 13.4274C122.241 13.4274 121.301 13.4274 120.5 13.4274C120.762 13.2235 121.255 13.0039 121.44 12.6117C121.64 12.2039 121.579 11.6549 121.579 11.1529C121.563 9.89801 121.532 8.64311 121.486 7.38821C121.455 6.22743 121.348 6.10194 120.284 5.69409C121.178 5.69409 122.056 5.67841 122.95 5.72547C123.074 5.72547 123.228 6.05488 123.289 6.2588C123.705 7.59213 124.106 8.94115 124.522 10.2902C124.599 10.5255 124.676 10.7608 124.846 11.2157C125.247 9.86664 125.586 8.73723 125.925 7.59213C126.479 5.66272 126.479 5.66272 128.437 5.66272C128.76 5.66272 129.069 5.66272 129.469 5.66272C129.377 5.81958 129.361 5.88233 129.346 5.88233C128.113 6.03919 128.113 6.03919 128.113 7.34115C128.113 8.90978 128.144 10.4784 128.098 12.047C128.067 12.847 128.236 13.3176 129.115 13.2549C129.176 13.2549 129.253 13.2863 129.331 13.3176C129.315 13.3647 129.315 13.4117 129.346 13.4588Z" fill="white"/>
<path d="M36.4473 13.4745C36.5551 13.349 36.586 13.2862 36.6168 13.2706C37.8959 13.0196 37.9113 13.0196 37.9113 11.6392C37.9113 10.1176 37.9113 8.61174 37.9113 7.09017C37.9113 6.0235 37.8959 6.0235 36.8634 5.94507C36.7555 5.94507 36.6322 5.9137 36.5243 5.78821C38.8514 5.78821 41.1939 5.78821 43.5672 5.78821C43.5672 6.74507 43.5672 7.70193 43.5672 8.6588C43.521 8.67448 43.4902 8.69017 43.4439 8.69017C43.3823 8.4235 43.336 8.14115 43.2744 7.87448C42.997 6.52546 42.473 6.0235 41.1323 5.97644C39.1288 5.89801 39.4987 5.83527 39.437 7.57644C39.4216 8.12546 39.437 8.6588 39.437 9.44311C40.0997 9.2235 40.7624 9.19213 41.1168 8.83135C41.4559 8.50193 41.4867 7.82742 41.7025 7.12154C41.7025 8.7686 41.7025 10.2117 41.7025 11.8745C41.4713 11.1059 41.4559 10.4157 41.1014 10.0078C40.7778 9.63135 40.0997 9.58429 39.4524 9.34899C39.4524 10.6353 39.437 11.6706 39.4679 12.7059C39.4679 12.8784 39.7607 13.1608 39.9148 13.1608C40.6083 13.1921 41.3018 13.2078 41.9799 13.1137C42.658 13.0196 43.1511 12.5804 43.3669 11.9059C43.5364 11.3882 43.6751 10.8706 43.9371 10.3529C43.9371 11.3725 43.9371 12.3921 43.9371 13.4588C41.4867 13.4745 39.0209 13.4745 36.4473 13.4745Z" fill="white"/>
<path d="M85.3774 9.59998C85.362 11.7176 83.9595 13.4745 82.1564 13.647C79.7523 13.8666 77.8567 11.498 78.3653 8.87841C78.8276 6.49409 80.7694 5.06664 82.7883 5.66272C84.2986 6.10194 85.3928 7.74899 85.3774 9.59998ZM79.7985 9.4588C79.9835 10.3529 80.1222 11.3098 80.3996 12.2196C80.6153 12.9255 81.1239 13.4274 81.9407 13.3804C82.7421 13.3333 83.2198 12.847 83.4356 12.1255C83.9441 10.3843 83.9133 8.62743 83.2815 6.90194C83.0349 6.24311 82.588 5.74115 81.7866 5.77252C81.016 5.8039 80.5075 6.24311 80.3071 6.93331C80.0759 7.73331 79.9835 8.56468 79.7985 9.4588Z" fill="white"/>
<path d="M72.0162 9.64705C71.9546 11.749 70.5984 13.4588 68.8107 13.6314C66.5915 13.8353 64.773 11.8745 64.9271 9.42745C65.035 7.6549 66.0829 6.13333 67.5008 5.67843C69.8433 4.94117 72.0933 6.91764 72.0162 9.64705ZM66.4374 9.49019C66.6223 10.3843 66.761 11.3098 67.0384 12.2039C67.2542 12.9098 67.7473 13.4274 68.5641 13.3961C69.3655 13.3647 69.8587 12.8784 70.0744 12.1725C70.6292 10.4 70.5676 8.61176 69.9203 6.88627C69.6891 6.24313 69.2268 5.78823 68.4717 5.80392C67.7011 5.8196 67.1925 6.24313 66.9768 6.93333C66.7302 7.73333 66.6223 8.59607 66.4374 9.49019Z" fill="white"/>
<path d="M134.786 7.30978C134.786 8.75291 134.786 10.1961 134.786 11.6392C134.725 11.6862 134.663 11.749 134.601 11.7961C134.586 10.4 134.37 9.20782 132.644 9.59997C132.644 10.6666 132.629 11.7333 132.66 12.8C132.66 12.9411 132.937 13.1764 133.106 13.1764C133.723 13.2078 134.339 13.2078 134.94 13.1294C135.618 13.0353 136.112 12.6117 136.327 11.9372C136.497 11.4039 136.636 10.8706 136.898 10.3372C136.898 11.3568 136.898 12.3608 136.898 13.4431C134.555 13.4431 132.182 13.4431 129.731 13.4431C129.855 13.349 129.901 13.2549 129.978 13.2392C131.134 13.0353 131.149 13.051 131.149 11.8902C131.149 10.4313 131.149 8.97252 131.149 7.49801C131.149 6.07056 131.134 6.07056 129.824 5.78821C132.043 5.78821 134.247 5.78821 136.528 5.78821C136.528 6.72938 136.528 7.70193 136.528 8.6588C136.497 8.6588 136.451 8.67448 136.42 8.67448C136.343 8.29801 136.281 7.93723 136.189 7.56076C135.927 6.4784 135.449 6.0235 134.37 5.97644C132.29 5.88233 132.69 5.72546 132.583 7.54507C132.552 8.0784 132.583 8.62742 132.583 9.41174C133.214 9.19213 133.862 9.16076 134.185 8.83134C134.524 8.47056 134.54 7.82742 134.709 7.29409C134.74 7.29409 134.755 7.30978 134.786 7.30978Z" fill="white"/>
<path d="M75.992 5.77258C76.9937 5.77258 77.9954 5.77258 79.1821 5.77258C77.8567 6.24317 77.7797 6.3216 77.7643 7.6863C77.7489 9.33336 77.7951 10.9804 77.8105 12.6275C77.8105 12.9569 77.8105 13.2863 77.8105 13.8353C76.1153 11.5138 74.5433 9.38042 72.9868 7.24709C72.9406 7.26277 72.8789 7.27846 72.8327 7.29415C72.8327 7.84317 72.8327 8.40787 72.8327 8.95689C72.8481 9.66277 72.8635 10.3687 72.8789 11.0745C72.9098 12.7373 72.9714 12.8314 74.4817 13.4118C73.4183 13.4118 72.355 13.4118 71.2916 13.4118C71.2916 13.3804 71.2916 13.302 71.307 13.302C72.5861 12.7687 72.6478 12.6902 72.6324 11.2314C72.6324 10.0863 72.6015 8.92552 72.5861 7.78042C72.5707 6.24317 72.5399 6.19611 71.1221 5.8667C72.5091 5.42748 73.5262 5.74121 74.3276 6.82356C75.3447 8.18826 76.3464 9.55297 77.4715 11.0589C77.4715 9.61572 77.5177 8.3765 77.4561 7.13728C77.4252 6.21179 76.7317 5.96081 75.992 5.77258Z" fill="white"/>
<path d="M138.315 12.3765C137.991 12.8471 137.76 13.1765 137.482 13.6C137.482 12.4392 137.482 11.3726 137.482 10.3059C137.513 10.2902 137.559 10.2902 137.59 10.2745C137.744 10.698 137.899 11.1216 138.083 11.5294C138.484 12.4392 139.054 13.1922 140.087 13.4275C140.919 13.6157 141.69 13.2235 141.921 12.5177C142.198 11.6706 141.844 10.8706 140.996 10.5412C140.303 10.2745 139.532 10.1804 138.885 9.8353C138.299 9.52158 137.698 9.06667 137.359 8.51766C136.866 7.70197 137.19 6.61962 137.868 6.02354C138.561 5.39609 139.686 5.30197 140.534 5.80393C140.842 5.99217 141.104 6.22746 141.474 6.49413C141.659 6.21177 141.844 5.94511 142.075 5.60001C142.075 6.55687 142.075 7.46668 142.075 8.36079C142.044 8.37648 142.013 8.39217 141.998 8.39217C141.875 8.06275 141.767 7.74903 141.628 7.41962C141.104 6.21177 140.149 5.60001 139.039 5.75687C138.422 5.85099 137.991 6.16471 137.883 6.82354C137.791 7.48236 138.053 7.96864 138.654 8.18824C139.347 8.43922 140.087 8.59609 140.796 8.80001C142.137 9.19217 142.722 9.85099 142.799 11.0431C142.861 12.1255 142.383 13.0196 141.52 13.4431C140.657 13.8667 139.547 13.6784 138.808 12.9726C138.654 12.8471 138.546 12.6745 138.315 12.3765Z" fill="white"/>
<path d="M63.6945 6.33723C63.8949 6.02351 64.0644 5.75684 64.3572 5.33331C64.3572 6.69802 64.3572 7.87449 64.3572 9.03527C64.311 9.05096 64.2647 9.05096 64.2185 9.06665C64.1414 8.73723 64.0952 8.39214 63.9873 8.07841C63.8024 7.56076 63.6637 7.01174 63.3709 6.58821C62.5541 5.39606 60.9513 5.52155 60.3965 6.87057C59.6722 8.64312 59.703 10.4941 60.3811 12.2823C60.6431 13.0039 61.2133 13.3804 61.9993 13.3961C62.9702 13.4117 63.6945 12.9568 64.0952 12.0941C64.3418 11.5451 64.4188 10.9176 64.5575 10.3686C65.0199 11.2941 64.1414 13.051 62.924 13.5059C61.2904 14.1176 59.5027 13.3647 58.8246 11.7333C58.2082 10.2588 58.2698 8.76861 59.0095 7.35684C59.9804 5.42743 61.7527 5.06665 63.6945 6.33723Z" fill="white"/>
<path d="M104.395 9.06665C104.318 8.73723 104.287 8.37645 104.179 8.06272C103.964 7.5137 103.794 6.90194 103.455 6.44704C102.669 5.42743 101.159 5.55292 100.65 6.72939C99.8489 8.59606 99.8181 10.5568 100.65 12.4235C101.282 13.8353 103.347 13.7412 104.164 12.2666C104.488 11.6863 104.596 10.9647 104.765 10.3843C105.274 11.6392 104.01 13.4902 102.423 13.647C100.558 13.8353 99.1862 12.8314 98.7701 10.949C98.4619 9.56861 98.5852 8.25096 99.3712 7.04312C100.465 5.36469 102.253 5.08233 103.856 6.38429C104.041 6.10194 104.226 5.8039 104.534 5.36469C104.534 6.7137 104.534 7.87449 104.534 9.05096C104.488 9.05096 104.441 9.05096 104.395 9.06665Z" fill="white"/>
<path d="M94.7788 5.77252C96.1812 5.77252 97.5836 5.77252 98.986 5.77252C97.5836 6.19605 97.5682 6.19605 97.5682 7.81174C97.5682 9.2235 97.599 10.6353 97.5682 12.047C97.5528 12.847 97.7685 13.3176 98.647 13.2078C98.7548 13.1921 98.8936 13.2549 99.0014 13.3961C97.5836 13.3961 96.1658 13.3961 94.6709 13.3961C94.7788 13.3176 94.8404 13.2392 94.9175 13.2235C96.0887 13.0666 96.1041 13.0823 96.1195 11.8902C96.135 10.447 96.1504 9.01958 96.135 7.57644C96.135 6.11762 96.135 6.11762 94.7788 5.77252Z" fill="white"/>
<path d="M7.92144 9.78823C7.92144 10.5255 7.92144 11.1216 7.92144 11.7647C5.82553 11.7647 3.76043 11.7647 1.69534 11.7647C2.55836 11.6863 2.51213 11.0745 2.51213 10.4471C2.49672 8.75294 2.51213 7.04314 2.51213 5.34902C2.51213 4.42353 2.51213 4.42353 1.55664 4.09412C5.82553 4.09412 9.92489 4.09412 14.0705 4.09412C14.0705 4.8 14.0705 5.47451 14.0705 6.33725C13.3153 4.5647 12.9455 4.31372 11.4506 4.50196C11.4506 5.75686 11.4506 7.02745 11.4506 8.31372C11.4506 9.01961 11.4968 9.72549 11.4352 10.4314C11.3735 11.2157 11.5431 11.7176 12.4523 11.749C11.389 11.749 10.3256 11.749 9.26221 11.749C10.4797 11.7176 10.1561 10.8078 10.1715 10.0863C10.1869 8.23529 10.1715 6.38431 10.1715 4.54902C8.89234 4.29804 8.5533 4.53333 7.78274 6.21176C7.7211 6.10196 7.65945 6.03921 7.64404 5.9451C7.305 4.65882 7.13547 4.53333 5.82553 4.43921C3.77585 4.29804 3.77585 4.29804 3.77585 6.36863C3.77585 6.72941 3.77585 7.09019 3.77585 7.41961C5.62518 7.71765 5.84094 7.62353 6.42656 6.29019C6.42656 7.26274 6.42656 8.23529 6.42656 9.16078C6.14916 8.81569 5.91799 8.25098 5.5173 8.07843C5.05497 7.87451 4.45394 8.03137 3.80667 8.03137C3.80667 9.03529 3.79126 10.0235 3.82208 10.9961C3.82208 11.1373 4.06866 11.3255 4.23818 11.3882C5.60977 11.7961 7.10465 11.2 7.92144 9.78823Z" fill="white"/>
</svg>
