<svg width="113" height="16" viewBox="0 0 113 16" fill="none" xmlns="http://www.w3.org/2000/svg">
<g clip-path="url(#clip0_148_15704)">
<path d="M10.6849 16C7.59071 16 4.50397 16 1.40981 16C1.41723 15.9628 1.42465 15.9256 1.42465 15.8884C1.42465 11.3414 1.42465 6.79441 1.42465 2.25488C1.42465 2.13581 1.40239 2.00185 1.32819 1.91255C0.897826 1.33953 0.445203 0.781388 0 0.223249C0 0.171156 0 0.126505 0 0.0744116C0.682645 0.0744116 1.35787 0.0669697 2.04051 0.0744116C4.74883 0.0744116 7.44973 0.0372023 10.1581 0.0967372C11.7088 0.126505 13.0148 0.744179 13.8236 2.15813C14.8846 4.01116 14.3059 6.97302 11.8498 7.73209C11.8276 7.73953 11.8053 7.76185 11.835 7.74697C12.2728 7.97767 12.7699 8.15627 13.1483 8.46883C14.4988 9.57767 14.9514 11.0437 14.6027 12.7256C14.2688 14.3256 13.2596 15.3302 11.694 15.7767C11.3601 15.866 11.0188 15.9256 10.6849 16ZM4.83787 13.0233C6.40351 13.0233 7.92462 13.0679 9.43831 13.0084C10.7888 12.9563 11.5308 11.8549 11.1375 10.6046C10.8926 9.83069 10.2323 9.37674 9.30475 9.3693C7.89494 9.36185 6.48513 9.36185 5.07532 9.3693C4.9937 9.3693 4.91208 9.39162 4.83045 9.39906C4.83787 10.6121 4.83787 11.7953 4.83787 13.0233ZM4.83045 6.39255C6.36641 6.39255 7.85784 6.39255 9.35669 6.39255C9.46799 6.39255 9.57929 6.35534 9.68317 6.33302C10.4697 6.13953 10.9223 5.5665 10.9372 4.75534C10.952 3.92185 10.5142 3.3265 9.71285 3.12557C9.47541 3.06604 9.22313 3.05116 8.97826 3.04371C7.71686 3.03627 6.45545 3.03627 5.19404 3.04371C5.07532 3.04371 4.9566 3.0586 4.83045 3.06604C4.83045 4.17488 4.83045 5.26139 4.83045 6.39255Z" fill="white"/>
<path d="M44.2237 0C44.2237 5.29116 44.2237 10.5823 44.2237 15.9107C44.0753 15.9181 43.9565 15.933 43.8378 15.933C43.0439 15.933 42.2573 15.9107 41.4634 15.9479C41.0924 15.9628 40.8846 15.8214 40.6843 15.5386C38.3915 12.3833 36.0913 9.23535 33.7911 6.08744C33.6872 5.93861 33.5759 5.79721 33.4201 5.5814C33.4052 5.72279 33.383 5.78977 33.383 5.85674C33.383 9.20558 33.383 12.5544 33.383 15.9033C33.383 15.9405 33.3904 15.9777 33.3978 16.0149C32.2625 16.0149 31.1198 16.0149 29.9846 16.0149C29.9846 11.4456 29.992 6.87628 29.9846 2.30698C29.9846 2.13581 29.903 1.94233 29.8065 1.80837C29.3465 1.1907 28.879 0.595349 28.4189 0C30.1033 0 31.7802 0 33.4646 0C35.8909 3.31163 38.3173 6.61581 40.8104 10.0093C40.8253 9.79349 40.8401 9.6893 40.8401 9.58512C40.8401 6.4893 40.8401 3.38605 40.8401 0.290233C40.8401 0.193488 40.8179 0.0967442 40.8104 0C41.9457 0 43.0884 0 44.2237 0Z" fill="white"/>
<path d="M79.4688 0C79.4614 0.148837 79.4539 0.297674 79.4539 0.446512C79.4539 5.43256 79.4539 10.4112 79.4539 15.3972C79.4539 15.5535 79.4539 15.7172 79.4539 15.933C79.1497 15.933 78.8677 15.933 78.5932 15.933C77.8883 15.933 77.1834 15.9479 76.4785 15.9256C76.3301 15.9181 76.1298 15.814 76.0407 15.6949C73.6144 12.3833 71.2028 9.07907 68.7839 5.76744C68.7468 5.72279 68.7023 5.67814 68.591 5.55907C68.591 5.78977 68.591 5.9386 68.591 6.08C68.591 9.21302 68.591 12.3535 68.591 15.4865C68.591 15.6577 68.5687 15.8288 68.5613 16.0074C67.4483 16.0074 66.3353 16.0074 65.2223 16.0074C65.2223 11.4753 65.2223 6.94326 65.2074 2.4186C65.2074 2.19535 65.1036 1.94233 64.9774 1.75628C64.5545 1.14605 64.1018 0.580465 63.6641 0C65.3484 0 67.0253 0 68.7097 0C68.7987 0.133953 68.8804 0.275349 68.9694 0.40186C71.2548 3.51256 73.5402 6.61581 75.8255 9.72651C75.8775 9.80093 75.9443 9.86047 76.0259 9.95721C76.0481 9.87535 76.063 9.84558 76.063 9.80837C76.063 6.5414 76.0556 3.26698 76.0556 0C77.1908 0 78.3335 0 79.4688 0Z" fill="white"/>
<path d="M96.2383 16C97.0248 13.9535 97.8188 11.9144 98.6053 9.86791C99.5699 7.36 100.527 4.85209 101.499 2.34419C101.596 2.10605 101.566 1.94233 101.403 1.74884C100.935 1.17581 100.483 0.580465 100.023 0C102.197 0 104.378 0 106.552 0C106.574 0.0595349 106.604 0.111628 106.626 0.171163C108.237 4.3386 109.847 8.50605 111.457 12.6735C111.887 13.7823 112.295 14.8912 112.711 16.0074C111.449 16.0074 110.188 16.0074 108.927 16.0074C108.622 15.1814 108.318 14.3554 107.999 13.5442C107.962 13.44 107.799 13.3284 107.695 13.3209C105.565 13.306 103.443 13.306 101.314 13.3209C101.217 13.3209 101.054 13.3954 101.024 13.4698C100.705 14.3107 100.408 15.1665 100.104 16.0149C98.813 16 97.522 16 96.2383 16ZM101.944 10.2549C103.621 10.2549 105.239 10.2549 106.908 10.2549C106.085 7.97768 105.276 5.74512 104.467 3.51256C104.437 3.51256 104.408 3.51256 104.386 3.52C103.569 5.74512 102.768 7.97768 101.944 10.2549Z" fill="white"/>
<path d="M88.3727 16C88.0982 15.9479 87.8236 15.8958 87.5417 15.8512C83.2751 15.1888 80.4481 11.4754 80.9378 7.15908C81.3756 3.31163 84.0913 0.587914 87.9349 0.141402C89.7677 -0.0744119 91.5114 0.156286 93.1067 1.13861C94.0639 1.72652 94.843 2.50791 95.444 3.51256C94.5536 4.01117 93.6855 4.49489 92.8841 4.9414C92.3795 4.48745 91.9566 3.98884 91.4372 3.6614C89.2705 2.29954 86.3619 2.99163 85.0856 5.23164C83.9578 7.21117 83.9949 9.25768 85.2637 11.1777C86.6216 13.2242 89.3967 13.7526 91.6746 12.48C91.7414 12.4428 91.8008 12.3981 91.8676 12.3684C92.2608 12.1823 92.4686 11.9144 92.4166 11.4381C92.3721 11.014 92.4092 10.5749 92.4092 10.0912C91.8972 10.0912 91.4224 10.0986 90.9475 10.0837C90.8213 10.0837 90.6507 10.054 90.5839 9.9721C89.8567 9.08652 89.1444 8.18605 88.3875 7.24094C90.8287 7.24094 93.2032 7.24094 95.5998 7.24094C95.6073 7.37489 95.6147 7.49396 95.6147 7.62047C95.6147 9.3321 95.6221 11.0437 95.6073 12.7554C95.6073 12.9637 95.5034 13.2168 95.3624 13.3656C93.9303 14.8688 92.1718 15.7098 90.1164 15.9256C90.0051 15.9405 89.9012 15.9702 89.7899 16C89.3151 16 88.8402 16 88.3727 16Z" fill="white"/>
<path d="M16.1754 16C16.1754 15.9628 16.168 15.9256 16.168 15.8884C16.168 10.6939 16.168 5.49209 16.168 0.297671C16.168 0.238136 16.1828 0.178601 16.1902 0.0967407C19.9299 0.0967407 23.6548 0.0967407 27.4094 0.0967407C27.4094 1.05674 27.4094 2.01674 27.4094 3.02139C24.7975 3.02139 22.2005 3.02139 19.5589 3.02139C19.5589 4.15255 19.5589 5.25395 19.5589 6.39255C21.7033 6.39255 23.8403 6.39255 26.0144 6.39255C26.0144 7.39721 26.0144 8.35721 26.0144 9.36186C23.87 9.36186 21.7256 9.36186 19.5515 9.36186C19.5515 10.5972 19.5515 11.7953 19.5515 13.0158C22.156 13.0158 24.7307 13.0158 27.3797 13.0158C27.3797 14.0279 27.3797 15.0177 27.3797 16C23.6474 16 19.9077 16 16.1754 16Z" fill="white"/>
<path d="M45.7078 16C45.7004 15.1293 45.6856 14.266 45.693 13.3953C45.693 13.2614 45.782 13.1126 45.8711 13.0009C48.149 9.89767 50.427 6.79441 52.7124 3.69116C52.8534 3.49767 52.9943 3.29674 53.1798 3.02883C52.9721 3.02883 52.8459 3.02883 52.7124 3.02883C50.5012 3.02883 48.2826 3.02139 46.0714 3.03628C45.7598 3.03628 45.6707 2.94697 45.6782 2.64186C45.7004 1.80093 45.6856 0.959997 45.6856 0.0967407C49.7147 0.0967407 53.6992 0.0967407 57.7432 0.0967407C57.7432 0.662322 57.6986 1.23535 57.758 1.79349C57.8322 2.52279 57.5651 3.08093 57.1273 3.64651C54.8271 6.66046 52.564 9.69674 50.286 12.7256C50.2267 12.8 50.1821 12.8819 50.1005 13.0158C52.6678 13.0158 55.1832 13.0158 57.7357 13.0158C57.7357 14.0353 57.7357 15.0177 57.7357 16C53.7215 16 49.7147 16 45.7078 16Z" fill="white"/>
<path d="M59.2119 16C59.2119 10.6642 59.2119 5.33581 59.2119 0C60.3472 0 61.4899 0 62.6251 0C62.6177 0.111628 62.6029 0.223256 62.6029 0.327442C62.6029 5.44 62.6029 10.5526 62.6029 15.6651C62.6029 15.7767 62.6177 15.8884 62.6251 15.9926C61.4899 16 60.3472 16 59.2119 16Z" fill="white"/>
</g>
<defs>
<clipPath id="clip0_148_15704">
<rect width="113" height="16" fill="white"/>
</clipPath>
</defs>
</svg>
