<svg width="126" height="20" viewBox="0 0 126 20" fill="none" xmlns="http://www.w3.org/2000/svg">
<path d="M51.6755 15.9567C50.6222 15.9567 49.5992 15.9567 48.5409 15.9567C48.5409 15.8509 48.5409 15.7527 48.5409 15.6546C48.5409 13.8419 48.5409 12.0317 48.5409 10.219C48.5409 9.80612 48.5082 9.39826 48.3797 9.00299C48.1226 8.21246 47.5003 7.71901 46.6738 7.65355C46.3109 7.62585 45.9506 7.62585 45.5978 7.72152C44.6277 7.98336 44.0507 8.62787 43.8491 9.59967C43.7761 9.94962 43.7509 10.3147 43.7484 10.6747C43.7383 12.3263 43.7433 13.9803 43.7433 15.6319C43.7433 15.7301 43.7433 15.8308 43.7433 15.9491C42.6976 15.9491 41.6696 15.9491 40.6289 15.9491C40.6289 12.3288 40.6289 8.7185 40.6289 5.11075C40.8254 5.0604 43.2746 5.04781 43.5972 5.10068C43.5972 5.48336 43.5972 5.87359 43.5972 6.31165C43.6778 6.25627 43.7181 6.23361 43.7484 6.2034C44.5118 5.45566 45.4492 5.08557 46.4898 4.94962C47.1777 4.85899 47.8681 4.88416 48.5384 5.06795C50.1964 5.5186 51.1992 6.59866 51.5369 8.27792C51.6326 8.75123 51.6755 9.24217 51.678 9.72555C51.6931 11.7145 51.6856 13.7009 51.683 15.6898C51.6856 15.7678 51.6805 15.8484 51.6755 15.9567Z" fill="white"/>
<path d="M27.377 0.941589C29.1937 0.941589 30.9852 0.941589 32.7919 0.941589C32.7919 1.7573 32.7919 2.5579 32.7919 3.39124C32.0309 3.39124 31.28 3.39124 30.5367 3.39124C30.4788 3.60523 30.4662 17.0921 30.5191 17.4245C31.2649 17.4245 32.0158 17.4245 32.7869 17.4245C32.7869 18.2528 32.7869 19.0534 32.7869 19.8565C32.618 19.9068 27.8053 19.927 27.377 19.8766C27.377 13.5725 27.377 7.26838 27.377 0.941589Z" fill="white"/>
<path d="M58.8161 19.8665C58.4835 19.9169 53.6179 19.9043 53.4088 19.8514C53.4012 19.7784 53.3886 19.6979 53.3886 19.6148C53.3861 18.9778 53.3861 18.3383 53.3886 17.7014C53.3886 17.4471 53.4088 17.4295 53.6607 17.4295C54.2226 17.427 54.7871 17.4295 55.349 17.4295C55.6841 17.4295 55.6866 17.4295 55.6866 17.0946C55.6866 13.5951 55.6866 10.0956 55.6866 6.59615C55.6866 5.64701 55.6866 4.70038 55.6866 3.75124C55.6866 3.70088 55.6891 3.65053 55.6866 3.60018C55.6765 3.4315 55.6488 3.40381 55.4699 3.39625C55.3691 3.39122 55.2683 3.39373 55.1675 3.39373C54.6712 3.39373 54.1773 3.39373 53.6809 3.39373C53.4062 3.39373 53.3911 3.37863 53.3886 3.11428C53.3861 2.47732 53.3861 1.83784 53.3886 1.20088C53.3886 0.946605 53.4088 0.923946 53.6582 0.923946C55.2885 0.921429 56.9163 0.921429 58.5465 0.923946C58.801 0.923946 58.8136 0.94157 58.8161 1.19837C58.8161 2.3741 58.8161 3.54731 58.8161 4.72304C58.8161 9.65758 58.8161 14.5921 58.8161 19.5267C58.8161 19.6374 58.8161 19.7457 58.8161 19.8665Z" fill="white"/>
<path d="M0.0330209 0.939026C0.491615 0.939026 0.932571 0.939026 1.3962 0.939026C1.3962 3.04628 1.3962 5.13842 1.3962 7.28847C1.4718 7.21546 1.51463 7.18273 1.54487 7.14245C2.4797 5.85846 3.76729 5.27437 5.32953 5.23409C6.20892 5.21143 7.05052 5.3776 7.84172 5.76027C9.10915 6.37457 9.96587 7.35897 10.4068 8.68827C10.8377 9.98485 10.8553 11.3066 10.4018 12.5956C9.69625 14.5896 8.26 15.7275 6.16357 16.0221C5.36229 16.1329 4.57361 16.0699 3.80004 15.8207C2.8627 15.5211 2.11937 14.9622 1.54991 14.1641C1.50203 14.0961 1.45416 14.0282 1.37605 13.9149C1.33321 14.1742 1.35589 14.3932 1.35337 14.6097C1.34833 14.8288 1.35337 15.0453 1.35337 15.2643C1.35337 15.4884 1.35337 15.7124 1.35337 15.9516C0.899814 15.9516 0.476496 15.9516 0.0506591 15.9516C-0.00225562 15.7779 -0.0224136 1.3217 0.0330209 0.939026ZM9.31829 10.6344C9.2679 10.2618 9.24774 9.88162 9.16207 9.51657C8.88742 8.36853 8.26756 7.46974 7.19666 6.91586C6.48106 6.54577 5.71757 6.41989 4.92637 6.50046C3.56823 6.63641 2.50741 7.27588 1.89008 8.49945C1.1921 9.88414 1.19462 11.3192 1.85732 12.719C2.31339 13.6807 3.07688 14.3277 4.11249 14.6248C4.96669 14.869 5.82088 14.864 6.665 14.5896C7.51163 14.3152 8.16929 13.7915 8.63544 13.0312C9.09151 12.2985 9.29813 11.4979 9.31829 10.6344Z" fill="white"/>
<path d="M96.2551 14.0609C96.2551 15.9944 96.2551 17.928 96.2551 19.8791C95.7788 19.8791 95.3228 19.8791 94.8516 19.8791C94.8516 15.0277 94.8516 10.1838 94.8516 5.31972C95.29 5.31972 95.7209 5.31972 96.1694 5.31972C96.2248 5.53875 96.1896 5.76534 96.1946 5.98689C96.2021 6.20592 96.1971 6.42244 96.1971 6.64147C96.1971 6.86302 96.1971 7.08709 96.1971 7.30864C96.2122 7.31368 96.2273 7.3162 96.2425 7.32123C96.2777 7.27843 96.313 7.24067 96.3458 7.19535C97.1269 6.07752 98.2028 5.44812 99.5484 5.27944C100.755 5.12586 101.907 5.30713 102.978 5.90884C104.258 6.62888 105.049 7.72657 105.387 9.13895C105.719 10.5262 105.641 11.8958 105.019 13.1923C104.222 14.8464 102.882 15.7779 101.063 16.0171C100.088 16.1455 99.1351 16.0523 98.2255 15.6646C97.52 15.365 96.9555 14.8892 96.4919 14.285C96.4314 14.2069 96.371 14.1264 96.313 14.0458C96.2903 14.0534 96.2727 14.0584 96.2551 14.0609ZM104.152 10.6445C104.122 10.3524 104.114 10.0579 104.059 9.77088C103.819 8.52717 103.197 7.54278 102.061 6.931C101.408 6.57853 100.705 6.44762 99.9692 6.49041C98.4321 6.57601 97.2982 7.30109 96.6481 8.69334C96.0535 9.96725 96.0736 11.289 96.6305 12.573C97.0841 13.6203 97.8803 14.3253 98.994 14.64C99.6945 14.8363 100.403 14.8565 101.113 14.7004C102.139 14.4738 102.94 13.9199 103.489 13.0211C103.94 12.291 104.139 11.498 104.152 10.6445Z" fill="white"/>
<path d="M22.8496 11.0775C19.8964 11.0775 16.9685 11.0775 14.0128 11.0775C14.0128 11.1682 14.0052 11.2412 14.0128 11.3117C14.1967 13.0287 15.4264 14.3656 17.1272 14.6979C17.8605 14.8414 18.5937 14.8364 19.327 14.6626C20.0753 14.4864 20.7103 14.1138 21.2495 13.57C21.2974 13.5222 21.3302 13.4642 21.3931 13.3786C21.6804 13.711 21.9374 14.0081 22.2146 14.3278C22.0987 14.4512 21.9928 14.577 21.8744 14.6903C21.2344 15.3071 20.4684 15.6923 19.6117 15.8938C18.4677 16.1631 17.3263 16.138 16.205 15.7855C14.6604 15.2996 13.5643 14.2925 12.9772 12.792C12.3498 11.1858 12.3976 9.55941 13.1611 8.00604C13.9347 6.43504 15.2273 5.52366 16.9685 5.28197C18.1124 5.12336 19.2161 5.2719 20.2391 5.83585C21.5695 6.56848 22.3557 7.714 22.716 9.16666C22.8546 9.72306 22.8974 10.292 22.8697 10.8661C22.8647 10.9265 22.8571 10.9819 22.8496 11.0775ZM21.4939 10.0025C21.4209 8.22256 19.9594 6.3293 17.5253 6.4577C15.1996 6.58107 14.0153 8.54481 14.0304 10.0025C16.5124 10.0025 18.9943 10.0025 21.4939 10.0025Z" fill="white"/>
<path d="M120.608 5.21649C121.739 5.22153 122.79 5.49595 123.727 6.13542C125 7.004 125.705 8.23512 125.927 9.74066C126.081 10.7855 126.005 11.8202 125.59 12.8046C124.801 14.6777 123.39 15.7603 121.366 16.0196C120.225 16.1656 119.114 16.0297 118.086 15.4959C116.518 14.6828 115.599 13.3786 115.306 11.649C115.107 10.4758 115.211 9.3177 115.73 8.2326C116.544 6.52566 117.919 5.56392 119.779 5.2895C120.054 5.2467 120.333 5.23915 120.608 5.21649ZM124.579 10.6546C124.526 10.2568 124.504 9.85144 124.41 9.4612C124.146 8.33583 123.523 7.46473 122.483 6.9184C121.818 6.56846 121.107 6.45516 120.364 6.48537C118.776 6.55083 117.418 7.55788 116.917 9.06342C116.602 10.005 116.571 10.9617 116.831 11.9159C117.186 13.2125 117.972 14.144 119.268 14.5871C119.887 14.7986 120.53 14.8464 121.183 14.7608C122.291 14.6173 123.183 14.1087 123.818 13.1823C124.337 12.4219 124.544 11.5685 124.579 10.6546Z" fill="white"/>
<path d="M81.4209 19.0282C81.6452 18.6682 81.8543 18.3283 82.076 17.9733C82.1667 18.0514 82.2348 18.1118 82.3053 18.1672C82.905 18.6505 83.5854 18.8444 84.3514 18.7462C84.883 18.6757 85.3038 18.4114 85.6112 17.9884C85.838 17.6787 86.022 17.3363 86.2034 16.9965C86.3495 16.722 86.4528 16.4275 86.5889 16.1505C86.6595 16.0096 86.6544 15.8937 86.5889 15.7502C86.0169 14.4814 85.455 13.2074 84.8906 11.936C83.9507 9.82124 83.0109 7.70644 82.071 5.59164C82.0357 5.51107 82.003 5.42547 81.9601 5.31973C82.4641 5.31973 82.9378 5.31973 83.4317 5.31973C84.752 8.3157 86.0698 11.3167 87.4179 14.3756C88.7634 11.3217 90.0838 8.31822 91.4067 5.3147C91.8678 5.3147 92.3113 5.3147 92.7925 5.3147C92.7522 5.41792 92.7245 5.501 92.6892 5.57905C91.8023 7.58056 90.9153 9.58207 90.0284 11.5811C89.1792 13.497 88.3275 15.4154 87.4784 17.3313C87.2566 17.8323 86.9996 18.3107 86.6595 18.7437C86.0245 19.5569 85.1854 19.9597 84.1599 19.9975C83.5476 20.0201 82.9554 19.932 82.3885 19.6903C82.0307 19.5342 81.7107 19.3253 81.4209 19.0282Z" fill="white"/>
<path d="M37.6727 5.10065C37.6727 8.70841 37.6727 12.3187 37.6727 15.9491C36.6396 15.9491 35.6115 15.9491 34.5684 15.9491C34.5684 12.3287 34.5684 8.71848 34.5684 5.10821C34.775 5.05534 37.4132 5.04778 37.6727 5.10065Z" fill="white"/>
<path d="M71.6842 13.2553C72.0269 13.4894 72.3645 13.721 72.7148 13.9602C72.5157 14.3051 72.2763 14.5921 72.0017 14.8515C71.3113 15.501 70.4747 15.8484 69.5525 15.9919C68.4892 16.1556 67.4359 16.0876 66.4305 15.6873C64.6969 15 63.6412 13.716 63.2531 11.9058C62.9709 10.5816 63.0818 9.27996 63.7092 8.05891C64.4752 6.56596 65.7074 5.66717 67.3477 5.34491C68.4035 5.13595 69.4542 5.17371 70.4772 5.54129C71.344 5.85347 72.0722 6.35951 72.5938 7.13242C72.6316 7.18781 72.6644 7.24572 72.7173 7.33132C72.3721 7.56797 72.0294 7.80211 71.6565 8.05891C71.6263 8.01359 71.6011 7.97331 71.5708 7.93303C70.9535 7.07704 70.0917 6.63394 69.0637 6.50805C68.3455 6.41994 67.64 6.5005 66.9622 6.77996C65.8913 7.22558 65.1606 7.99345 64.8028 9.09365C64.4525 10.1737 64.455 11.2638 64.8532 12.3288C65.337 13.6229 66.2819 14.4109 67.635 14.7004C68.4237 14.8691 69.2023 14.8288 69.9683 14.5594C70.5957 14.3379 71.1122 13.9653 71.5129 13.4366C71.5532 13.3837 71.596 13.3308 71.6389 13.2805C71.6439 13.2754 71.6514 13.2729 71.6842 13.2553Z" fill="white"/>
<path d="M110.154 3.03118C110.154 3.77136 110.154 4.51657 110.154 5.29452C110.431 5.31214 110.696 5.30207 110.96 5.30207C111.23 5.30459 111.497 5.30207 111.766 5.30207C112.026 5.30207 112.288 5.30207 112.548 5.30207C112.815 5.30207 113.079 5.30207 113.359 5.30207C113.359 5.71748 113.359 6.09764 113.359 6.51053C112.293 6.51053 111.24 6.51053 110.169 6.51053C110.161 6.61124 110.151 6.68425 110.151 6.75726C110.151 8.80409 110.151 10.8509 110.151 12.9003C110.151 13.2401 110.192 13.5699 110.323 13.8847C110.552 14.4461 110.998 14.723 111.577 14.8061C112.26 14.9043 112.898 14.7759 113.465 14.3655C113.49 14.3479 113.523 14.3378 113.568 14.3152C113.729 14.645 113.886 14.9672 114.057 15.3172C113.951 15.4003 113.853 15.4859 113.744 15.5589C113.321 15.8358 112.85 15.9768 112.351 16.0347C111.751 16.1052 111.159 16.08 110.582 15.8887C109.579 15.5564 109.002 14.8439 108.811 13.8217C108.748 13.4869 108.73 13.1394 108.728 12.797C108.72 10.8157 108.725 8.83682 108.725 6.85545C108.725 6.75726 108.725 6.65655 108.725 6.52312C108.093 6.50801 107.483 6.52312 106.855 6.51305C106.855 6.10771 106.855 5.72 106.855 5.30459C107.47 5.30459 108.08 5.30459 108.723 5.30459C108.723 4.51909 108.723 3.76129 108.723 3.00852C109.048 2.95313 109.972 2.96572 110.154 3.03118Z" fill="white"/>
<path d="M80.8562 5.23157C80.8562 5.69985 80.8562 6.14043 80.8562 6.60115C80.7604 6.60115 80.6798 6.5936 80.5992 6.60115C80.2237 6.63892 79.8407 6.6364 79.4779 6.72452C78.2583 7.0216 77.5125 7.82724 77.1572 9.008C76.9959 9.54174 76.9556 10.0956 76.9556 10.652C76.9556 12.3136 76.9556 13.9753 76.9556 15.6369C76.9556 15.7351 76.9556 15.8333 76.9556 15.9491C76.4819 15.9491 76.0309 15.9491 75.5798 15.9491C75.5269 15.7754 75.5017 5.83328 75.5546 5.34234C75.7386 5.29199 76.623 5.28444 76.8977 5.33731C76.8977 5.9793 76.8977 6.62885 76.8977 7.27588C76.9128 7.28595 76.9254 7.29602 76.9405 7.30357C77.772 5.71999 79.1806 5.24416 80.8562 5.23157Z" fill="white"/>
<path d="M36.0831 3.53472C35.7379 3.54227 35.37 3.47178 35.0374 3.27037C34.4579 2.92293 34.153 2.40934 34.1706 1.72706C34.1883 1.05486 34.5108 0.55385 35.103 0.251736C35.7707 -0.0906612 36.4712 -0.0831084 37.1414 0.244183C37.7311 0.531192 38.0611 1.01961 38.0687 1.6893C38.0763 2.38164 37.794 2.92293 37.1893 3.27792C36.8743 3.46422 36.5543 3.53472 36.0831 3.53472Z" fill="white"/>
</svg>
