<svg width="91" height="16" viewBox="0 0 91 16" fill="none" xmlns="http://www.w3.org/2000/svg">
<path d="M5.84373 2.72421C4.98973 2.72421 4.31873 3.02493 3.83073 3.68652C3.34273 4.3481 3.09873 5.25026 3.09873 6.393C3.09873 8.79877 4.01373 10.0016 5.84373 10.0016C6.63673 10.0016 7.55173 9.82122 8.58873 9.46035V11.385C7.67373 11.7458 6.69773 11.9263 5.59973 11.9263C4.01373 11.9263 2.79373 11.4451 2.00073 10.4828C1.14673 9.52049 0.719727 8.19732 0.719727 6.393C0.719727 5.25026 0.902727 4.28796 1.32973 3.44594C1.75673 2.60392 2.30573 1.94234 3.09873 1.52133C3.89173 1.10032 4.74573 0.859741 5.78273 0.859741C6.81973 0.859741 7.91773 1.10032 8.95473 1.64161L8.22273 3.50608C7.79573 3.32565 7.42973 3.14522 7.00273 3.02493C6.63673 2.78435 6.20973 2.72421 5.84373 2.72421Z" fill="white"/>
<path d="M17.4333 7.59588C17.4333 8.91905 17.0673 10.0016 16.3353 10.7234C15.6033 11.4451 14.6273 11.8661 13.3463 11.8661C12.5533 11.8661 11.8213 11.6857 11.2113 11.3248C10.6013 10.964 10.1133 10.4828 9.80831 9.82121C9.50331 9.15963 9.32031 8.4379 9.32031 7.53574C9.32031 6.21256 9.68632 5.12997 10.3573 4.40824C11.0283 3.68651 12.0653 3.2655 13.3463 3.2655C14.1393 3.2655 14.8713 3.44594 15.4813 3.8068C16.0913 4.16766 16.5793 4.64882 16.8843 5.3104C17.3113 5.97199 17.4333 6.69372 17.4333 7.59588ZM11.6993 7.59588C11.6993 8.37775 11.8213 9.03934 12.1263 9.46035C12.3703 9.88136 12.8583 10.0618 13.4683 10.0618C14.0783 10.0618 14.5053 9.88136 14.7493 9.46035C14.9933 9.03934 15.1763 8.4379 15.1763 7.59588C15.1763 6.81401 15.0543 6.15242 14.7493 5.79156C14.4443 5.43069 14.0173 5.19011 13.4073 5.19011C12.7973 5.19011 12.3703 5.37055 12.1263 5.79156C11.8213 6.15242 11.6993 6.75386 11.6993 7.59588Z" fill="white"/>
<path d="M18.4707 1.34089C18.4707 0.619165 18.8977 0.258301 19.6907 0.258301C20.4837 0.258301 20.9107 0.619165 20.9107 1.34089C20.9107 1.70176 20.7887 1.94234 20.6057 2.12277C20.4227 2.36335 20.1177 2.48363 19.6907 2.48363C18.8367 2.48363 18.4707 2.12277 18.4707 1.34089ZM20.7887 11.6857H18.5317V3.50608H20.7887V11.6857Z" fill="white"/>
<path d="M30.061 11.6857H27.804V6.87416C27.804 6.27272 27.682 5.85171 27.499 5.55099C27.316 5.25027 26.95 5.12998 26.462 5.12998C25.852 5.12998 25.364 5.31041 25.059 5.73142C24.754 6.15243 24.632 6.81401 24.632 7.83646V11.6857H22.375V3.50609H24.083L24.388 4.52854H24.51C24.754 4.10753 25.12 3.80681 25.547 3.62637C25.974 3.44594 26.523 3.32565 27.072 3.32565C28.048 3.32565 28.78 3.56623 29.268 4.10753C29.756 4.64882 30 5.37055 30 6.33286V11.6857H30.061Z" fill="white"/>
<path d="M36.4658 2.72421C35.6118 2.72421 34.9408 3.02493 34.4528 3.68652C33.9648 4.3481 33.7208 5.25026 33.7208 6.393C33.7208 8.79877 34.6358 10.0016 36.4658 10.0016C37.2588 10.0016 38.1738 9.82122 39.2108 9.46035V11.385C38.2958 11.7458 37.3198 11.9263 36.2218 11.9263C34.6358 11.9263 33.4158 11.4451 32.6228 10.4828C31.7688 9.52049 31.3418 8.19732 31.3418 6.393C31.3418 5.25026 31.5248 4.28796 31.9518 3.44594C32.3788 2.60392 32.9278 1.94234 33.7208 1.52133C34.5138 1.10032 35.3678 0.859741 36.4048 0.859741C37.4418 0.859741 38.5398 1.10032 39.5768 1.64161L38.8448 3.50608C38.4178 3.32565 38.0518 3.14522 37.6248 3.02493C37.2588 2.78435 36.8928 2.72421 36.4658 2.72421Z" fill="white"/>
<path d="M48.2993 11.6857H46.0423V6.87415C46.0423 5.67127 45.6153 5.12997 44.7003 5.12997C44.0903 5.12997 43.6023 5.37055 43.2973 5.79156C42.9923 6.21257 42.8703 6.9343 42.8703 7.83646V11.6857H40.6133V0.258301H42.8703V2.60392C42.8703 2.78435 42.8703 3.20536 42.8093 3.86695L42.7483 4.52853H42.8703C43.3583 3.74666 44.1513 3.32565 45.2493 3.32565C46.2253 3.32565 46.9573 3.56623 47.4453 4.10752C47.9333 4.64882 48.1773 5.37055 48.1773 6.33286V11.6857H48.2993Z" fill="white"/>
<path d="M53.6069 11.806C52.2649 11.806 51.2279 11.4451 50.4959 10.7234C49.7639 10.0017 49.3369 8.9792 49.3369 7.65603C49.3369 6.27272 49.7029 5.25027 50.3739 4.46839C51.0449 3.74666 52.0209 3.32565 53.2409 3.32565C54.3999 3.32565 55.3149 3.62637 55.9859 4.28796C56.6569 4.94954 56.9619 5.85171 56.9619 6.99444V8.07704H51.5939C51.5939 8.73862 51.8379 9.21978 52.1429 9.58064C52.5089 9.94151 52.9969 10.1219 53.6679 10.1219C54.1559 10.1219 54.6439 10.0618 55.0709 9.94151C55.4979 9.82122 55.9859 9.70093 56.4739 9.46035V11.2045C56.0469 11.385 55.6809 11.5654 55.1929 11.6255C54.8269 11.806 54.2779 11.806 53.6069 11.806ZM53.3019 4.94954C52.8139 4.94954 52.4479 5.12998 52.1429 5.37055C51.8989 5.67127 51.7159 6.09228 51.6549 6.63358H54.8269C54.8269 6.09228 54.6439 5.67127 54.3999 5.37055C54.1559 5.06983 53.7899 4.94954 53.3019 4.94954Z" fill="white"/>
<path d="M61.5974 11.806C59.0354 11.806 57.6934 10.4227 57.6934 7.59589C57.6934 6.21257 58.0594 5.12998 58.7304 4.40825C59.4624 3.68652 60.4384 3.32565 61.7804 3.32565C62.7564 3.32565 63.6104 3.50609 64.3424 3.86695L63.6714 5.61113C63.3054 5.49084 63.0004 5.37055 62.6954 5.25027C62.3904 5.19012 62.0854 5.12998 61.7804 5.12998C60.6214 5.12998 60.0114 5.97199 60.0114 7.59589C60.0114 9.21978 60.6214 10.0017 61.7804 10.0017C62.2074 10.0017 62.6344 9.94151 63.0004 9.82122C63.3664 9.70093 63.7324 9.5205 64.0984 9.27992V11.2045C63.7324 11.4451 63.3664 11.5654 63.0004 11.6857C62.6344 11.806 62.2074 11.806 61.5974 11.806Z" fill="white"/>
<path d="M67.4538 7.23502L68.4298 5.97199L70.7478 3.50608H73.3098L70.0158 7.05459L73.4928 11.6857H70.8698L68.4908 8.37776L67.5148 9.15963V11.6857H65.2578V0.258301H67.5148V5.37055L67.4538 7.23502Z" fill="white"/>
<path d="M79.959 11.6857L79.654 10.6632H79.532C79.288 11.0241 78.922 11.3248 78.495 11.5654C78.068 11.7458 77.519 11.8661 76.97 11.8661C75.994 11.8661 75.262 11.6255 74.774 11.0842C74.286 10.5429 74.042 9.82121 74.042 8.8589V3.50607H76.299V8.3176C76.299 8.91904 76.421 9.34005 76.604 9.64077C76.787 9.94149 77.153 10.0618 77.641 10.0618C78.251 10.0618 78.739 9.88135 79.044 9.46034C79.349 9.03933 79.471 8.37775 79.471 7.3553V3.50607H81.728V11.6857H79.959Z" fill="white"/>
<path d="M87.8279 11.806C86.8519 11.806 86.0589 11.4451 85.5099 10.7835H85.3879C85.4489 11.4451 85.5099 11.8661 85.5099 11.9864V15.2943H83.2529V3.50609H85.0829L85.3879 4.58869H85.5099C86.0589 3.80681 86.8519 3.3858 87.8889 3.3858C88.8649 3.3858 89.6579 3.74667 90.2069 4.52854C90.7559 5.25027 91.0609 6.33287 91.0609 7.65604C91.0609 8.5582 90.9389 9.27993 90.6949 9.94151C90.4509 10.6031 90.0849 11.0843 89.5969 11.4451C88.9869 11.6857 88.4379 11.806 87.8279 11.806ZM87.1569 5.12998C86.6079 5.12998 86.1809 5.31041 85.9369 5.61114C85.6929 5.972 85.5709 6.5133 85.5099 7.29517V7.53575C85.5099 8.43791 85.6319 9.03935 85.9369 9.40022C86.1809 9.76108 86.6079 10.0017 87.2179 10.0017C88.2549 10.0017 88.7429 9.15964 88.7429 7.53575C88.7429 6.75387 88.6209 6.15243 88.3769 5.73142C88.0719 5.31041 87.6449 5.12998 87.1569 5.12998Z" fill="white"/>
</svg>
