<svg width="133" height="22" viewBox="0 0 133 22" fill="none" xmlns="http://www.w3.org/2000/svg">
<g clip-path="url(#clip0_148_15715)">
<path d="M31.2376 5.57474C31.2376 3.8689 31.2376 2.32134 31.2376 0.773779C31.2376 0.50999 31.4148 0.0527555 30.7943 0.228615C29.5356 0.580333 28.2414 0.650677 26.9472 0.685849C26.7345 0.685849 26.4508 0.597919 26.4686 0.98481C26.4686 1.23101 26.5572 1.35411 26.8231 1.3717C27.6564 1.42446 27.8337 2.03997 27.8337 2.67306C27.8514 6.243 27.8514 9.81295 27.8337 13.4005C27.8337 14.1743 27.6032 14.8601 26.7168 15.0887C26.4686 15.1591 26.4686 15.2998 26.4686 15.4756C26.4686 15.7218 26.6636 15.7394 26.8409 15.7218C28.5251 15.6163 30.1916 15.5987 31.8758 15.7218C32.0531 15.7394 32.2481 15.7218 32.2835 15.4932C32.3013 15.2998 32.2658 15.1767 32.0353 15.1063C31.2907 14.8777 31.2198 14.2622 31.2198 13.6291C31.2021 11.6595 31.1844 9.70743 31.1666 7.73781C31.1666 6.34852 31.7871 5.85611 33.1877 6.17266C34.1273 6.38369 34.3755 7.1223 34.3933 7.89608C34.4464 9.83053 34.4287 11.765 34.411 13.6994C34.411 14.3149 34.2337 14.8601 33.56 15.0887C33.3295 15.1591 33.3295 15.3349 33.365 15.5108C33.4004 15.7394 33.6132 15.7394 33.7728 15.7218C34.1273 15.7042 34.4819 15.6691 34.8365 15.6691C36.1129 15.6339 37.3717 15.6163 38.6481 15.7218C38.8431 15.7394 39.0913 15.7746 39.1445 15.4932C39.18 15.3525 39.18 15.1767 38.985 15.1239C37.7085 14.8249 37.8503 13.8225 37.8149 12.8905C37.7617 10.8681 37.9922 8.84572 37.6553 6.84093C37.4426 5.57474 36.5739 4.76579 35.2974 4.55475C33.8437 4.30855 32.4786 4.502 31.2376 5.57474Z" fill="#FCFDFD"/>
<path d="M58.6998 9.1095C57.902 9.1095 57.1042 9.1095 56.3065 9.1095C56.0937 9.1095 55.8101 8.9864 55.7037 9.30295C55.615 9.63708 55.8987 9.67225 56.1114 9.76018C56.7319 9.9888 56.9447 10.446 56.9447 11.0615C56.9447 12.0639 56.9447 13.0488 56.9801 14.0512C56.9979 14.5963 56.7497 14.6667 56.2887 14.6491C54.4804 14.5787 53.2926 13.7346 52.7076 11.9057C51.9452 9.49639 51.9098 7.05195 52.6366 4.64268C53.399 2.1103 55.3491 1.01997 57.9729 1.52997C58.7885 1.68824 59.409 2.03996 59.6217 2.90167C59.6749 3.14787 59.799 3.25339 60.0472 3.25339C60.3663 3.25339 60.3309 3.02477 60.3309 2.81374C60.3309 2.2334 60.3131 1.63548 60.3309 1.05515C60.3486 0.685842 60.2245 0.545154 59.8345 0.509982C58.097 0.316537 56.3596 0.246193 54.6222 0.545154C51.4666 1.09032 49.3568 3.04236 48.7186 6.06714C48.3995 7.54435 48.4172 9.03916 48.6832 10.5164C49.1264 13.0136 50.6688 14.5787 53.0976 15.2646C55.2782 15.8801 57.4765 15.757 59.6749 15.3173C60.189 15.2118 60.2599 14.948 60.2599 14.526C60.2599 13.4181 60.2954 12.2926 60.2954 11.1846C60.2954 10.5164 60.5259 9.97121 61.2173 9.7426C61.4123 9.67225 61.625 9.61949 61.5719 9.33812C61.5187 9.03916 61.2705 9.1095 61.0755 9.1095C60.2954 9.09192 59.4976 9.1095 58.6998 9.1095Z" fill="#FCFDFD"/>
<path d="M68.5208 14.5963C68.8753 14.9305 68.3435 15.7042 69.0704 15.5636C70.3645 15.3349 71.641 15.2118 72.9352 15.1943C73.1479 15.1943 73.272 15.1063 73.272 14.8777C73.272 14.7194 73.2543 14.5787 73.0593 14.5436C71.8715 14.3325 71.9779 13.4181 71.9779 12.5564C71.9779 10.0592 71.9956 7.57954 71.9956 5.08234C71.9956 4.80097 72.2438 4.23822 71.5878 4.36132C70.2759 4.62511 68.964 4.74821 67.6343 4.73062C67.4393 4.73062 67.2798 4.7658 67.262 4.99441C67.2443 5.17027 67.2443 5.34613 67.4925 5.39889C68.574 5.57475 68.6094 6.3837 68.6094 7.19265C68.6271 8.95125 68.6094 10.7098 68.6094 12.4684C68.6094 13.7698 68.0776 14.1919 66.7656 13.9632C65.8969 13.805 65.4537 13.3126 65.436 12.2574C65.4005 9.84813 65.4183 7.45644 65.4005 5.04717C65.4005 4.74821 65.6133 4.22063 64.9751 4.34373C63.6631 4.60752 62.3512 4.73062 61.0216 4.7658C60.8266 4.7658 60.667 4.81855 60.667 5.04717C60.667 5.22303 60.6315 5.43406 60.862 5.48682C62.1385 5.69785 61.9612 6.68266 61.9789 7.54437C62.0144 9.30297 61.9257 11.0616 62.0676 12.8202C62.2094 14.4732 63.2376 15.4932 64.9041 15.6163C66.2692 15.757 67.5102 15.546 68.5208 14.5963Z" fill="#FCFDFD"/>
<path d="M22.0542 7.75541C22.0542 6.11992 22.0365 4.46684 22.0542 2.83135C22.0719 1.40689 21.806 1.60033 23.3307 1.60033C24.3944 1.60033 25.4758 1.65309 25.6531 3.05996C25.6886 3.271 25.8127 3.35893 26.0077 3.35893C26.3268 3.35893 26.3091 3.14789 26.3091 2.93686C26.2913 2.40929 26.2381 1.88171 26.2913 1.35413C26.3445 0.738622 26.1318 0.580348 25.5113 0.580348C22.5329 0.61552 19.5545 0.580348 16.5583 0.597934C15.8492 0.597934 14.9096 0.281388 14.5195 0.738622C14.165 1.16068 14.3954 2.07515 14.3777 2.77859C14.3777 2.98962 14.2182 3.271 14.5905 3.34134C14.945 3.41168 15.0337 3.18307 15.0869 2.88411C15.1932 2.1455 15.6896 1.75861 16.4165 1.68826C17.0015 1.61792 17.5866 1.6355 18.1716 1.58275C18.5971 1.54757 18.6503 1.75861 18.6503 2.11032C18.6503 5.80337 18.6503 9.49642 18.6326 13.1895C18.6326 14.0863 18.2957 14.8074 17.2497 14.9129C17.037 14.9305 16.842 14.9305 16.8597 15.247C16.8774 15.546 17.0547 15.546 17.2852 15.5284C19.324 15.4229 21.3628 15.4405 23.3838 15.5284C23.632 15.546 23.7916 15.5284 23.8093 15.247C23.8271 15.0184 23.703 14.9832 23.5079 14.9129C22.1428 14.4556 22.0365 14.315 22.0365 12.8553C22.0542 11.1495 22.0542 9.46124 22.0542 7.75541Z" fill="#FCFDFD"/>
<path d="M107.081 3.65788C107.276 3.6403 107.453 3.65788 107.63 3.62271C108.535 3.48202 109.031 2.97203 108.995 2.18066C108.96 1.33654 108.481 0.949648 107.666 0.808961C107.187 0.721031 106.726 0.756203 106.265 0.861719C105.343 1.07275 104.9 2.14549 105.397 2.93686C105.787 3.58754 106.443 3.6403 107.081 3.65788Z" fill="#FCFDFD"/>
<path d="M120.235 14.948C121.299 14.737 121.636 14.3853 121.689 13.4005C121.778 11.1495 121.76 8.89847 121.707 6.64747C121.689 6.01438 121.459 5.55714 120.803 5.43404C120.572 5.38128 120.43 5.31094 120.448 5.04715C120.466 4.69543 120.732 4.7306 120.962 4.7306C122.15 4.74819 123.32 4.6075 124.472 4.37888C125.412 4.20302 124.916 4.95922 125.146 5.38128C125.82 4.7306 126.653 4.37888 127.593 4.27337C129.49 4.04475 131.617 4.74819 131.67 7.36849C131.706 9.39087 131.741 11.3957 131.759 13.4181C131.777 14.2798 132.149 14.8073 133.035 14.9129C133.035 15.1415 133.035 15.3877 133.035 15.6163C131.369 15.2646 129.685 15.5108 128.018 15.458C127.788 15.458 127.451 15.6866 127.309 15.3349C127.132 14.9304 127.522 14.8777 127.77 14.737C128.16 14.4908 128.266 14.1039 128.302 13.6818C128.497 11.5539 128.426 9.40846 128.249 7.28056C128.195 6.68264 127.93 6.19023 127.327 6.01438C126.635 5.82093 125.926 5.83852 125.27 6.19023C125.022 6.33092 125.093 6.6123 125.093 6.84091C125.093 8.89847 125.075 10.9384 125.093 12.996C125.111 13.7346 125.075 14.5611 125.997 14.9129C126.174 14.9832 126.139 15.1415 126.121 15.2822C126.086 15.4756 125.926 15.458 125.784 15.458C124.1 15.458 122.416 15.458 120.732 15.4932C120.2 15.5459 120.395 15.1415 120.235 14.948Z" fill="#06AFEE"/>
<path d="M99.4042 14.7018C97.2945 16.6187 92.9864 16.0032 92.4191 11.6946C92.2773 10.5516 92.2773 9.42606 92.5786 8.30056C93.3232 5.45164 95.6102 3.86891 98.5532 4.32614C99.4219 4.46683 99.5992 4.22063 99.4928 3.46443C99.4396 3.05996 99.4219 2.65548 99.4042 2.23342C99.3687 1.67067 99.1205 1.28378 98.5177 1.19585C98.2695 1.16068 98.0391 1.10792 98.0745 0.773787C98.11 0.386896 98.4291 0.527584 98.6241 0.509998C99.8828 0.422068 101.159 0.386896 102.383 0.0351775C103.074 -0.158268 102.843 0.36931 102.843 0.650685C102.843 4.48442 102.826 8.31815 102.808 12.1519C102.808 12.5564 102.826 12.9784 102.861 13.3829C102.914 13.9632 103.889 14.9656 104.368 14.8601C105.095 14.6843 105.361 14.1039 105.396 13.4005C105.467 11.1495 105.467 8.89849 105.396 6.64749C105.379 6.01439 105.148 5.55716 104.492 5.43406C104.244 5.39889 104.12 5.31096 104.138 5.04717C104.155 4.74821 104.368 4.73062 104.581 4.74821C105.822 4.76579 107.063 4.62511 108.268 4.39649C108.889 4.27339 108.765 4.69545 108.765 5.02958C108.765 7.45644 108.765 9.8833 108.765 12.3277C108.765 12.6443 108.8 12.9608 108.818 13.295C108.836 14.0512 109.013 14.7018 109.864 14.9305C110.077 14.9832 110.148 15.1239 110.112 15.3174C110.077 15.5636 109.917 15.546 109.722 15.5284C107.949 15.458 106.141 15.7218 104.421 15.458C102.861 15.2294 101.425 15.3701 99.936 15.5987C99.1382 15.7042 99.7055 14.9656 99.4042 14.7018ZM99.4751 9.86571C99.4751 8.81056 99.4751 7.7554 99.4751 6.70024C99.4751 5.76819 99.1737 5.45164 98.2341 5.36371C97.2944 5.29337 96.6385 5.64509 96.3371 6.59473C95.6812 8.68746 95.6457 10.8154 96.3548 12.8905C96.7271 13.9984 97.7731 14.4029 98.8546 14.0863C99.28 13.9632 99.4928 13.7522 99.4751 13.295C99.4573 12.1519 99.4751 11.0088 99.4751 9.86571Z" fill="#06AFEE"/>
<path d="M31.2377 5.57474C32.4787 4.502 33.8261 4.30855 35.2798 4.55475C36.5563 4.76579 37.4073 5.57474 37.6377 6.84093C37.9746 8.84572 37.7441 10.8681 37.7973 12.8905C37.815 13.8225 37.6909 14.8249 38.9674 15.1239C39.1447 15.1591 39.1447 15.3525 39.1269 15.4932C39.0738 15.7746 38.8433 15.7394 38.6305 15.7218C37.3718 15.6163 36.0953 15.6339 34.8189 15.6691C34.4643 15.6691 34.1097 15.7042 33.7552 15.7218C33.5779 15.7218 33.3829 15.7394 33.3474 15.5108C33.3297 15.3349 33.312 15.1591 33.5424 15.0887C34.2161 14.8601 34.3934 14.2974 34.3934 13.6994C34.4111 11.765 34.4111 9.83053 34.3757 7.89608C34.3579 7.10471 34.1097 6.38369 33.1701 6.17266C31.7696 5.85611 31.1491 6.33093 31.1491 7.73781C31.1668 9.70743 31.1845 11.6595 31.2023 13.6291C31.2023 14.2798 31.2909 14.8777 32.0178 15.1063C32.2482 15.1767 32.2837 15.3173 32.266 15.4932C32.2305 15.7394 32.0355 15.7394 31.8582 15.7218C30.174 15.5987 28.5075 15.6163 26.8233 15.7218C26.646 15.7394 26.451 15.7218 26.451 15.4756C26.451 15.2998 26.451 15.1591 26.6992 15.0887C27.5679 14.8601 27.7984 14.1567 27.8161 13.4005C27.8338 9.83053 27.8515 6.26059 27.8161 2.67306C27.8161 2.03997 27.6388 1.42446 26.8056 1.3717C26.5396 1.35411 26.451 1.23101 26.451 0.98481C26.4333 0.597919 26.7169 0.685849 26.9297 0.685849C28.2238 0.650677 29.518 0.580333 30.7768 0.228615C31.3973 0.0527555 31.22 0.50999 31.22 0.773779C31.2554 2.32134 31.2377 3.8689 31.2377 5.57474Z" fill="white"/>
<path d="M58.6997 9.1095C59.4975 9.1095 60.2952 9.1095 61.093 9.1095C61.288 9.1095 61.5362 9.03916 61.5894 9.33812C61.6426 9.6195 61.4299 9.67225 61.2349 9.7426C60.5434 9.9888 60.3307 10.5164 60.313 11.1846C60.2952 12.2926 60.2775 13.4181 60.2775 14.526C60.2775 14.948 60.2066 15.2118 59.6925 15.3173C57.4941 15.7394 55.2958 15.8801 53.1152 15.2646C50.6863 14.5787 49.144 13.0136 48.7007 10.5164C48.4348 9.03916 48.4171 7.54436 48.7362 6.06714C49.3922 3.02477 51.4841 1.07273 54.6398 0.545155C56.3772 0.246194 58.1146 0.334124 59.852 0.509983C60.2243 0.545155 60.3662 0.685843 60.3484 1.05515C60.3307 1.63548 60.3484 2.2334 60.3484 2.81374C60.3484 3.02477 60.3662 3.2358 60.0648 3.25339C59.8166 3.25339 59.7102 3.14787 59.6393 2.90167C59.4443 2.03996 58.8238 1.68824 57.9905 1.52997C55.3667 1.01998 53.4165 2.1103 52.6542 4.66026C51.9273 7.06954 51.9628 9.53157 52.7251 11.9233C53.3102 13.7522 54.498 14.5787 56.3063 14.6667C56.7673 14.6842 57.0332 14.6139 56.9977 14.0687C56.9623 13.0663 56.9623 12.0815 56.9623 11.0791C56.9623 10.4636 56.7318 10.0064 56.129 9.77777C55.9163 9.70743 55.6326 9.65467 55.7213 9.32054C55.8099 8.9864 56.1113 9.12709 56.324 9.12709C57.1041 9.09192 57.9019 9.1095 58.6997 9.1095Z" fill="#06AFEE"/>
<path d="M68.5206 14.5963C67.5101 15.546 66.2691 15.757 64.9217 15.6515C63.2552 15.5284 62.227 14.5084 62.0851 12.8553C61.9256 11.0967 62.032 9.33812 61.9965 7.57953C61.9788 6.71782 62.1561 5.73301 60.8796 5.52197C60.6491 5.4868 60.6846 5.25819 60.6846 5.08233C60.6846 4.85371 60.8441 4.80095 61.0392 4.80095C62.3688 4.76578 63.6807 4.64268 64.9926 4.37889C65.6309 4.25579 65.4181 4.78337 65.4181 5.08233C65.4358 7.4916 65.4181 9.88329 65.4536 12.2926C65.4713 13.3477 65.9145 13.8401 66.7832 13.9984C68.0951 14.227 68.627 13.8049 68.627 12.5036C68.627 10.745 68.627 8.9864 68.627 7.22781C68.627 6.41886 68.5738 5.59232 67.5101 5.43405C67.2619 5.39887 67.2619 5.22301 67.2796 5.02957C67.2974 4.80095 67.4746 4.76578 67.6519 4.76578C68.9816 4.76578 70.2935 4.64268 71.6054 4.39648C72.2436 4.27337 72.0132 4.83612 72.0132 5.1175C72.0309 7.6147 72.0132 10.0943 71.9954 12.5915C71.9954 13.4356 71.8891 14.3501 73.0769 14.5787C73.2542 14.6139 73.2896 14.7546 73.2896 14.9129C73.2896 15.1239 73.1655 15.2294 72.9528 15.2294C71.6586 15.247 70.3644 15.3701 69.0879 15.5987C68.3611 15.7042 68.8752 14.9304 68.5206 14.5963Z" fill="#06AFEE"/>
<path d="M83.5553 14.9305C82.793 15.1415 82.1547 15.7042 81.286 15.6866C80.1337 15.6515 79.6727 15.458 79.0168 14.4205C78.219 15.2998 77.2262 15.7218 76.0206 15.6691C74.4783 15.5987 73.4677 14.7546 73.2727 13.3301C73.0068 11.5012 73.7514 10.1647 75.2938 9.70743C76.2334 9.42605 77.2262 9.40847 78.1835 9.40847C78.7331 9.40847 79.0168 9.30295 78.9281 8.68745C78.8927 8.45883 78.9281 8.21263 78.9281 7.98401C78.9104 7.15747 78.7686 6.3661 77.8999 6.01438C76.978 5.64508 76.1093 5.80335 75.3647 6.50679C75.1342 6.73541 74.9747 7.1223 74.5314 6.73541C74.0528 6.33093 74.4251 6.04956 74.6378 5.78577C75.9143 4.15027 79.3891 3.72821 81.0378 4.97681C82.0484 5.73301 82.2257 6.82334 82.2257 7.96642C82.2257 9.42605 82.1725 10.8857 82.1547 12.3629C82.137 13.717 82.1725 13.7346 83.5021 13.7874C83.8567 13.805 83.9276 14.016 83.839 14.3149C83.7858 14.526 83.3957 14.6139 83.5553 14.9305ZM78.9281 12.0464C78.9281 11.7298 78.8927 11.3957 78.9281 11.0791C79.0522 10.3229 78.6445 10.2702 78.0594 10.3581C77.3503 10.4636 76.8184 10.7978 76.6589 11.5012C76.4816 12.2398 76.4107 13.0312 76.9957 13.6467C77.4035 14.0687 77.9176 14.0512 78.4672 13.8929C79.0345 13.7346 78.9281 13.3125 78.9281 12.9081C78.9459 12.6267 78.9281 12.3277 78.9281 12.0464Z" fill="#06AFEE"/>
<path d="M120.253 14.9304C119.633 15.1591 119.119 15.6163 118.392 15.6515C117.293 15.7218 116.318 15.5635 115.786 14.3853C114.988 15.3173 114.013 15.7042 112.861 15.6515C111.212 15.5987 110.237 14.7194 110.006 13.1015C109.794 11.5188 110.574 10.1647 112.01 9.70742C112.949 9.40846 113.924 9.37329 114.899 9.39087C115.591 9.39087 115.786 9.14467 115.715 8.52916C115.679 8.26537 115.715 8.00159 115.697 7.7378C115.662 6.96402 115.484 6.26058 114.669 5.96162C113.765 5.64507 112.932 5.76817 112.222 6.43644C111.956 6.68264 111.779 7.08712 111.3 6.66506C110.804 6.22541 111.265 5.96162 111.46 5.71541C112.737 4.02717 116.389 3.65786 117.984 5.02956C118.729 5.66266 118.995 6.52437 119.012 7.45642C119.012 9.17984 118.995 10.9033 118.995 12.6267C118.995 13.6994 119.137 13.8225 120.218 13.7346C120.732 13.6994 120.732 13.9632 120.59 14.3149C120.502 14.5611 120.236 14.6842 120.253 14.9304C120.236 14.948 120.253 14.9304 120.253 14.9304ZM115.733 12.0288C115.733 11.7122 115.697 11.3781 115.733 11.0615C115.804 10.4109 115.52 10.2526 114.917 10.3405C114.19 10.446 113.623 10.7626 113.428 11.5012C113.215 12.2574 113.197 13.0312 113.765 13.6467C114.173 14.0687 114.704 14.0687 115.254 13.8929C115.804 13.717 115.733 13.3125 115.733 12.9081C115.733 12.6267 115.733 12.3277 115.733 12.0288Z" fill="#06AFEE"/>
<path d="M22.054 7.75541C22.054 9.46124 22.054 11.1495 22.054 12.8553C22.054 14.315 22.1604 14.4732 23.5255 14.9129C23.7205 14.9832 23.8446 15.0184 23.8269 15.247C23.8092 15.5284 23.6496 15.546 23.4014 15.5284C21.3626 15.4405 19.3238 15.4229 17.3028 15.5284C17.0723 15.546 16.895 15.546 16.8773 15.247C16.8596 14.9481 17.0368 14.9305 17.2673 14.9129C18.3133 14.8074 18.6502 14.0863 18.6502 13.1895C18.6679 9.49642 18.6502 5.80337 18.6679 2.11032C18.6679 1.75861 18.6147 1.54757 18.1892 1.58275C17.6042 1.6355 17.0014 1.61792 16.4341 1.68826C15.7249 1.75861 15.2285 2.1455 15.1044 2.88411C15.0512 3.18307 14.9626 3.3941 14.608 3.34134C14.2357 3.271 14.3953 2.98962 14.3953 2.77859C14.413 2.07515 14.1825 1.16068 14.5371 0.738622C14.9094 0.281388 15.8668 0.597934 16.5759 0.597934C19.5543 0.580348 22.5504 0.61552 25.5289 0.580348C26.1494 0.580348 26.3621 0.721036 26.3089 1.35413C26.2557 1.88171 26.3089 2.40929 26.3266 2.93686C26.3266 3.14789 26.3444 3.35893 26.0253 3.35893C25.8125 3.35893 25.6884 3.271 25.6707 3.05996C25.4934 1.65309 24.4119 1.61792 23.3482 1.60033C21.8236 1.60033 22.0895 1.40689 22.0718 2.83135C22.054 4.46684 22.054 6.11992 22.054 7.75541Z" fill="white"/>
<path d="M44.712 9.40849C43.9142 9.40849 43.1164 9.42607 42.3186 9.40849C41.8399 9.3909 41.6981 9.58435 41.7336 10.024C41.8045 10.745 41.8577 11.4836 42.1059 12.1871C42.7264 13.9281 44.3574 14.5963 46.5025 13.9808C46.6444 13.9457 46.7862 13.9105 46.928 13.8401C47.123 13.7522 47.2826 13.6819 47.4599 13.9105C47.6726 14.2094 47.4422 14.3325 47.2826 14.4908C46.5912 15.1239 45.7402 15.4756 44.8361 15.6163C43.9319 15.757 43.01 15.7746 42.1059 15.5987C39.8898 15.1591 38.6133 13.6291 38.3828 11.1847C38.2765 10.0064 38.3828 8.84574 38.7551 7.72024C39.6238 5.04718 42.3009 3.65789 45.0311 4.46684C46.8039 4.99442 48.1513 7.263 47.7967 9.07435C47.7258 9.47883 47.4599 9.40849 47.2117 9.40849C46.3607 9.40849 45.5452 9.40849 44.712 9.40849ZM42.9568 8.28299C44.3928 8.28299 44.3928 8.28299 44.3928 7.52679C44.3928 5.90889 44.0028 5.25821 43.0987 5.25821C42.159 5.27579 41.7513 6.0144 41.7336 7.70265C41.7336 8.86332 42.6377 7.98403 42.9568 8.28299Z" fill="white"/>
<path d="M83.5371 14.948C84.459 14.8425 84.9022 14.2446 84.9199 13.4005C84.9554 11.1143 84.9554 8.82814 84.9199 6.55956C84.9199 5.99681 84.6363 5.53957 83.998 5.43406C83.7498 5.39889 83.608 5.29337 83.6435 5.04717C83.6789 4.76579 83.8739 4.73062 84.0867 4.74821C85.2922 4.76579 86.4978 4.6251 87.6856 4.39649C88.6607 4.22063 88.0224 5.11751 88.4125 5.43406C89.2812 4.57235 90.3272 4.09753 91.6391 4.3789C92.8092 4.6251 92.9687 4.88889 92.4723 5.96164C92.295 6.36611 92.1 6.753 91.9227 7.15748C91.7986 7.40368 91.7809 7.7554 91.4263 7.80816C91.0186 7.86092 91.0009 7.47402 90.859 7.22782C90.4158 6.47163 89.7776 6.10232 88.8734 6.20784C88.5188 6.2606 88.2884 6.36611 88.3061 6.80576C88.3416 9.02159 88.3238 11.255 88.3416 13.4708C88.3416 14.2622 88.7316 14.7194 89.5294 14.8777C89.7598 14.9129 90.1321 14.8425 90.0612 15.2646C90.008 15.6163 89.7067 15.4756 89.4939 15.4756C87.6679 15.4756 85.8418 15.458 84.0158 15.5108C83.3953 15.546 83.5726 15.2118 83.5371 14.948C83.5548 14.9305 83.5371 14.948 83.5371 14.948Z" fill="#06AFEE"/>
<path d="M13.3142 10.2878C13.3142 13.3653 13.2965 16.4428 13.3319 19.5204C13.3319 20.0831 13.2078 20.2766 12.605 20.2766C8.65156 20.259 4.69808 20.259 0.744601 20.2766C0.159557 20.2766 0.0177286 20.1007 0.0177286 19.538C0.0177286 13.3477 0.0177286 7.17506 0 0.984811C0 0.351718 0.230472 0.21103 0.815516 0.228616C4.71581 0.246202 8.6161 0.263788 12.4987 0.228616C13.1901 0.228616 13.3319 0.439647 13.3319 1.07274C13.2965 4.15028 13.3142 7.21023 13.3142 10.2878ZM12.7646 10.3581C12.7646 7.42126 12.7469 4.502 12.7823 1.56515C12.7823 0.914467 12.5873 0.703436 11.9314 0.721022C8.38563 0.756194 4.83991 0.756194 1.29419 0.721022C0.673687 0.721022 0.496401 0.914467 0.496401 1.51239C0.51413 7.35092 0.51413 13.1719 0.496401 19.0104C0.496401 19.5731 0.655958 19.7666 1.241 19.7666C4.82218 19.749 8.38563 19.7314 11.9668 19.7666C12.676 19.7666 12.7823 19.5028 12.7823 18.8873C12.7469 16.056 12.7646 13.207 12.7646 10.3581Z" fill="#06AFEE"/>
<path d="M107.081 3.65787C106.443 3.6227 105.787 3.58753 105.397 2.95444C104.9 2.16307 105.343 1.09033 106.265 0.879296C106.726 0.773781 107.187 0.756195 107.666 0.826538C108.481 0.967226 108.96 1.35412 108.995 2.19824C109.013 2.98961 108.535 3.4996 107.63 3.64029C107.453 3.65787 107.276 3.65787 107.081 3.65787Z" fill="#06AFEE"/>
<path d="M5.51374 8.66987C4.73368 8.01919 4.73368 7.91367 5.53147 7.61471C5.40737 7.35092 4.89324 7.5092 4.91097 7.10472C4.9287 6.73541 5.33646 6.91127 5.51374 6.71783C5.46056 6.34852 4.82233 6.64748 4.87551 6.17266C4.91097 5.7506 5.38964 5.97922 5.53147 5.69785C5.0528 5.3813 4.4323 5.17027 5.46056 4.66027C5.85058 4.46683 5.74421 3.76339 5.40737 3.34133C5.15917 3.0072 4.89324 2.67306 5.08825 2.23342C5.31873 1.70584 5.7974 1.95204 6.18743 1.91687C6.59519 1.8817 7.02067 1.89928 7.42843 1.91687C8.24395 1.93446 8.47442 2.32135 8.10212 3.05996C7.76527 3.72822 7.26887 4.30856 8.2794 4.95924C8.79353 5.27578 7.83619 5.48681 7.9071 5.73302C7.97802 5.96163 8.6517 5.94405 8.26167 6.45404C8.13757 6.61231 7.83619 6.45404 7.72982 6.70024C7.85392 6.96403 8.35032 6.77059 8.33259 7.17506C8.31486 7.52678 7.94256 7.47402 7.74755 7.6323C7.9071 7.86091 8.47442 7.68506 8.29713 8.21263C8.17303 8.58194 8.45669 8.42366 8.58079 8.38849C10.0877 7.86091 11.2224 4.80096 10.46 3.39409C10.4423 3.35892 10.3537 3.35892 10.2473 3.32374C10.1054 3.71063 10.3005 4.41407 9.50268 4.29097C8.93536 4.20304 8.58079 3.92167 8.54533 3.32374C8.49215 2.63789 8.72262 2.11032 9.43176 1.89928C10.3182 1.6355 11.2224 2.11031 11.4528 3.1303C11.9847 5.5044 11.4883 7.77298 9.30766 9.14469C8.93536 9.3733 8.5276 9.49641 8.10212 9.54916C8.1553 9.95364 8.63398 9.74261 8.75808 10.0767C8.97082 10.6395 8.6517 11.255 8.01347 11.2198C7.23342 11.1847 7.1625 11.554 7.21569 12.1871C7.32206 13.4181 7.6589 14.5963 7.9071 15.7922C7.99575 16.1966 8.06666 16.6011 8.10212 17.0056C8.19076 18.0608 7.64117 18.6587 6.64837 18.6763C5.62011 18.6938 5.07053 18.1663 5.12371 17.0759C5.1769 15.8449 5.56693 14.6667 5.7974 13.4532C5.86831 13.0839 5.95696 12.7146 5.99241 12.3277C6.0456 11.6771 6.0456 11.0616 5.08825 11.1495C4.73368 11.1847 4.5564 10.956 4.50321 10.6219C4.4323 10.1823 4.50321 9.79537 5.301 9.63709C3.77634 9.2502 2.83672 8.54677 2.26941 7.38609C1.71982 6.27818 1.54253 5.09992 1.66663 3.88649C1.79073 2.58514 2.55306 1.79377 3.56359 1.8817C4.27274 1.93446 4.73368 2.32135 4.82233 3.0072C4.89324 3.4996 4.75141 3.95684 4.23728 4.16787C3.9359 4.29097 3.56359 4.34373 3.33312 4.06235C2.96082 3.62271 3.40404 3.28857 3.63451 2.91927C3.03174 2.84892 2.87218 3.23581 2.74808 3.60512C2.05666 5.66267 3.31539 8.1247 5.38964 8.7578C5.40737 8.77538 5.46056 8.70504 5.51374 8.66987ZM6.59519 3.88649C6.4179 3.95684 6.25834 4.06235 6.25834 4.30856C6.27607 4.53717 6.40017 4.69545 6.63064 4.69545C6.86112 4.69545 6.98522 4.51959 6.98522 4.29097C6.96749 4.06235 6.86112 3.90408 6.59519 3.88649ZM6.64837 8.38849C6.4179 8.40608 6.25834 8.51159 6.25834 8.7578C6.25834 8.98641 6.40017 9.14469 6.63064 9.14469C6.84339 9.14469 6.94976 9.004 6.96749 8.82814C7.00294 8.58194 6.9143 8.42366 6.64837 8.38849Z" fill="white"/>
<path d="M18.7035 20.3469C18.668 20.6283 18.5794 20.8393 18.3843 20.9976C18.2071 21.1559 17.9589 21.2262 17.6575 21.2262C17.4447 21.2262 17.2674 21.1735 17.1079 21.0855C16.9483 20.98 16.8242 20.8393 16.7356 20.6635C16.6469 20.4876 16.6115 20.2766 16.5938 20.0304V19.7842C16.5938 19.538 16.6292 19.327 16.7179 19.1335C16.8065 18.9401 16.9306 18.7994 17.0902 18.6939C17.2497 18.5883 17.4447 18.5356 17.6575 18.5356C17.9411 18.5356 18.1893 18.6059 18.3666 18.7642C18.5439 18.9225 18.6503 19.1511 18.6857 19.4325H18.2248C18.2071 19.239 18.1539 19.1159 18.0652 19.028C17.9766 18.9401 17.8525 18.9049 17.6752 18.9049C17.4802 18.9049 17.3206 18.9752 17.2143 19.1159C17.1079 19.2566 17.0547 19.4676 17.0547 19.749V19.9776C17.0547 20.259 17.1079 20.47 17.2143 20.6283C17.3206 20.7866 17.4625 20.8569 17.6575 20.8569C17.8348 20.8569 17.9766 20.8218 18.0652 20.7338C18.1539 20.6459 18.2071 20.5228 18.2425 20.3293H18.7035V20.3469Z" fill="white"/>
<path d="M18.9875 20.2062C18.9875 20.0128 19.0229 19.8369 19.0938 19.6963C19.1647 19.538 19.2711 19.4325 19.4129 19.3445C19.5548 19.2566 19.7143 19.2214 19.8916 19.2214C20.1575 19.2214 20.3703 19.3094 20.5298 19.4676C20.6894 19.6435 20.778 19.8545 20.7958 20.1359V20.2414C20.7958 20.4349 20.7603 20.6107 20.6894 20.7514C20.6185 20.9097 20.5121 21.0152 20.3703 21.1031C20.2285 21.1911 20.0689 21.2262 19.8916 21.2262C19.608 21.2262 19.3952 21.1383 19.2179 20.9449C19.0584 20.769 18.9697 20.5228 18.9697 20.2062H18.9875ZM19.4307 20.259C19.4307 20.4524 19.4661 20.6107 19.5548 20.7338C19.6434 20.8393 19.7498 20.9097 19.9093 20.9097C20.0689 20.9097 20.1753 20.8569 20.2639 20.7338C20.3526 20.6107 20.388 20.4525 20.388 20.2238C20.388 20.0304 20.3526 19.8721 20.2639 19.749C20.1753 19.6259 20.0689 19.5732 19.9093 19.5732C19.7675 19.5732 19.6434 19.6259 19.5725 19.749C19.4661 19.8545 19.4307 20.0304 19.4307 20.259Z" fill="white"/>
<path d="M21.5935 19.2566L21.6112 19.4852C21.753 19.3094 21.948 19.2214 22.1785 19.2214C22.5863 19.2214 22.799 19.4501 22.799 19.9249V21.2086H22.3558V19.9425C22.3558 19.8194 22.3203 19.7314 22.2671 19.6611C22.214 19.6083 22.1253 19.5732 22.0012 19.5732C21.8239 19.5732 21.6821 19.6611 21.6112 19.8194V21.2086H21.168V19.2566H21.5935Z" fill="white"/>
<path d="M24.3587 20.6811C24.3587 20.6107 24.3233 20.5404 24.2701 20.5052C24.1992 20.47 24.0928 20.4349 23.951 20.3997C23.8091 20.3645 23.6673 20.3293 23.5787 20.2766C23.3659 20.1711 23.2418 20.0128 23.2418 19.8194C23.2418 19.6435 23.3127 19.5028 23.4546 19.3973C23.5964 19.2918 23.7737 19.2214 24.0041 19.2214C24.2346 19.2214 24.4296 19.2742 24.5715 19.3973C24.7133 19.5204 24.7842 19.6611 24.7842 19.8545H24.341C24.341 19.7666 24.3055 19.6963 24.2523 19.6435C24.1814 19.5907 24.1105 19.5556 24.0041 19.5556C23.9155 19.5556 23.8269 19.5732 23.7737 19.6259C23.7205 19.6787 23.685 19.7314 23.685 19.8018C23.685 19.8721 23.7205 19.9249 23.7737 19.96C23.8269 19.9952 23.951 20.0304 24.1105 20.0656C24.2878 20.1007 24.4119 20.1535 24.5183 20.2062C24.6246 20.259 24.6956 20.3293 24.731 20.3997C24.7842 20.47 24.8019 20.558 24.8019 20.6635C24.8019 20.8393 24.731 20.98 24.5892 21.0855C24.4474 21.1911 24.2523 21.2438 24.0041 21.2438C23.8446 21.2438 23.7028 21.2086 23.5787 21.1559C23.4546 21.1031 23.3482 21.0152 23.2773 20.9097C23.2064 20.8042 23.1709 20.6987 23.1709 20.5756H23.5964C23.5964 20.6811 23.6496 20.7514 23.7205 20.8218C23.7914 20.8745 23.8978 20.9097 24.0041 20.9097C24.1282 20.9097 24.2169 20.8921 24.2701 20.8393C24.341 20.8042 24.3587 20.7514 24.3587 20.6811Z" fill="white"/>
<path d="M25.9899 20.8921C26.0963 20.8921 26.185 20.8569 26.2559 20.8042C26.3268 20.7338 26.3622 20.6635 26.38 20.5755H26.7877C26.7877 20.6986 26.7523 20.8042 26.6814 20.9097C26.6104 21.0152 26.5041 21.1031 26.3977 21.1559C26.2736 21.2086 26.1495 21.2438 26.0077 21.2438C25.724 21.2438 25.5113 21.1559 25.3517 20.98C25.1922 20.8042 25.1035 20.558 25.1035 20.2414V20.1887C25.1035 19.8897 25.1922 19.6611 25.3517 19.4676C25.5113 19.2918 25.724 19.2038 26.0077 19.2038C26.2381 19.2038 26.4332 19.2742 26.575 19.4149C26.7168 19.5556 26.8055 19.7314 26.8055 19.9425H26.3977C26.3977 19.8369 26.3622 19.7314 26.2736 19.6611C26.185 19.5907 26.114 19.5556 25.9899 19.5556C25.8481 19.5556 25.7417 19.6083 25.6531 19.7138C25.5822 19.8194 25.529 19.9776 25.529 20.1887V20.259C25.529 20.47 25.5645 20.6283 25.6531 20.7338C25.7417 20.8393 25.8481 20.8921 25.9899 20.8921Z" fill="white"/>
<path d="M27.125 18.7466C27.125 18.6763 27.1427 18.6235 27.1959 18.5708C27.2491 18.518 27.3023 18.5004 27.3732 18.5004C27.4441 18.5004 27.515 18.518 27.5505 18.5708C27.5859 18.6235 27.6214 18.6763 27.6214 18.7466C27.6214 18.817 27.6037 18.8697 27.5505 18.9049C27.515 18.9576 27.4441 18.9752 27.3732 18.9752C27.3023 18.9752 27.2314 18.9576 27.1959 18.9049C27.1605 18.8697 27.125 18.817 27.125 18.7466ZM27.6037 21.2086H27.1605V19.2566H27.6037V21.2086Z" fill="white"/>
<path d="M28.9504 21.2438C28.6667 21.2438 28.4362 21.1559 28.2767 20.98C28.0994 20.8042 28.0107 20.5756 28.0107 20.2766V20.2238C28.0107 20.0304 28.0462 19.8545 28.1171 19.6963C28.188 19.538 28.2944 19.4325 28.4362 19.3445C28.5781 19.2566 28.7199 19.2214 28.8972 19.2214C29.1631 19.2214 29.3758 19.3094 29.5177 19.4676C29.6595 19.6435 29.7304 19.8721 29.7304 20.1887V20.3645H28.454C28.4717 20.5228 28.5249 20.6459 28.6135 20.7514C28.7022 20.8393 28.8263 20.8921 28.9681 20.8921C29.1631 20.8921 29.3404 20.8042 29.4645 20.6459L29.695 20.8745C29.624 20.9976 29.5177 21.0855 29.3758 21.1383C29.2517 21.2086 29.1099 21.2438 28.9504 21.2438ZM28.8972 19.5732C28.7731 19.5732 28.6844 19.6083 28.5958 19.6963C28.5249 19.7842 28.4717 19.8897 28.454 20.048H29.2872V20.0128C29.2695 19.8721 29.234 19.749 29.1631 19.6787C29.1099 19.6083 29.0213 19.5732 28.8972 19.5732Z" fill="white"/>
<path d="M30.4929 19.2566L30.5106 19.4852C30.6524 19.3094 30.8474 19.2214 31.0779 19.2214C31.4857 19.2214 31.6984 19.4501 31.6984 19.9249V21.2086H31.2552V19.9425C31.2552 19.8194 31.2197 19.7314 31.1666 19.6611C31.1134 19.6083 31.0247 19.5732 30.9006 19.5732C30.7233 19.5732 30.5815 19.6611 30.5106 19.8194V21.2086H30.0674V19.2566H30.4929Z" fill="white"/>
<path d="M32.9577 20.8921C33.0641 20.8921 33.1527 20.8569 33.2236 20.8042C33.2946 20.7338 33.33 20.6635 33.3478 20.5755H33.7555C33.7555 20.6986 33.7201 20.8042 33.6491 20.9097C33.5782 21.0152 33.4718 21.1031 33.3655 21.1559C33.2414 21.2086 33.1173 21.2438 32.9754 21.2438C32.6918 21.2438 32.479 21.1559 32.3195 20.98C32.1599 20.8042 32.0713 20.558 32.0713 20.2414V20.1887C32.0713 19.8897 32.1599 19.6611 32.3195 19.4676C32.479 19.2918 32.6918 19.2038 32.9754 19.2038C33.2059 19.2038 33.4009 19.2742 33.5428 19.4149C33.6846 19.5556 33.7732 19.7314 33.7732 19.9425H33.3655C33.3655 19.8369 33.33 19.7314 33.2414 19.6611C33.1527 19.5907 33.0818 19.5556 32.9577 19.5556C32.8159 19.5556 32.7095 19.6083 32.6209 19.7138C32.55 19.8194 32.4968 19.9776 32.4968 20.1887V20.259C32.4968 20.47 32.5322 20.6283 32.6209 20.7338C32.7095 20.8393 32.8159 20.8921 32.9577 20.8921Z" fill="white"/>
<path d="M34.9601 21.2438C34.6765 21.2438 34.446 21.1559 34.2864 20.98C34.1092 20.8042 34.0205 20.5756 34.0205 20.2766V20.2238C34.0205 20.0304 34.056 19.8545 34.1269 19.6963C34.1978 19.538 34.3042 19.4325 34.446 19.3445C34.5878 19.2566 34.7297 19.2214 34.9069 19.2214C35.1729 19.2214 35.3856 19.3094 35.5274 19.4676C35.6693 19.6435 35.7402 19.8721 35.7402 20.1887V20.3645H34.4637C34.4815 20.5228 34.5346 20.6459 34.6233 20.7514C34.7119 20.8393 34.836 20.8921 34.9779 20.8921C35.1729 20.8921 35.3502 20.8042 35.4743 20.6459L35.7047 20.8745C35.6338 20.9976 35.5274 21.0855 35.3856 21.1383C35.2792 21.2086 35.1197 21.2438 34.9601 21.2438ZM34.9069 19.5732C34.7828 19.5732 34.6942 19.6083 34.6056 19.6963C34.5346 19.7842 34.4815 19.8897 34.4637 20.048H35.297V20.0128C35.2792 19.8721 35.2438 19.749 35.1729 19.6787C35.1374 19.6083 35.031 19.5732 34.9069 19.5732Z" fill="white"/>
<path d="M36.166 21.8066L35.9355 21.6659C36.0065 21.5604 36.0596 21.4548 36.0774 21.3845C36.0951 21.2966 36.1128 21.2262 36.1128 21.1383V20.8042H36.5029V21.1207C36.5029 21.2438 36.4674 21.3845 36.4142 21.5076C36.3433 21.6131 36.2547 21.7186 36.166 21.8066Z" fill="white"/>
<path d="M39.9779 21.2086H39.5169L38.3291 19.3445V21.2086H37.8682V18.5883H38.3291L39.5169 20.4524V18.5883H39.9779V21.2086Z" fill="white"/>
<path d="M41.68 21.0152C41.5559 21.1735 41.3609 21.2438 41.1304 21.2438C40.9177 21.2438 40.7581 21.1735 40.6517 21.0504C40.5454 20.9273 40.4922 20.7514 40.4922 20.5052V19.239H40.9354V20.5052C40.9354 20.7514 41.0418 20.8745 41.2545 20.8745C41.4673 20.8745 41.6091 20.8042 41.6977 20.6459V19.239H42.1409V21.1911H41.7332L41.68 21.0152Z" fill="white"/>
<path d="M43.5771 19.6611C43.5239 19.6435 43.453 19.6435 43.3998 19.6435C43.2048 19.6435 43.063 19.7138 42.992 19.8721V21.2086H42.5488V19.2566H42.9743L42.992 19.4676C43.0984 19.2918 43.2402 19.2214 43.4353 19.2214C43.5062 19.2214 43.5416 19.2214 43.5948 19.239L43.5771 19.6611Z" fill="white"/>
<path d="M44.4985 18.7818V19.2566H44.8531V19.5731H44.4985V20.6635C44.4985 20.7338 44.5162 20.7866 44.5517 20.8217C44.5872 20.8569 44.6403 20.8745 44.7112 20.8745C44.7644 20.8745 44.8176 20.8745 44.8708 20.8569V21.191C44.7644 21.2262 44.6758 21.2262 44.5872 21.2262C44.2503 21.2262 44.073 21.0328 44.073 20.6635V19.5556H43.7539V19.239H44.073V18.7642H44.4985V18.7818Z" fill="white"/>
<path d="M46.3782 21.0152C46.2541 21.1735 46.0591 21.2438 45.8287 21.2438C45.6159 21.2438 45.4564 21.1735 45.35 21.0504C45.2436 20.9273 45.1904 20.7514 45.1904 20.5052V19.239H45.6336V20.5052C45.6336 20.7514 45.74 20.8745 45.9528 20.8745C46.1655 20.8745 46.3073 20.8042 46.396 20.6459V19.239H46.8392V21.1911H46.4314L46.3782 21.0152Z" fill="white"/>
<path d="M48.2929 19.6611C48.2397 19.6435 48.1688 19.6435 48.1156 19.6435C47.9206 19.6435 47.7788 19.7138 47.7079 19.8721V21.2086H47.2646V19.2566H47.6901L47.7079 19.4676C47.8142 19.2918 47.9561 19.2214 48.1511 19.2214C48.222 19.2214 48.2574 19.2214 48.3106 19.239L48.2929 19.6611Z" fill="white"/>
<path d="M49.3918 21.2438C49.1081 21.2438 48.8776 21.1559 48.7181 20.98C48.5408 20.8042 48.4521 20.5756 48.4521 20.2766V20.2238C48.4521 20.0304 48.4876 19.8545 48.5585 19.6963C48.6294 19.538 48.7358 19.4325 48.8776 19.3445C49.0195 19.2566 49.1613 19.2214 49.3386 19.2214C49.6045 19.2214 49.8173 19.3094 49.9591 19.4676C50.1009 19.6435 50.1718 19.8721 50.1718 20.1887V20.3645H48.8954C48.9131 20.5228 48.9663 20.6459 49.0549 20.7514C49.1436 20.8393 49.2677 20.8921 49.4095 20.8921C49.6045 20.8921 49.7818 20.8042 49.9059 20.6459L50.1364 20.8745C50.0655 20.9976 49.9591 21.0855 49.8173 21.1383C49.7109 21.2086 49.5691 21.2438 49.3918 21.2438ZM49.3563 19.5732C49.2322 19.5732 49.1436 19.6083 49.0549 19.6963C48.984 19.7842 48.9308 19.8897 48.9131 20.048H49.7463V20.0128C49.7286 19.8721 49.6932 19.749 49.6222 19.6787C49.5691 19.6083 49.4627 19.5732 49.3563 19.5732Z" fill="white"/>
<path d="M50.4551 20.2238C50.4551 19.9249 50.526 19.6787 50.6678 19.5028C50.8096 19.327 51.0047 19.2214 51.2351 19.2214C51.4479 19.2214 51.6074 19.2918 51.7493 19.4325V18.4301H52.1925V21.2086H51.767L51.7493 21.0152C51.6252 21.1735 51.4479 21.2614 51.2174 21.2614C50.9869 21.2614 50.7919 21.1735 50.6501 20.98C50.526 20.7866 50.4551 20.5404 50.4551 20.2238ZM50.8983 20.259C50.8983 20.4525 50.9337 20.6107 51.0224 20.7162C51.0933 20.8218 51.2174 20.8745 51.3592 20.8745C51.5365 20.8745 51.6783 20.7866 51.7493 20.6283V19.8018C51.6606 19.6435 51.5365 19.5732 51.3592 19.5732C51.2174 19.5732 51.111 19.6259 51.0224 19.749C50.9337 19.8545 50.8983 20.0304 50.8983 20.259Z" fill="white"/>
<path d="M55.295 20.259C55.295 20.558 55.2241 20.8042 55.0823 20.98C54.9404 21.1559 54.7632 21.2438 54.515 21.2438C54.2845 21.2438 54.1072 21.1559 53.9831 20.9976L53.9654 21.2086H53.5576V18.4301H54.0008V19.4325C54.1249 19.2918 54.3022 19.2038 54.515 19.2038C54.7632 19.2038 54.9404 19.2918 55.0823 19.4676C55.2241 19.6435 55.295 19.8897 55.295 20.2062V20.259ZM54.8518 20.2062C54.8518 19.9952 54.8163 19.8369 54.7454 19.7314C54.6745 19.6259 54.5681 19.5732 54.4263 19.5732C54.2313 19.5732 54.1072 19.6611 54.0186 19.8194V20.6283C54.0895 20.8042 54.2313 20.8745 54.4263 20.8745C54.5681 20.8745 54.6745 20.8218 54.7454 20.7162C54.8163 20.6107 54.8518 20.4525 54.8695 20.259V20.2062H54.8518Z" fill="white"/>
<path d="M56.3236 20.5756L56.7314 19.2566H57.2101L56.43 21.5076C56.3059 21.8417 56.1109 22 55.8272 22C55.7563 22 55.6854 21.9824 55.6145 21.9648V21.6307H55.7031C55.8095 21.6307 55.8981 21.6131 55.9513 21.5779C56.0045 21.5428 56.0577 21.4724 56.0932 21.3669L56.1641 21.1911L55.4727 19.2566H55.9513L56.3236 20.5756Z" fill="white"/>
<path d="M60.224 18.9576H59.3907V21.2086H58.9298V18.9576H58.1143V18.5883H60.2062V18.9576H60.224Z" fill="white"/>
<path d="M61.4472 19.6611C61.394 19.6435 61.3231 19.6435 61.2699 19.6435C61.0749 19.6435 60.9331 19.7138 60.8622 19.8721V21.2086H60.4189V19.2566H60.8444L60.8622 19.4676C60.9685 19.2918 61.1104 19.2214 61.3054 19.2214C61.3763 19.2214 61.4118 19.2214 61.4649 19.239L61.4472 19.6611Z" fill="white"/>
<path d="M62.9007 21.0152C62.7766 21.1735 62.5816 21.2438 62.3511 21.2438C62.1384 21.2438 61.9788 21.1735 61.8724 21.0504C61.7661 20.9273 61.7129 20.7514 61.7129 20.5052V19.239H62.1561V20.5052C62.1561 20.7514 62.2625 20.8745 62.4752 20.8745C62.688 20.8745 62.8298 20.8042 62.9184 20.6459V19.239H63.3616V21.1911H62.9539L62.9007 21.0152Z" fill="white"/>
<path d="M64.3364 18.7818V19.2566H64.691V19.5731H64.3364V20.6635C64.3364 20.7338 64.3541 20.7866 64.3896 20.8217C64.425 20.8569 64.4782 20.8745 64.5491 20.8745C64.6023 20.8745 64.6555 20.8745 64.7087 20.8569V21.191C64.6023 21.2262 64.5137 21.2262 64.425 21.2262C64.0882 21.2262 63.9109 21.0328 63.9109 20.6635V19.5556H63.5918V19.239H63.9109V18.7642H64.3364V18.7818Z" fill="white"/>
<path d="M65.454 19.4676C65.5958 19.3094 65.7731 19.2214 66.0035 19.2214C66.429 19.2214 66.6418 19.4676 66.6418 19.9249V21.2086H66.1986V19.9425C66.1986 19.8018 66.1631 19.7138 66.1099 19.6611C66.0567 19.6083 65.9681 19.5731 65.844 19.5731C65.6667 19.5731 65.5426 19.6435 65.454 19.8018V21.1911H65.0107V18.4125H65.454V19.4676Z" fill="white"/>
</g>
<defs>
<clipPath id="clip0_148_15715">
<rect width="133" height="22" fill="white"/>
</clipPath>
</defs>
</svg>
