<svg width="111" height="18" viewBox="0 0 111 18" fill="none" xmlns="http://www.w3.org/2000/svg">
<path d="M35.5971 9.00002C35.587 9.67533 35.4675 10.3443 35.2433 10.98C35.0302 11.6419 34.6666 12.2432 34.1819 12.735C33.6758 13.2649 33.0756 13.6925 32.413 13.995C31.5857 14.3397 30.6977 14.5082 29.8038 14.49H25.3815C25.0277 14.49 24.6297 14.535 24.2759 14.535C24.2759 14.49 24.2317 14.4 24.2317 14.355V14.22C24.2317 14.085 24.2317 14.04 24.2759 13.995C24.3202 13.95 24.3202 13.95 24.4086 13.95C24.6691 13.9149 24.9227 13.839 25.1604 13.725C25.2559 13.6852 25.337 13.6162 25.3924 13.5275C25.4479 13.4389 25.4749 13.335 25.47 13.23V4.68002C25.4809 4.58484 25.466 4.48845 25.4271 4.40122C25.3881 4.314 25.3265 4.23924 25.2489 4.18502C24.984 4.06031 24.6995 3.98414 24.4086 3.96002C24.2759 3.96002 24.2759 3.91502 24.2317 3.87002C24.2127 3.79597 24.1979 3.72084 24.1875 3.64502V3.51002C24.1875 3.42002 24.1875 3.37502 24.2317 3.33002C24.4528 3.33002 24.6297 3.37502 24.8951 3.37502H29.7596C30.6005 3.38159 31.4355 3.51815 32.2361 3.78002C32.8961 4.06722 33.4964 4.47955 34.005 4.99502C34.4882 5.49645 34.8646 6.0939 35.1106 6.75002C35.4307 7.4554 35.5967 8.22305 35.5971 9.00002ZM33.2975 9.36002C33.2971 8.58427 33.1929 7.81218 32.9879 7.06502C32.8289 6.47226 32.5246 5.93031 32.1034 5.49002C31.7138 5.07342 31.227 4.76383 30.6883 4.59002C30.0587 4.38704 29.4029 4.28087 28.7425 4.27502H27.6811V12.96C27.674 13.067 27.6891 13.1743 27.7253 13.275L27.9022 13.455C28.039 13.4863 28.1724 13.5315 28.3002 13.59C28.4771 13.59 28.6983 13.635 29.0078 13.635C30.423 13.635 31.5285 13.275 32.1919 12.51C32.9437 11.7765 33.2975 10.6965 33.2975 9.34652V9.36002Z" fill="white"/>
<path d="M42.0096 10.8H38.5204L37.636 13.14C37.6008 13.1928 37.5851 13.2566 37.5917 13.32V13.5C37.5887 13.5642 37.6037 13.628 37.635 13.6838C37.6664 13.7396 37.7127 13.7851 37.7686 13.815C37.9896 13.9244 38.2306 13.9857 38.4762 13.995C38.6531 13.995 38.6973 14.13 38.6973 14.31C38.699 14.4167 38.684 14.523 38.6531 14.625C38.3435 14.625 38.0782 14.58 37.7244 14.58H35.9997C35.7786 14.58 35.469 14.625 35.1595 14.625C35.1595 14.58 35.1152 14.49 35.1152 14.445V14.31C35.1152 14.085 35.1595 13.995 35.3363 13.95C35.5982 13.9217 35.8529 13.8455 36.0881 13.725C36.1765 13.6944 36.2556 13.641 36.3176 13.57C36.3796 13.499 36.4224 13.4129 36.4419 13.32L40.4662 3.64502C40.5989 3.46502 40.6873 3.33002 40.8642 3.33002H41.218L45.2865 13.41C45.3075 13.4972 45.3516 13.5769 45.4139 13.6404C45.4763 13.7039 45.5546 13.7487 45.6403 13.77C45.8172 13.815 46.0383 13.905 46.2152 13.95C46.3921 13.995 46.4363 14.085 46.4363 14.31C46.4435 14.417 46.4284 14.5243 46.3921 14.625C46.0383 14.625 45.6846 14.58 45.3308 14.58H41.8371C41.8371 14.535 41.7929 14.445 41.7929 14.4V14.265C41.7929 14.13 41.7929 14.085 41.8371 14.04L41.9698 13.905C42.1964 13.8684 42.4187 13.8081 42.6332 13.725C42.6973 13.7019 42.753 13.6593 42.7925 13.603C42.8321 13.5466 42.8536 13.4793 42.8543 13.41C42.8543 13.365 42.8543 13.23 42.8101 13.185L42.0096 10.8ZM41.6558 9.99002L40.2407 6.16502L38.7813 9.99002H41.6558Z" fill="white"/>
<path d="M50.5003 13.3065V13.6215C50.5065 13.6602 50.5218 13.6967 50.5449 13.7281C50.568 13.7594 50.5982 13.7846 50.6329 13.8015C50.7179 13.8813 50.8272 13.929 50.9425 13.9365C51.123 13.9655 51.3006 14.0107 51.4732 14.0715C51.6059 14.0715 51.6501 14.2065 51.6501 14.3865V14.7465C51.2963 14.7465 50.9425 14.7015 50.5445 14.7015H48.4218C48.0238 14.7015 47.67 14.7465 47.3162 14.7465C47.3162 14.7015 47.272 14.6115 47.272 14.5665V14.4C47.272 14.22 47.3162 14.085 47.4489 14.085C47.6322 14.0724 47.8119 14.0267 47.9796 13.95C48.1122 13.86 48.2007 13.905 48.2891 13.815C48.3776 13.725 48.4218 13.68 48.4218 13.635C48.443 13.5311 48.4578 13.4258 48.466 13.32V4.80151C48.4731 4.69452 48.4581 4.5872 48.4218 4.48651C48.4156 4.44785 48.4003 4.41129 48.3772 4.37995C48.3541 4.3486 48.3239 4.32341 48.2891 4.30651C48.2042 4.22673 48.0949 4.17907 47.9796 4.17151C47.7991 4.14253 47.6215 4.09736 47.4489 4.03651C47.3162 3.99151 47.272 3.90151 47.272 3.72151V3.54151C47.2654 3.47808 47.281 3.41431 47.3162 3.36151C47.67 3.36151 48.0238 3.40651 48.4218 3.40651H50.5445C50.9425 3.40651 51.2963 3.36151 51.6501 3.36151V3.72151C51.6582 3.78644 51.6453 3.85229 51.6134 3.90912C51.5815 3.96594 51.5323 4.01066 51.4732 4.03651C51.3405 4.08151 51.1636 4.08151 51.0752 4.17151C50.9867 4.26151 50.8541 4.21651 50.7656 4.30651C50.6772 4.39651 50.6329 4.44151 50.6329 4.48651V4.80151L50.5003 13.3065Z" fill="white"/>
<path d="M56.5145 13.1265C56.5145 13.3515 56.6914 13.5315 57.001 13.6215C57.4828 13.7087 57.971 13.7539 58.4604 13.7565H59.1237C59.3677 13.791 59.6161 13.7436 59.8313 13.6215C60.0305 13.5615 60.2125 13.4534 60.362 13.3065C60.5319 13.1584 60.6678 12.974 60.76 12.7665C60.8937 12.4885 61.0118 12.2031 61.1137 11.9115C61.158 11.7765 61.2464 11.7765 61.3349 11.7765C61.3972 11.7698 61.4599 11.7857 61.5118 11.8215C61.556 11.8665 61.6887 11.8665 61.7329 11.9565C61.6087 12.3503 61.5344 12.7586 61.5118 13.1715C61.4675 13.5765 61.3791 14.0265 61.3349 14.4315C61.3349 14.5665 61.2906 14.6565 61.2022 14.6565C61.1503 14.6923 61.0876 14.7082 61.0253 14.7015H54.1707C53.7727 14.7015 53.4189 14.7465 53.0651 14.7465C53.0651 14.7015 53.0209 14.6115 53.0209 14.5665V14.4C53.0128 14.3351 53.0257 14.2692 53.0576 14.2124C53.0895 14.1556 53.1387 14.1108 53.1978 14.085C53.4987 14.0375 53.7948 13.9622 54.0823 13.86C54.1835 13.8288 54.2704 13.7617 54.3272 13.6709C54.384 13.5801 54.407 13.4715 54.3918 13.365V4.94999C54.399 4.843 54.3839 4.73568 54.3476 4.63499C54.3414 4.59633 54.3261 4.55977 54.303 4.52843C54.2799 4.49708 54.2497 4.47189 54.2149 4.45499C54.13 4.37521 54.0207 4.32755 53.9054 4.31999C53.7249 4.29102 53.5473 4.24584 53.3747 4.18499C53.242 4.13999 53.1536 4.09499 53.1536 3.91499V3.73499C53.147 3.67156 53.1626 3.60779 53.1978 3.55499C53.5516 3.55499 53.9054 3.59999 54.3034 3.59999H57.2221C57.4148 3.60922 57.6079 3.5941 57.797 3.55499V3.91499C57.8051 3.97992 57.7923 4.04577 57.7603 4.1026C57.7284 4.15942 57.6792 4.20414 57.6201 4.22999C57.3143 4.19986 57.0066 4.26249 56.7357 4.40999C56.6613 4.46732 56.6021 4.5426 56.5635 4.62902C56.5249 4.71544 56.5081 4.81029 56.5145 4.90499V13.1265Z" fill="white"/>
<path d="M64.829 9.97652L62.1756 4.80152C62.061 4.59438 61.8927 4.42318 61.6891 4.30652C61.4795 4.16811 61.2305 4.10476 60.9816 4.12652C60.8489 4.12652 60.8047 3.99152 60.8047 3.76652V3.49652C61.0258 3.49652 61.3354 3.54152 61.7334 3.54152H64.829C64.9924 3.55104 65.1564 3.53587 65.3154 3.49652C65.3207 3.57313 65.3356 3.64875 65.3597 3.72152V3.85652C65.3597 4.03652 65.3154 4.17152 65.1828 4.17152C64.8732 4.21652 64.6963 4.21652 64.6079 4.30652C64.5576 4.31783 64.5126 4.34632 64.4804 4.38725C64.4482 4.42819 64.4308 4.4791 64.431 4.53152C64.4492 4.65984 64.4945 4.78265 64.5637 4.89152L66.5095 8.85152L68.4553 5.20652C68.561 5.04605 68.6222 4.85946 68.6322 4.66652C68.6352 4.60233 68.6202 4.53858 68.5889 4.48278C68.5575 4.42698 68.5112 4.38144 68.4553 4.35152C68.2408 4.26846 68.0186 4.20814 67.7919 4.17152C67.6593 4.17152 67.5708 4.03652 67.5708 3.85652C67.5716 3.74998 67.5865 3.64403 67.615 3.54152C67.8362 3.54152 68.1457 3.58652 68.4995 3.58652H70.2684C70.578 3.58652 70.8433 3.54152 71.1529 3.54152C71.1529 3.58652 71.1971 3.67652 71.1971 3.72152V3.85652C71.1971 4.03652 71.1529 4.17152 71.0202 4.17152C70.7283 4.18924 70.4427 4.26571 70.18 4.39652C70.0898 4.43249 70.0079 4.48704 69.9394 4.55673C69.8709 4.62642 69.8173 4.70976 69.782 4.80152L66.9959 9.97652V13.3515C66.9854 13.4586 67.0006 13.5667 67.0401 13.6665C67.0844 13.7565 67.1728 13.8015 67.217 13.8465C67.3195 13.9257 67.4425 13.9726 67.5708 13.9815C67.7659 14.0099 67.9582 14.0551 68.1457 14.1165C68.192 14.1243 68.2368 14.1395 68.2784 14.1615C68.3185 14.229 68.3342 14.3086 68.3226 14.3865V14.7015H67.3497C67.0401 14.7015 66.819 14.6565 66.5095 14.6565H65.0943C64.8429 14.6491 64.5914 14.6641 64.3425 14.7015H63.5465V14.4C63.5465 14.265 63.5465 14.22 63.5907 14.175C63.635 14.13 63.635 14.13 63.7234 14.13C63.9201 14.1114 64.1135 14.066 64.2983 13.995C64.4752 13.905 64.6079 13.95 64.6521 13.86C64.7848 13.815 64.829 13.725 64.829 13.68C64.829 13.635 64.8732 13.5 64.8732 13.365L64.829 9.97652Z" fill="white"/>
<path d="M76.327 14.85C75.4861 14.8434 74.6511 14.7069 73.8505 14.445C73.1975 14.1689 72.6097 13.7547 72.1258 13.23C71.678 12.7008 71.3329 12.09 71.1087 11.43C70.8802 10.7178 70.7609 9.97413 70.7549 9.22502C70.7686 8.5354 70.888 7.85219 71.1087 7.20002C71.341 6.52053 71.7015 5.89378 72.17 5.35502C72.6581 4.77305 73.2814 4.32445 73.9832 4.05002C74.8177 3.67313 75.7238 3.48873 76.6366 3.51002C77.1701 3.50645 77.7029 3.55163 78.2286 3.64502C78.7661 3.73147 79.2978 3.8517 79.8206 4.00502C79.8262 4.3837 79.8706 4.76075 79.9533 5.13002C80.0094 5.60456 80.1131 6.072 80.2629 6.52502C80.1867 6.52202 80.1109 6.53744 80.0417 6.57002H79.8648C79.7322 6.57002 79.688 6.57002 79.6437 6.52502C79.5995 6.48002 79.5111 6.48002 79.5111 6.34502C79.4136 6.01584 79.2801 5.69885 79.113 5.40002C78.9709 5.17516 78.7913 4.9772 78.5824 4.81502C78.4055 4.72502 78.0959 4.59002 77.8306 4.45502C77.4952 4.38503 77.1553 4.33992 76.8134 4.32002C76.2687 4.32898 75.7298 4.43561 75.2214 4.63502C74.7537 4.82499 74.3423 5.13507 74.0274 5.53502C73.7051 5.94911 73.4649 6.42285 73.3198 6.93002C73.1484 7.52878 73.0738 8.15189 73.0987 8.77502C73.1048 9.46173 73.209 10.1439 73.4083 10.8C73.5691 11.3786 73.8231 11.926 74.1601 12.42C74.4666 12.8728 74.8763 13.2433 75.3541 13.5C75.8322 13.7552 76.3621 13.8938 76.9019 13.905C77.2751 13.9192 77.6482 13.8736 78.0075 13.77C78.3049 13.6971 78.5886 13.5755 78.8477 13.41C79.0727 13.2169 79.2667 12.9891 79.4226 12.735C79.6119 12.4353 79.7747 12.119 79.9091 11.79C79.9533 11.655 79.9533 11.61 80.086 11.61C80.1522 11.5692 80.2305 11.5533 80.3071 11.565H80.5282C80.5724 11.565 80.7051 11.61 80.7493 11.61C80.7051 11.79 80.6166 12.015 80.5282 12.285C80.4397 12.555 80.3513 12.78 80.3071 13.005C80.2629 13.23 80.1302 13.5 80.086 13.77C80.0417 14.04 79.9533 14.265 79.9091 14.49C79.3704 14.6091 78.8232 14.6843 78.2728 14.715C77.6306 14.8286 76.9784 14.8739 76.327 14.85Z" fill="white"/>
<path d="M81.589 9.12153C81.5875 8.35881 81.7537 7.6054 82.0755 6.91653C82.3796 6.24626 82.7989 5.63668 83.3137 5.11653C83.8265 4.60624 84.4258 4.19461 85.0826 3.90153C85.7685 3.61167 86.5072 3.47362 87.2496 3.49653C88.0196 3.48763 88.7844 3.62498 89.5049 3.90153C90.1736 4.17231 90.777 4.58675 91.2739 5.11653C91.7753 5.63831 92.1799 6.24814 92.4679 6.91653C92.7606 7.64369 92.8963 8.42635 92.8659 9.21153C92.8674 9.97425 92.7012 10.7277 92.3794 11.4165C92.0976 12.0995 91.6754 12.7133 91.1412 13.2165C90.6201 13.7375 90.0042 14.1502 89.3281 14.4315C88.6421 14.7214 87.9035 14.8594 87.1611 14.8365C86.3911 14.8454 85.6262 14.7081 84.9057 14.4315C84.2371 14.1607 83.6337 13.7463 83.1368 13.2165C82.6497 12.683 82.2469 12.0758 81.9428 11.4165C81.7036 10.6761 81.5841 9.90097 81.589 9.12153ZM87.4265 13.9815C87.858 13.9788 88.2827 13.8708 88.6647 13.6665C89.0534 13.4489 89.3985 13.1589 89.6818 12.8115C89.9802 12.4386 90.2053 12.0109 90.3452 11.5515C90.5081 11.0435 90.5829 10.5106 90.5663 9.97653C90.5873 9.23487 90.513 8.49359 90.3452 7.77153C90.2102 7.13541 89.971 6.52693 89.6376 5.97153C89.3398 5.50543 88.9659 5.09452 88.532 4.75653C88.0519 4.46551 87.4982 4.32466 86.94 4.35153C86.559 4.3346 86.1797 4.4118 85.8344 4.57653C85.4617 4.73998 85.1405 5.00464 84.9057 5.34153C84.6079 5.69797 84.3825 6.11092 84.2424 6.55653C84.0764 7.07926 84.0015 7.62754 84.0213 8.17653C84.0006 8.9628 84.0749 9.74867 84.2424 10.5165C84.3893 11.1631 84.6277 11.7846 84.95 12.3615C85.2228 12.8469 85.6009 13.2625 86.0556 13.5765C86.456 13.862 86.9381 14.0045 87.4265 13.9815Z" fill="white"/>
<path d="M97.3372 13.4415V13.7565C97.3434 13.7952 97.3587 13.8317 97.3818 13.8631C97.4049 13.8944 97.4351 13.9196 97.4699 13.9365C97.5598 14.008 97.6665 14.0546 97.7794 14.0715C97.9599 14.1005 98.1375 14.1457 98.3101 14.2065C98.4428 14.2065 98.487 14.3415 98.487 14.5215V14.8815C98.1332 14.8815 97.7794 14.8365 97.3814 14.8365H95.2587C94.8607 14.8365 94.5069 14.8815 94.1531 14.8815C94.1531 14.8365 94.1089 14.7465 94.1089 14.7015V14.5215C94.1089 14.3415 94.1531 14.2065 94.2858 14.2065C94.4692 14.1939 94.6489 14.1482 94.8165 14.0715C94.9491 14.0265 95.0376 14.0265 95.126 13.9365C95.2145 13.8465 95.2587 13.8015 95.2587 13.7565C95.2799 13.6526 95.2947 13.5473 95.3029 13.4415V4.95001C95.31 4.84302 95.295 4.7357 95.2587 4.63501C95.2525 4.59635 95.2372 4.55979 95.2141 4.52844C95.191 4.4971 95.1608 4.47191 95.126 4.45501C95.0411 4.37523 94.9318 4.32757 94.8165 4.32001C94.636 4.29103 94.4584 4.24586 94.2858 4.18501C94.1531 4.14001 94.1089 4.05001 94.1089 3.87001V3.69001C94.1023 3.62658 94.118 3.56281 94.1531 3.51001C94.5069 3.51001 94.8607 3.55501 95.2587 3.55501H97.3814C97.7794 3.55501 98.1332 3.51001 98.487 3.51001V3.87001C98.4951 3.93494 98.4822 4.00079 98.4503 4.05761C98.4184 4.11444 98.3692 4.15916 98.3101 4.18501C98.1267 4.19759 97.947 4.24331 97.7794 4.32001C97.6468 4.36501 97.5583 4.36501 97.4699 4.45501C97.3814 4.54501 97.3372 4.59001 97.3372 4.63501V13.455V13.4415Z" fill="white"/>
<path d="M108.61 11.0565V5.02652C108.619 4.92742 108.604 4.82757 108.566 4.73576C108.528 4.64396 108.469 4.563 108.393 4.50002C108.12 4.35545 107.817 4.27837 107.509 4.27502C107.441 4.25727 107.382 4.21599 107.342 4.1584C107.301 4.10081 107.282 4.03059 107.287 3.96002V3.82502C107.287 3.73502 107.287 3.69002 107.332 3.64502C107.61 3.68244 107.891 3.69749 108.172 3.69002H110.029C110.25 3.69002 110.56 3.64502 110.781 3.64502V3.96002C110.781 4.14002 110.737 4.27502 110.604 4.27502C110.342 4.3033 110.088 4.37953 109.852 4.50002C109.785 4.56158 109.734 4.63887 109.703 4.72515C109.673 4.81144 109.663 4.90409 109.676 4.99502V14.895H109.233C109.189 14.895 109.056 14.895 109.012 14.85C108.914 14.7685 108.81 14.6933 108.703 14.625L102.069 6.12002V13.77C102.075 13.8087 102.091 13.8452 102.114 13.8766C102.137 13.9079 102.167 13.9331 102.202 13.95C102.292 14.0216 102.398 14.0681 102.511 14.085C102.692 14.114 102.869 14.1592 103.042 14.22C103.088 14.2278 103.133 14.243 103.175 14.265C103.215 14.3325 103.23 14.4121 103.219 14.49C103.221 14.5967 103.206 14.7031 103.175 14.805C102.865 14.805 102.644 14.76 102.423 14.76H100.654C100.344 14.76 100.079 14.805 99.8138 14.805C99.8138 14.76 99.7695 14.67 99.7695 14.625V14.49C99.7695 14.355 99.7695 14.31 99.8138 14.265C99.858 14.22 99.858 14.22 99.9464 14.22C100.233 14.1739 100.515 14.0985 100.787 13.995C100.854 13.9335 100.905 13.8562 100.936 13.7699C100.966 13.6836 100.976 13.591 100.964 13.5V4.84652C100.971 4.76922 100.959 4.6913 100.928 4.62033C100.897 4.54936 100.848 4.48776 100.787 4.44152C100.557 4.30713 100.299 4.23002 100.035 4.21652C99.9022 4.17152 99.858 4.08152 99.858 3.90152V3.60002H102.069C102.291 3.58547 102.514 3.6006 102.732 3.64502C102.865 3.64502 102.909 3.69002 103.042 3.82502L108.61 11.0565Z" fill="white"/>
<path d="M1.63877 2.88C2.42033 2.88 3.05391 2.23529 3.05391 1.44C3.05391 0.64471 2.42033 0 1.63877 0C0.857212 0 0.223633 0.64471 0.223633 1.44C0.223633 2.23529 0.857212 2.88 1.63877 2.88Z" fill="#0059BE"/>
<path d="M1.63877 6.66003C2.42033 6.66003 3.05391 6.01532 3.05391 5.22003C3.05391 4.42474 2.42033 3.78003 1.63877 3.78003C0.857212 3.78003 0.223633 4.42474 0.223633 5.22003C0.223633 6.01532 0.857212 6.66003 1.63877 6.66003Z" fill="#0059BE"/>
<path d="M1.63877 10.44C2.42033 10.44 3.05391 9.79529 3.05391 9C3.05391 8.20471 2.42033 7.56 1.63877 7.56C0.857212 7.56 0.223633 8.20471 0.223633 9C0.223633 9.79529 0.857212 10.44 1.63877 10.44Z" fill="#0059BE"/>
<path d="M1.63877 14.22C2.42033 14.22 3.05391 13.5753 3.05391 12.78C3.05391 11.9847 2.42033 11.34 1.63877 11.34C0.857212 11.34 0.223633 11.9847 0.223633 12.78C0.223633 13.5753 0.857212 14.22 1.63877 14.22Z" fill="#FFD500"/>
<path d="M1.63877 18C2.42033 18 3.05391 17.3553 3.05391 16.56C3.05391 15.7647 2.42033 15.12 1.63877 15.12C0.857212 15.12 0.223633 15.7647 0.223633 16.56C0.223633 17.3553 0.857212 18 1.63877 18Z" fill="#FFD500"/>
<path d="M1.63877 2.88C2.42033 2.88 3.05391 2.23529 3.05391 1.44C3.05391 0.64471 2.42033 0 1.63877 0C0.857212 0 0.223633 0.64471 0.223633 1.44C0.223633 2.23529 0.857212 2.88 1.63877 2.88Z" fill="#0059BE"/>
<path d="M1.63877 6.66003C2.42033 6.66003 3.05391 6.01532 3.05391 5.22003C3.05391 4.42474 2.42033 3.78003 1.63877 3.78003C0.857212 3.78003 0.223633 4.42474 0.223633 5.22003C0.223633 6.01532 0.857212 6.66003 1.63877 6.66003Z" fill="#0059BE"/>
<path d="M1.63877 10.44C2.42033 10.44 3.05391 9.79529 3.05391 9C3.05391 8.20471 2.42033 7.56 1.63877 7.56C0.857212 7.56 0.223633 8.20471 0.223633 9C0.223633 9.79529 0.857212 10.44 1.63877 10.44Z" fill="#0059BE"/>
<path d="M1.63877 14.22C2.42033 14.22 3.05391 13.5753 3.05391 12.78C3.05391 11.9847 2.42033 11.34 1.63877 11.34C0.857212 11.34 0.223633 11.9847 0.223633 12.78C0.223633 13.5753 0.857212 14.22 1.63877 14.22Z" fill="#FFD500"/>
<path d="M1.63877 18C2.42033 18 3.05391 17.3553 3.05391 16.56C3.05391 15.7647 2.42033 15.12 1.63877 15.12C0.857212 15.12 0.223633 15.7647 0.223633 16.56C0.223633 17.3553 0.857212 18 1.63877 18Z" fill="#FFD500"/>
<path d="M5.35362 2.88C6.13518 2.88 6.76876 2.23529 6.76876 1.44C6.76876 0.64471 6.13518 0 5.35362 0C4.57206 0 3.93848 0.64471 3.93848 1.44C3.93848 2.23529 4.57206 2.88 5.35362 2.88Z" fill="#0059BE"/>
<path d="M5.35362 6.66003C6.13518 6.66003 6.76876 6.01532 6.76876 5.22003C6.76876 4.42474 6.13518 3.78003 5.35362 3.78003C4.57206 3.78003 3.93848 4.42474 3.93848 5.22003C3.93848 6.01532 4.57206 6.66003 5.35362 6.66003Z" fill="#0059BE"/>
<path d="M5.35362 10.44C6.13518 10.44 6.76876 9.79529 6.76876 9C6.76876 8.20471 6.13518 7.56 5.35362 7.56C4.57206 7.56 3.93848 8.20471 3.93848 9C3.93848 9.79529 4.57206 10.44 5.35362 10.44Z" fill="#0059BE"/>
<path d="M5.35362 14.22C6.13518 14.22 6.76876 13.5753 6.76876 12.78C6.76876 11.9847 6.13518 11.34 5.35362 11.34C4.57206 11.34 3.93848 11.9847 3.93848 12.78C3.93848 13.5753 4.57206 14.22 5.35362 14.22Z" fill="#FFD500"/>
<path d="M5.35362 18C6.13518 18 6.76876 17.3553 6.76876 16.56C6.76876 15.7647 6.13518 15.12 5.35362 15.12C4.57206 15.12 3.93848 15.7647 3.93848 16.56C3.93848 17.3553 4.57206 18 5.35362 18Z" fill="#FFD500"/>
<path d="M9.06748 2.88C9.84904 2.88 10.4826 2.23529 10.4826 1.44C10.4826 0.64471 9.84904 0 9.06748 0C8.28592 0 7.65234 0.64471 7.65234 1.44C7.65234 2.23529 8.28592 2.88 9.06748 2.88Z" fill="#0059BE"/>
<path d="M9.06748 6.66003C9.84904 6.66003 10.4826 6.01532 10.4826 5.22003C10.4826 4.42474 9.84904 3.78003 9.06748 3.78003C8.28592 3.78003 7.65234 4.42474 7.65234 5.22003C7.65234 6.01532 8.28592 6.66003 9.06748 6.66003Z" fill="#0059BE"/>
<path d="M9.06748 10.44C9.84904 10.44 10.4826 9.79529 10.4826 9C10.4826 8.20471 9.84904 7.56 9.06748 7.56C8.28592 7.56 7.65234 8.20471 7.65234 9C7.65234 9.79529 8.28592 10.44 9.06748 10.44Z" fill="#0059BE"/>
<path d="M9.06748 14.22C9.84904 14.22 10.4826 13.5753 10.4826 12.78C10.4826 11.9847 9.84904 11.34 9.06748 11.34C8.28592 11.34 7.65234 11.9847 7.65234 12.78C7.65234 13.5753 8.28592 14.22 9.06748 14.22Z" fill="#FFD500"/>
<path d="M12.7823 6.66003C13.5639 6.66003 14.1975 6.01532 14.1975 5.22003C14.1975 4.42474 13.5639 3.78003 12.7823 3.78003C12.0008 3.78003 11.3672 4.42474 11.3672 5.22003C11.3672 6.01532 12.0008 6.66003 12.7823 6.66003Z" fill="#0059BE"/>
<path d="M12.7823 10.44C13.5639 10.44 14.1975 9.79529 14.1975 9C14.1975 8.20471 13.5639 7.56 12.7823 7.56C12.0008 7.56 11.3672 8.20471 11.3672 9C11.3672 9.79529 12.0008 10.44 12.7823 10.44Z" fill="#0059BE"/>
<path d="M12.7823 14.22C13.5639 14.22 14.1975 13.5753 14.1975 12.78C14.1975 11.9847 13.5639 11.34 12.7823 11.34C12.0008 11.34 11.3672 11.9847 11.3672 12.78C11.3672 13.5753 12.0008 14.22 12.7823 14.22Z" fill="#FFD500"/>
<path d="M9.06748 18C9.84904 18 10.4826 17.3553 10.4826 16.56C10.4826 15.7647 9.84904 15.12 9.06748 15.12C8.28592 15.12 7.65234 15.7647 7.65234 16.56C7.65234 17.3553 8.28592 18 9.06748 18Z" fill="#FFD500"/>
<path d="M16.4972 18C17.2787 18 17.9123 17.3553 17.9123 16.56C17.9123 15.7647 17.2787 15.12 16.4972 15.12C15.7156 15.12 15.082 15.7647 15.082 16.56C15.082 17.3553 15.7156 18 16.4972 18Z" fill="white"/>
</svg>
