<svg width="78" height="25" viewBox="0 0 78 25" fill="none" xmlns="http://www.w3.org/2000/svg">
<path d="M22.8172 20.1708C22.7586 20.3079 22.8172 20.3862 22.9734 20.3862H25.6681C25.8047 20.3862 25.8633 20.347 25.9023 20.1903L26.9373 17.1738H33.3615L34.4355 20.2099C34.4745 20.3274 34.5331 20.3862 34.6502 20.3862H37.4425C37.6182 20.3862 37.6378 20.3079 37.5988 20.1708L32.639 5.98927C32.4047 5.26452 31.936 4.77483 31.1355 4.75525H29.3586C28.4994 4.75525 28.0894 5.18618 27.7964 5.98927L22.8172 20.1708ZM27.6012 14.882L30.1397 7.45834L32.7172 14.882H27.6012ZM38.5172 20.1903C38.5172 20.347 38.5563 20.3862 38.6929 20.3862H41.0752C41.2119 20.3862 41.2704 20.347 41.2704 20.1903V4.95111C41.2704 4.79441 41.2119 4.75525 41.0752 4.75525H38.6929C38.5563 4.75525 38.5172 4.79441 38.5172 4.95111V20.1903ZM45.2741 11.5913H47.5586C49.3551 11.5913 50.39 12.8645 50.39 14.882C50.39 16.8604 49.4918 18.1924 47.8516 18.1924C46.2504 18.1924 45.2741 17.1151 45.2741 15.0387V11.5913ZM42.6575 24.1078C42.6575 24.2646 42.6966 24.3037 42.8333 24.3037H45.1178C45.2545 24.3037 45.3131 24.2646 45.3131 24.1078V19.2305C45.3131 19.2305 46.0941 20.5233 48.2812 20.5233C51.0148 20.5233 53.0456 18.1924 53.0456 14.8037C53.0456 11.415 50.8 9.24082 47.6562 9.24082H44.2391C43.2824 9.24082 42.6575 9.80886 42.6575 10.7687V24.1078ZM54.1007 20.1903C54.1007 20.347 54.1398 20.3862 54.2765 20.3862H56.5806C56.7369 20.3862 56.7758 20.347 56.7758 20.1903V14.0202C56.7758 12.4728 57.6936 11.5522 58.9824 11.5522C60.2516 11.5522 61.1889 12.4924 61.1889 14.0202V20.1903C61.1889 20.347 61.2279 20.3862 61.3646 20.3862H63.6492C63.8054 20.3862 63.8445 20.347 63.8445 20.1903V13.9419C63.8445 10.9254 62.2628 9.10371 59.5291 9.10371C57.7717 9.10371 56.7758 10.1027 56.7758 10.1027V4.95111C56.7758 4.79441 56.7173 4.75525 56.5806 4.75525H54.2765C54.1398 4.75525 54.1007 4.79441 54.1007 4.95111V20.1903ZM65.2315 20.1903C65.2315 20.347 65.2706 20.3862 65.4072 20.3862H67.7504C67.8871 20.3862 67.9262 20.347 67.9262 20.1903V14.0398C67.9262 12.5119 68.844 11.6893 70.1913 11.6893H71.109C71.2457 11.6893 71.2848 11.6501 71.2848 11.4934V9.43669C71.2848 9.27999 71.2457 9.24082 71.109 9.24082H69.996C67.2232 9.24082 65.2315 10.9841 65.2315 13.9811V20.1903Z" fill="#F6F7F8"/>
<path fill-rule="evenodd" clip-rule="evenodd" d="M11.7267 6.25933L14.3788 10.8673L11.7084 13.5462L10.3935 11.2616C9.52423 9.75136 8.31012 9.85028 7.49782 11.2616L5.78049 14.2455L4.06315 17.2293L3.59616 20.3859C1.23183 20.3859 -0.0312527 18.3104 1.18519 16.1969L4.045 11.2281L6.90478 6.25933C8.08695 4.20532 10.5103 4.14577 11.7267 6.25933ZM14.9747 11.9027L17.4463 16.1969C18.6284 18.2509 17.4682 20.386 15.0353 20.386H12.7493C14.4877 20.386 15.0094 19.2817 14.1971 17.8704L12.8686 15.5621L14.9747 11.9027Z" fill="#F6F7F8"/>
<path fill-rule="evenodd" clip-rule="evenodd" d="M3.59616 20.386C5.16632 20.386 6.32083 19.2762 7.07697 18.5176C7.83312 17.7591 16.3501 9.21546 16.3501 9.21546V9.21545C16.8502 8.71383 16.8502 7.90053 16.3501 7.39892C15.85 6.8973 15.0393 6.8973 14.5393 7.39892L5.65325 16.3127C4.09673 17.8741 1.27738 16.0369 2.36414 14.1486L1.18519 16.1969C-0.0312528 18.3105 1.23183 20.386 3.59616 20.386Z" fill="#00A5DF"/>
<path fill-rule="evenodd" clip-rule="evenodd" d="M12.8696 20.384C12.9084 20.3852 12.9477 20.3858 12.9877 20.3858H15.0351C17.468 20.3858 18.6282 18.2508 17.446 16.1968L14.9745 11.9026L13.2571 14.8864L12.8683 15.562L11.5398 17.8703C10.692 19.3434 11.33 20.336 12.8696 20.384Z" fill="#F6F7F8"/>
</svg>
