<svg width="129" height="24" viewBox="0 0 129 24" fill="none" xmlns="http://www.w3.org/2000/svg">
<g clip-path="url(#clip0_148_15763)">
<path d="M16.1451 23.9612C15.8038 24.0129 15.8169 23.7802 15.8169 23.5603C15.8169 22.3319 15.8301 21.1034 15.8038 19.875C15.7907 19.4612 16.0532 19.3836 16.3551 19.2931C18.3502 18.6724 20.3453 18.0388 22.3536 17.444C22.7736 17.3147 22.8917 17.1336 22.8917 16.7198C22.8786 13.2931 22.8786 9.86638 22.8917 6.43965C22.8917 5.85776 22.6817 5.85776 22.2354 6C20.3191 6.60776 18.4027 7.17672 16.4864 7.79741C15.9613 7.96552 15.7513 7.92672 15.7776 7.30603C15.8169 6.2069 15.8038 5.10776 15.7776 4.00862C15.7644 3.5819 15.9351 3.40086 16.3288 3.27155C19.794 2.21121 23.2461 1.13793 26.7113 0.0646547C27.1576 -0.0775866 27.3151 -4.45987e-07 27.302 0.50431C27.2757 1.79741 27.302 3.09052 27.3151 4.38362C27.3151 9.51724 27.302 14.6638 27.3151 19.7974C27.3151 20.2759 27.197 20.5345 26.6982 20.6638C25.4644 21 24.2437 21.4009 23.023 21.7888C20.7391 22.5129 18.4421 23.2371 16.1451 23.9612Z" fill="#4D90DE"/>
<path d="M2.63867 4.38362C2.6518 3.07759 2.67805 1.75862 2.67805 0.452586C2.67805 0.0517244 2.7568 -0.0775859 3.18995 0.0517244C6.68141 1.13793 10.186 2.22414 13.6906 3.28448C14.0712 3.40086 14.2025 3.5819 14.2025 3.96983C14.1762 5.10776 14.1762 6.24569 14.2025 7.39655C14.2156 7.875 14.0975 7.97845 13.6118 7.82328C11.7086 7.21552 9.77909 6.63362 7.86273 6.03879C7.10143 5.80604 7.10143 5.80604 7.10143 6.55604C7.10143 7.82328 7.10143 9.09052 7.10143 10.3707C7.10143 10.6422 7.08831 10.8621 6.81266 11.0302C5.50009 11.7931 4.18751 12.5819 2.88806 13.3578C2.83556 13.3836 2.7568 13.3707 2.69117 13.3707C2.67805 12.8793 2.66492 12.3879 2.66492 11.8966C2.66492 9.38793 2.6518 6.89224 2.63867 4.38362Z" fill="#4D90DE"/>
<path d="M0.0263672 23.6379C0.0263672 21.6336 0.0263672 19.4483 0.0263672 17.25C0.0263672 17.0043 0.157625 16.9138 0.341386 16.8103C3.67533 14.819 6.99615 12.8405 10.317 10.8362C10.6582 10.6293 10.842 10.7974 11.0651 10.9526C12.2465 11.806 13.4409 12.6465 14.6222 13.5C14.8322 13.6552 15.0029 13.8233 15.2916 13.5517C16.5386 12.3103 17.7987 11.0948 19.1506 9.76293C18.5862 9.67241 18.153 9.60776 17.7199 9.5431C17.7068 9.50431 17.6936 9.46552 17.6936 9.42672C18.875 8.98707 20.0432 8.54741 21.3689 8.0431C20.8701 9.36207 20.4107 10.5517 19.9513 11.7802C19.715 11.3534 19.82 10.9009 19.6363 10.5C19.3344 10.5129 19.2425 10.7715 19.0981 10.9267C17.8774 12.2715 16.6567 13.6293 15.4623 15C15.1604 15.3491 14.9372 15.4397 14.491 15.2069C13.3884 14.625 12.2465 14.1336 11.1439 13.5647C10.7632 13.3707 10.527 13.4353 10.2513 13.7198C8.8075 15.194 7.36367 16.6681 5.88046 18.1034C3.91159 19.9914 1.9296 21.8405 0.0263672 23.6379Z" fill="white"/>
<path d="M16.1445 23.9612C18.4415 23.2371 20.7385 22.5129 23.0356 21.7888C24.2563 21.4009 25.4769 21.0129 26.7108 20.6638C27.2095 20.5216 27.3277 20.2759 27.3277 19.7974C27.3146 14.6638 27.3277 9.51724 27.3277 4.38362C28.0233 4.38362 28.7321 4.39655 29.4278 4.37069C29.8872 4.34483 30.0185 4.51293 30.0053 4.96552C29.9922 8.17241 29.9922 11.3793 29.9922 14.5862C29.9922 17.5345 29.9922 20.4828 29.9922 23.431C29.9922 23.7284 30.071 24.0129 29.5722 24.0129C25.0963 23.9741 20.6204 23.9741 16.1445 23.9612Z" fill="white"/>
<path d="M53.9472 19.6164C50.7445 19.6034 48.6969 17.5086 48.71 14.2629C48.7231 11.0948 50.8364 9 53.9997 9.01293C57.2024 9.02586 59.2763 11.1207 59.2631 14.3534C59.2631 17.5862 57.1893 19.6293 53.9472 19.6164ZM56.4542 14.3147C56.4674 13.7457 56.3886 13.2026 56.1917 12.6724C55.8111 11.6379 55.0366 11.0948 53.9603 11.1078C52.8971 11.1207 52.0965 11.6767 51.7683 12.7241C51.4271 13.7716 51.4271 14.8448 51.7552 15.8922C52.0965 16.9784 52.884 17.5345 53.9866 17.5345C55.1023 17.5345 55.8636 16.9914 56.2311 15.9052C56.4017 15.3879 56.4805 14.8578 56.4542 14.3147Z" fill="white"/>
<path d="M68.8573 10.4741C70.0124 9.24569 71.3644 8.84483 72.9526 9.09052C74.462 9.31034 75.3283 10.125 75.6302 11.6121C75.814 12.5043 75.7615 13.4095 75.7615 14.3147C75.7615 15.8017 75.7484 17.2888 75.7746 18.7759C75.7877 19.2026 75.6959 19.4095 75.2102 19.3707C74.4752 19.306 73.4907 19.6681 73.0838 19.2155C72.7163 18.8147 72.9788 17.8707 72.9657 17.1595C72.9526 15.8017 72.9788 14.444 72.9001 13.0862C72.8345 11.7931 72.27 11.2371 71.1937 11.2112C69.9862 11.1853 69.2511 11.819 69.0805 13.0474C68.9361 14.0302 69.0017 15.0259 68.9886 16.0216C68.9755 16.9914 68.9755 17.9612 68.9886 18.931C68.9886 19.2543 68.9098 19.3966 68.5554 19.3836C67.8992 19.3578 67.2429 19.3578 66.5866 19.3836C66.2716 19.3966 66.1797 19.2802 66.1797 18.9828C66.1928 15.9052 66.1928 12.8276 66.1797 9.73707C66.1797 9.38793 66.2978 9.28448 66.6391 9.29741C67.1904 9.32328 67.7417 9.33621 68.2798 9.29741C68.8048 9.25862 68.9361 9.46552 68.8836 9.93103C68.8311 10.0862 68.8573 10.2802 68.8573 10.4741Z" fill="white"/>
<path d="M46.0456 12.8405C45.8488 12.8405 45.6519 12.8276 45.455 12.8405C44.9562 12.8922 44.6674 12.7888 44.4574 12.2328C43.9587 10.8879 41.9373 10.694 40.966 11.8448C39.9684 13.0345 39.9422 15.569 40.9135 16.7715C41.4516 17.431 42.1604 17.6121 42.9611 17.4957C43.8011 17.3664 44.3655 16.875 44.5887 16.0862C44.7199 15.5948 44.93 15.4267 45.4419 15.4784C45.9406 15.5302 46.4525 15.5172 46.9513 15.4784C47.3976 15.4526 47.4764 15.6207 47.3845 16.0086C47.0038 17.6121 46.1244 18.8276 44.4837 19.319C42.4886 19.9267 40.5591 19.7845 38.9577 18.3103C37.3039 16.7716 37.0807 14.806 37.6058 12.75C38.4983 9.21983 43.0136 7.77155 45.9275 10.0345C46.7019 10.6293 47.1482 11.4181 47.3451 12.3621C47.4239 12.7241 47.3582 12.8922 46.9513 12.8534C46.6494 12.8276 46.3475 12.8405 46.0456 12.8405Z" fill="white"/>
<path d="M107.002 17.5474C105.886 19.1379 104.521 19.7716 102.775 19.6034C101.174 19.4483 100.032 18.6207 99.3756 17.1983C98.5093 15.2974 98.5093 13.3319 99.3888 11.431C100.373 9.31034 102.854 8.4181 105.046 9.34914C105.794 9.67241 106.359 10.1897 106.765 10.8879C107.015 10.7974 106.91 10.5905 106.91 10.4483C106.923 8.96121 106.949 7.47414 106.897 5.98707C106.884 5.40517 107.185 5.4569 107.579 5.44396C107.999 5.43103 108.196 5.49569 108.196 5.98707C108.17 10.2802 108.17 14.5603 108.196 18.8534C108.196 19.3448 107.986 19.3707 107.619 19.3578C107.277 19.3448 106.949 19.3966 107.015 18.8793C107.041 18.5043 107.002 18.1164 107.002 17.5474ZM106.897 14.3405C106.91 13.4612 106.765 12.6207 106.372 11.8319C105.742 10.6164 104.705 10.0474 103.34 10.0603C101.988 10.0733 101.069 10.7328 100.531 11.9224C99.8875 13.3707 99.8613 14.8578 100.373 16.3319C100.872 17.806 101.935 18.5819 103.379 18.5819C104.941 18.5819 106.07 17.7802 106.595 16.306C106.805 15.6724 106.91 15.0129 106.897 14.3405Z" fill="white"/>
<path d="M115.152 14.6638C114.01 14.6638 112.882 14.6638 111.74 14.6638C111.503 14.6638 111.28 14.6121 111.28 15C111.228 17.1207 112.921 18.75 115.021 18.569C116.334 18.4526 117.174 17.7155 117.633 16.5259C117.791 16.1121 118.513 15.8534 118.893 16.0474C119.077 16.1379 118.985 16.2672 118.946 16.3707C118.513 17.9224 117.646 19.0733 115.966 19.4871C112.842 20.2371 110.466 18.6078 110.06 15.3233C109.849 13.6552 110.06 12.0517 111.11 10.6422C112.947 8.19828 116.937 8.49569 118.368 11.1853C118.867 12.1164 119.051 13.125 119.09 14.1724C119.103 14.5216 118.998 14.6638 118.618 14.6509C117.462 14.6509 116.307 14.6638 115.152 14.6638ZM114.535 13.6293C115.494 13.6293 116.465 13.6293 117.423 13.6293C117.62 13.6293 117.791 13.6681 117.804 13.3578C117.869 12.0259 116.662 10.4353 115.31 10.1509C112.882 9.63362 111.556 11.6121 111.306 13.3448C111.254 13.7198 111.516 13.6422 111.713 13.6422C112.658 13.6293 113.59 13.6293 114.535 13.6293Z" fill="white"/>
<path d="M87.6797 14.3405C87.7059 13.6422 87.8109 12.9569 88.021 12.2974C88.7429 10.0862 90.633 8.8319 92.9169 9.02586C95.2664 9.23276 96.894 10.8103 97.2615 13.2414C97.3928 14.1207 97.3796 15 97.1696 15.8664C96.5921 18.2974 94.8201 19.694 92.3918 19.6422C90.0292 19.5905 88.2966 18.0905 87.8372 15.6853C87.7584 15.2328 87.7322 14.7802 87.6797 14.3405ZM88.9791 14.3017C88.966 15.2716 89.1629 16.1897 89.6879 17.0172C91.0399 19.1638 94.0982 19.1638 95.3714 16.9784C96.3689 15.2716 96.3689 13.4612 95.3976 11.7414C94.1244 9.47845 90.9874 9.47845 89.6354 11.7155C89.176 12.5043 88.9791 13.3836 88.9791 14.3017Z" fill="white"/>
<path d="M5.25 21.194C6.20818 19.9914 7.35012 18.9698 8.42643 17.8836C8.59707 17.7155 8.78083 17.7931 8.97772 17.8448C10.5528 18.3362 12.141 18.8147 13.7161 19.306C13.9655 19.3836 14.2018 19.4612 14.1886 19.8103C14.1755 21.1164 14.1755 22.4353 14.1755 23.7414C14.1755 23.8319 14.1493 23.9095 14.0443 23.9353C11.1172 23.0302 8.19017 22.1121 5.25 21.194Z" fill="#4D90DE"/>
<path d="M129 19.2802C127.976 19.5 127.28 19.319 126.716 18.4267C126.007 17.3017 125.128 16.2802 124.261 15.1422C123.408 16.2931 122.581 17.3922 121.768 18.5043C121.059 19.4612 120.954 19.5129 119.654 19.2672C120.796 17.7414 121.912 16.2284 123.08 14.7543C123.474 14.2629 123.435 13.9655 123.067 13.5C122.004 12.1681 120.993 10.7845 119.956 9.41379C121.138 9.12931 121.374 9.2069 122.03 10.0733C122.673 10.9138 123.343 11.7414 123.946 12.6207C124.288 13.125 124.458 12.9957 124.747 12.5819C125.298 11.7802 125.981 11.056 126.467 10.2284C126.978 9.34914 127.661 9.14224 128.672 9.38793C128.514 9.60776 128.383 9.80172 128.225 9.99569C127.28 11.2371 126.348 12.4784 125.377 13.7069C125.141 14.0172 125.128 14.2112 125.364 14.5345C126.585 16.0733 127.766 17.6509 129 19.2802Z" fill="white"/>
<path d="M78.7413 14.25C78.7413 15.3491 78.9645 16.2802 79.5289 17.1207C80.3164 18.2715 81.4321 18.7629 82.8103 18.5302C84.1229 18.3103 84.8317 17.431 85.173 16.2155C85.278 15.8276 86.1049 15.5302 86.3936 15.7759C86.5774 15.931 86.4199 16.0991 86.3936 16.2543C86.0261 18.0776 84.7136 19.3707 83.0072 19.5905C80.8546 19.875 79.017 19.0086 78.1375 17.1983C77.1925 15.2845 77.1925 13.306 78.1769 11.4052C79.3451 9.12931 82.3903 8.30172 84.6348 9.5819C85.4748 10.0603 86.013 10.7716 86.2624 11.6897C86.328 11.9353 86.6299 12.2716 86.2099 12.4526C85.7505 12.6595 85.2123 12.4267 85.0548 12.0129C84.4379 10.3578 82.9022 9.63362 81.1958 10.2414C79.5945 10.8103 79.017 12.1293 78.7807 13.6552C78.7413 13.8879 78.7545 14.1336 78.7413 14.25Z" fill="white"/>
<path d="M63.9754 14.2888C63.9754 15.8017 63.9622 17.3017 63.9885 18.8147C64.0016 19.2414 63.8704 19.3836 63.4372 19.3578C62.8465 19.319 62.2559 19.319 61.6652 19.3578C61.2452 19.3836 61.1533 19.2155 61.1533 18.8405C61.1664 15.8276 61.1664 12.8147 61.1533 9.78879C61.1533 9.40086 61.2583 9.24569 61.6652 9.27155C62.2559 9.29741 62.8465 9.31034 63.4372 9.27155C63.8966 9.24569 63.9885 9.42672 63.9754 9.82759C63.9622 11.3147 63.9754 12.8017 63.9754 14.2888Z" fill="white"/>
<path d="M2.63803 4.38362C2.65116 6.89224 2.65116 9.38793 2.66428 11.8966C2.66428 12.3879 2.67741 12.8793 2.69054 13.3707C1.94237 14.0819 0.957935 14.431 0.144138 15.0259C-0.0790003 14.8836 0.01288 14.7026 0.01288 14.5474C-0.000245755 11.3534 0.01288 8.17241 -0.000245754 4.97845C-0.000245754 4.5 0.10476 4.3319 0.603539 4.37069C1.28608 4.40948 1.96862 4.38362 2.63803 4.38362Z" fill="white"/>
<path d="M5.25072 21.194C8.17776 22.1121 11.1179 23.0302 14.045 23.9353C12.5618 23.9483 11.0786 23.9741 9.58222 23.9741C7.21958 23.9871 4.85694 23.9741 2.31055 23.9741C3.39999 23.0172 4.18753 21.9698 5.25072 21.194Z" fill="white"/>
<path d="M62.5971 7.73276C61.1533 7.73276 61.1533 7.73276 61.1664 6.33621C61.1664 5.32759 61.0351 5.46983 62.0852 5.4569C62.5708 5.4569 63.0434 5.46983 63.529 5.4569C63.8703 5.44396 64.0015 5.54741 63.9884 5.89655C63.9622 6.31034 63.949 6.72414 63.9884 7.125C64.0541 7.65517 63.8178 7.81034 63.3321 7.74569C63.0827 7.7069 62.8465 7.73276 62.5971 7.73276Z" fill="white"/>
</g>
<defs>
<clipPath id="clip0_148_15763">
<rect width="129" height="24" fill="white"/>
</clipPath>
</defs>
</svg>
