<svg width="72" height="29" viewBox="0 0 72 29" fill="none" xmlns="http://www.w3.org/2000/svg">
<path fill-rule="evenodd" clip-rule="evenodd" d="M5.77734 28.7112H71.8964V4.43352H5.77734V28.7112Z" fill="#FFE57B" fill-opacity="0.7"/>
<path fill-rule="evenodd" clip-rule="evenodd" d="M0 2.72903V20.7453H9.07409V16.7113L4.19358 16.7075V2.72903H0Z" fill="white"/>
<path fill-rule="evenodd" clip-rule="evenodd" d="M49.9641 9.90435H48.792V6.82097H49.9444V2.74477H53.6411V6.82097H56.4072V9.88858H53.6524V20.7457H49.9641V9.90435Z" fill="white"/>
<path fill-rule="evenodd" clip-rule="evenodd" d="M41.5527 20.7452H45.2092V6.7791H41.5527V20.7452Z" fill="white"/>
<path fill-rule="evenodd" clip-rule="evenodd" d="M41.5527 3.01934H45.2126V0.000350952H41.5527V3.01934Z" fill="white"/>
<path fill-rule="evenodd" clip-rule="evenodd" d="M16.7398 10.067C18.2145 9.97571 19.4452 10.8287 19.6587 12.1128H14.3864C14.4567 11.1037 15.5748 10.1382 16.7398 10.067ZM18.9471 16.548C18.5674 17.0095 18.0894 17.2794 17.5264 17.3558C17.0332 17.4223 16.5397 17.4006 16.0617 17.2278C15.399 16.989 14.859 16.5788 14.5292 15.8874C14.4145 15.6465 14.3257 15.3953 14.3198 15.0899H23.1863C23.3215 13.9982 23.3077 12.958 23.0708 11.9332C22.2985 8.60034 19.4578 6.26456 15.9897 6.85352C14.4304 7.1175 13.1486 7.95936 12.1778 9.31724C10.917 11.0798 10.4377 13.074 10.889 15.2695C11.3607 17.563 12.6283 19.1905 14.594 20.124C16.2689 20.9194 17.9709 20.9087 19.6273 20.0421C21.0472 19.2988 22.0431 18.0799 22.7267 16.548H18.9471Z" fill="white"/>
<path fill-rule="evenodd" clip-rule="evenodd" d="M31.8494 17.0777C33.2052 17.073 34.2501 16.244 34.6222 14.8622C34.8805 13.9022 34.7884 12.9687 34.3844 12.0757C34.1546 11.569 33.8239 11.1498 33.371 10.8683C32.219 10.1548 30.5672 10.3045 29.5998 11.6428C29.0146 12.4518 28.8676 13.3802 29.0016 14.3837C29.2101 15.9437 30.4094 17.082 31.8494 17.0777ZM34.77 8.33167V6.78017H38.3628C38.3628 6.78017 38.3683 13.7205 38.3628 17.5375C38.3612 18.3904 38.3888 20.7757 38.0774 21.9433C37.2335 25.1137 34.9663 26.5458 31.8682 26.5458C27.1614 26.5458 25.5954 21.5744 25.5954 21.5744H29.7333C29.9443 22.0137 30.2482 22.3677 30.6748 22.586C32.4208 23.4778 34.4899 22.2295 34.7101 20.1423C34.7499 19.7666 34.7612 19.2728 34.7817 18.8442C34.716 18.9491 34.6603 19.0271 34.6389 19.0583C33.957 20.0873 33.0122 20.6392 31.8753 20.7155C29.6902 20.8644 27.8797 20.0217 26.5569 18.0842C25.7306 16.8722 25.3853 15.4716 25.3706 13.9666C25.3547 12.2441 25.7201 10.6483 26.7101 9.2763C27.8086 7.7538 29.2632 6.94777 31.0318 6.81258C31.9331 6.74392 32.7971 6.88593 33.6104 7.33628C34.05 7.57937 34.4121 7.92353 34.77 8.33167Z" fill="white"/>
</svg>
