<svg width="1440" height="730" viewBox="0 0 1440 730" fill="none" xmlns="http://www.w3.org/2000/svg">
<path d="M0 -2H1440V728H0V-2Z" fill="#0C0248"/>
<g opacity="0.35">
<path d="M1460 556.723C1424.5 577.978 1317.4 590.514 1177 539.501C1001.5 475.735 833.5 485.975 733.5 539.501C633.5 593.028 535.5 701.942 271 598.613C115.202 537.749 -14.6667 612.421 -99 622.816" stroke="url(#paint0_linear_401_2254)" stroke-width="3" stroke-dasharray="18 18"/>
<path d="M-97 675.412C-28.5 646.709 122 599.916 290 642.365C500 695.426 630 677.273 724 620.489C818 563.705 1047.5 569.755 1196 642.365C1344.5 714.974 1472 734.989 1538 726.145" stroke="url(#paint1_linear_401_2254)" stroke-width="3" stroke-dasharray="18 18"/>
<path d="M1455.5 324C1463.33 348.358 1450.7 404.057 1337.5 431.983C1196 466.892 952.5 396.61 797 466.892C641.5 537.174 566 645.158 441 609.784C316 574.41 47 482.252 -78 499.938" stroke="url(#paint2_linear_401_2254)" stroke-width="3" stroke-dasharray="18 18"/>
</g>
<defs>
<linearGradient id="paint0_linear_401_2254" x1="1430.5" y1="511.109" x2="-8.82528" y2="725.336" gradientUnits="userSpaceOnUse">
<stop stop-color="white"/>
<stop offset="1" stop-color="white" stop-opacity="0"/>
</linearGradient>
<linearGradient id="paint1_linear_401_2254" x1="1458" y1="480.856" x2="4.80452" y2="746.651" gradientUnits="userSpaceOnUse">
<stop stop-color="white"/>
<stop offset="1" stop-color="white" stop-opacity="0"/>
</linearGradient>
<linearGradient id="paint2_linear_401_2254" x1="1442" y1="378.923" x2="-22.9485" y2="736.098" gradientUnits="userSpaceOnUse">
<stop stop-color="white"/>
<stop offset="1" stop-color="white" stop-opacity="0"/>
</linearGradient>
</defs>
</svg>
