<svg width="121" height="30" viewBox="0 0 121 30" fill="none" xmlns="http://www.w3.org/2000/svg">
<path d="M19.0789 3.74828C23.2585 3.76211 27.452 3.76211 31.6316 3.77594C32.673 3.77594 32.562 3.66529 32.3398 4.64731C31.9093 6.45921 31.4372 8.25727 31.0206 10.083C30.9096 10.5671 30.7152 10.6916 30.2292 10.6777C28.3824 10.6501 26.5356 10.6777 24.6749 10.6639C24.2722 10.6639 24.05 10.7746 23.9112 11.1618C23.564 12.1853 23.1613 13.1812 22.6892 14.3983C25.2025 13.3748 27.5492 12.4066 29.882 11.4523C29.9098 11.4938 29.9514 11.5353 29.9792 11.5768C25.6885 17.7179 21.3978 23.8589 17.0933 30C17.0516 29.9862 17.01 29.9723 16.9544 29.9447C17.0239 29.6266 17.0655 29.3084 17.1488 28.9903C17.5654 27.2199 18.0097 25.4634 18.4263 23.693C18.4819 23.444 18.6485 23.1812 18.4541 22.9046L18.468 22.9461C18.7179 22.9184 18.6068 22.7386 18.6346 22.6003C18.829 22.213 18.6207 22.3237 18.4124 22.4066C16.8989 23.0567 15.3715 23.7068 13.8579 24.343C13.6635 24.426 13.3858 24.7165 13.3303 24.2047C13.5663 23.195 13.8024 22.1853 14.0384 21.1757C14.1912 20.8161 14.2884 20.4426 14.3161 20.0553C14.58 18.9903 14.8299 17.9115 15.0937 16.8465C15.1909 16.4454 15.302 16.0304 15.3992 15.6293C15.6492 14.5782 15.8852 13.5408 16.1352 12.4896C16.3018 12.0747 16.4684 11.6459 16.4129 11.1757L16.399 11.1895C16.4407 11.148 16.4684 11.1065 16.5101 11.065C16.6767 10.5256 16.2879 10.6362 16.0102 10.6362C14.2328 10.6362 12.4555 10.6224 10.6781 10.6362C10.2615 10.6362 10.1088 10.5809 10.2337 10.0968C10.7336 8.18811 11.2057 6.26557 11.6501 4.34303C11.7612 3.85893 11.9417 3.72062 12.4277 3.72062C14.2328 3.73445 16.0241 3.70679 17.8292 3.70679C18.2458 3.80361 18.6624 3.81744 19.0789 3.74828ZM20.8563 16.1964C20.8702 16.1411 20.8563 16.0581 20.8702 16.0028C21.7311 14.0111 22.6059 12.0332 23.4529 10.0415C23.6196 9.66806 23.8973 9.69572 24.1889 9.69572C25.9524 9.69572 27.702 9.68189 29.4654 9.70955C29.9376 9.72338 30.1597 9.5989 30.2569 9.11481C30.5346 7.8285 30.8262 6.55603 31.1734 5.29738C31.3122 4.77179 31.1317 4.7303 30.7013 4.7303C24.8276 4.74413 18.954 4.74413 13.0803 4.7303C12.6637 4.7303 12.511 4.88244 12.4277 5.24206C12.1361 6.5422 11.8445 7.84233 11.4835 9.12864C11.3446 9.6404 11.4973 9.70955 11.9556 9.70955C13.7191 9.69572 15.4687 9.72338 17.2321 9.69572C17.7459 9.69572 17.8431 9.8202 17.7043 10.332C17.1627 12.4758 16.6767 14.6196 16.1768 16.7773C15.7047 18.7829 15.2326 20.7884 14.7605 22.8078C15.066 22.9046 15.2604 22.7248 15.4548 22.6418C16.7878 22.0747 18.1347 21.4938 19.4677 20.9267C19.6621 20.8437 19.9121 20.6224 20.0926 20.8022C20.2592 20.9682 20.1204 21.231 20.0648 21.4523C19.926 22.1439 19.7593 22.8492 19.6483 23.5546C19.5788 23.9834 19.3844 24.3983 19.4677 24.9101C20.3148 23.9281 26.7577 14.2324 26.9105 13.6653C25.7302 14.177 24.5916 14.6888 23.4529 15.1591C22.592 15.5049 21.8005 16.0304 20.8563 16.1964Z" fill="#F9C033"/>
<path d="M15.3994 15.657C15.3022 16.0581 15.1911 16.473 15.0939 16.8742C13.0944 17.6072 11.0254 17.7179 8.94253 17.5657C5.94322 17.3582 3.2494 16.4177 1.18043 14.1079C1.15265 14.0664 1.06934 14.0664 1.0138 14.0387C0.819398 15.7815 1.52757 17.1093 2.77728 18.202C3.47157 18.8105 4.27694 19.2808 5.13785 19.6404C8.15105 20.8714 11.2059 20.8576 14.3163 20.0692C14.3024 20.4564 14.2052 20.8299 14.0386 21.1895C9.17859 22.0747 4.65185 21.7013 1.02768 17.8008C0.833284 19.2531 1.2082 20.4979 2.1802 21.5768C2.97168 22.4481 3.9298 23.0706 4.99899 23.5408C7.69282 24.7165 10.4838 24.8963 13.3443 24.2324C13.3998 24.7441 13.6776 24.4537 13.872 24.3707C15.3994 23.7345 16.9129 23.0844 18.4265 22.4343C18.6348 22.3513 18.843 22.2407 18.6486 22.628C18.5237 22.7109 18.3154 22.7524 18.482 22.9737L18.4681 22.9322C18.2321 22.7939 18.1488 23.0291 18.0238 23.1259C13.9414 26.2379 7.29014 26.4454 3.01334 23.5823C1.04157 22.2545 -0.069287 20.5118 0.000141509 18.0221C0.0973414 14.3845 0.0417986 10.7469 0.0140272 7.10928C0.000141509 5.56018 0.55557 4.28771 1.61088 3.19504C3.29105 1.46613 5.40168 0.622422 7.73448 0.221315C10.7754 -0.290441 13.7192 0.0276777 16.4686 1.52145C17.4961 2.0747 18.4126 2.76627 19.0791 3.73446C18.6625 3.80361 18.2598 3.78978 17.8433 3.73446C17.5933 3.38867 17.2462 3.16737 16.9129 2.91841C13.1916 0.304303 6.99854 0.331966 3.31882 3.0014C0.291741 5.18674 0.222313 8.34026 3.1522 10.6501C3.20774 10.6916 3.26328 10.7331 3.31882 10.7746C5.79048 12.4758 8.55373 13.0844 11.5253 12.8078C13.2749 12.6418 14.8578 11.9641 16.413 11.2033C16.4686 11.6736 16.302 12.0885 16.1353 12.5173C12.8166 13.9558 9.41465 14.2877 5.92934 13.1535C4.04088 12.545 2.3746 11.5629 1.02768 9.97235C0.874941 11.3555 1.22208 12.4896 2.02745 13.4855C2.91614 14.5782 4.05477 15.3112 5.34614 15.7815C8.70648 16.9848 12.0668 17.0401 15.3994 15.657Z" fill="white"/>
<path d="M55.9045 15.2144C55.9045 16.5007 55.8628 17.7317 55.9184 18.9488C55.9462 19.5851 55.599 19.5159 55.1963 19.5298C54.7381 19.5436 54.4743 19.5159 54.4882 18.9212C54.5298 16.9571 54.502 15.0069 54.5159 13.0429C54.5159 12.8078 54.3354 12.379 54.7381 12.3652C55.1963 12.3513 55.7656 12.0609 56.0989 12.6833C56.7654 13.9143 57.4597 15.1453 58.1401 16.3762C58.2095 16.4869 58.2928 16.5975 58.5011 16.7082C58.5011 15.8368 58.5011 14.9516 58.5011 14.0802C58.5011 13.7621 58.5428 13.4302 58.4872 13.1121C58.39 12.4482 58.6677 12.3098 59.2926 12.3237C59.8064 12.3375 59.8897 12.5311 59.8897 12.9737C59.8619 14.9101 59.8897 16.8465 59.8758 18.7829C59.8758 19.0318 60.098 19.4883 59.6259 19.5021C59.1676 19.5159 58.6122 19.7787 58.279 19.1425C57.6819 17.9945 57.0292 16.8742 56.4044 15.7538C56.2933 15.574 56.2378 15.3527 55.9045 15.2144Z" fill="#F9C033"/>
<path d="M99.6159 19.4329C98.2273 19.6681 98.2134 19.6681 97.6719 18.5201C97.4775 18.1051 97.2831 17.6902 97.0887 17.2614C96.9915 17.0401 96.8804 16.9018 96.5888 16.888C96.0611 16.8465 95.7418 16.9433 95.839 17.5796C95.8945 17.9392 95.8528 18.3126 95.8528 18.6861C95.8528 19.5021 95.5196 19.7372 94.7281 19.5298C94.4643 19.4606 94.4921 19.2946 94.4921 19.1148C94.4921 16.9986 94.4921 14.8825 94.4921 12.7663C94.4921 12.4205 94.6448 12.3375 94.9503 12.3513C95.7418 12.3652 96.5194 12.3375 97.3108 12.3652C98.2551 12.4067 99.0327 12.9737 99.2826 13.7483C99.5742 14.6335 99.3382 15.74 98.63 16.2656C98.2412 16.556 98.3106 16.7635 98.4911 17.0955C98.866 17.8424 99.2271 18.6307 99.6159 19.4329ZM95.839 14.6335C95.8806 15.1038 95.589 15.7538 96.5749 15.6708C97.6024 15.5879 97.9774 15.3666 97.9635 14.5643C97.9496 13.7898 97.6024 13.61 96.6027 13.5132C95.5751 13.444 95.8945 14.1217 95.839 14.6335Z" fill="#F9C033"/>
<path d="M115.64 15.9198C115.64 14.8825 115.668 13.8451 115.627 12.8078C115.599 12.2269 115.946 12.3098 116.293 12.3237C116.626 12.3375 117.071 12.1577 117.043 12.7939C117.015 13.4302 117.057 14.0802 117.029 14.7303C117.015 15.1453 117.182 15.2421 117.557 15.2282C118.084 15.2006 118.626 15.2006 119.154 15.2282C119.528 15.2421 119.64 15.1038 119.626 14.7441C119.612 14.0941 119.653 13.4578 119.612 12.8078C119.57 12.1715 120.001 12.3237 120.348 12.3098C120.695 12.296 121.014 12.2269 121.014 12.8078C120.986 14.8825 120.986 16.9571 121.014 19.018C121.028 19.6681 120.598 19.4744 120.264 19.4883C119.903 19.5159 119.584 19.5298 119.612 18.9765C119.653 18.285 119.612 17.5934 119.626 16.9018C119.64 16.5422 119.515 16.4316 119.154 16.4177C117.043 16.3209 117.043 16.3071 117.043 18.3818C117.043 18.4786 117.043 18.5616 117.043 18.6584C117.043 19.4606 116.696 19.6957 115.89 19.4883C115.585 19.4053 115.654 19.184 115.654 19.0042C115.627 17.9945 115.64 16.9571 115.64 15.9198Z" fill="#F9C033"/>
<path d="M92.3677 17.2061C92.3677 18.7552 92.1872 19.0318 90.9514 19.3776C89.4934 19.7787 88.1465 19.3914 87.5355 18.2573C86.7024 16.6805 86.7163 15.0484 87.5772 13.4993C88.1326 12.5035 89.1185 12.213 90.2016 12.3652C91.2152 12.5035 91.965 13.0429 92.2289 14.0802C92.2844 14.2877 92.5344 14.6473 92.1456 14.7026C91.7706 14.7441 91.1874 15.0208 90.9792 14.4952C90.7153 13.8036 90.2849 13.4717 89.5628 13.5823C88.8269 13.693 88.5492 14.2739 88.452 14.9101C88.327 15.657 88.2992 16.4316 88.5075 17.1784C88.7436 18.0221 89.3129 18.3818 90.1738 18.2988C90.8959 18.2296 91.1874 17.7732 90.9514 17.0816C90.8403 16.7497 90.5765 16.8603 90.3821 16.8742C89.9516 16.9018 89.7156 16.8188 89.7156 16.2932C89.7017 15.7262 89.9933 15.6985 90.396 15.74C90.5626 15.7538 90.7153 15.74 90.882 15.74C92.3677 15.7262 92.3677 15.7262 92.3677 17.2061Z" fill="#F9C033"/>
<path d="M43.2127 15.906C43.1572 15.1867 43.296 14.4952 43.6154 13.8451C44.1014 12.8769 44.8929 12.3513 45.9899 12.3375C47.0868 12.3237 47.9061 12.8492 48.3643 13.8313C49.0031 15.2144 48.9892 16.6528 48.3643 18.036C47.92 18.9903 47.1146 19.5021 46.0454 19.5159C44.9901 19.5297 44.1847 19.0456 43.671 18.119C43.2822 17.4274 43.1572 16.6943 43.2127 15.906ZM44.5874 15.8645C44.5596 16.4454 44.5874 17.0125 44.8651 17.538C45.1151 17.9945 45.4761 18.2849 46.0176 18.2711C46.5314 18.2573 46.9063 17.9945 47.1007 17.538C47.5589 16.4592 47.5589 15.3527 47.0868 14.2739C46.8924 13.8174 46.5036 13.5685 45.9899 13.5685C45.4761 13.5685 45.1151 13.8313 44.879 14.26C44.6013 14.7718 44.5596 15.3112 44.5874 15.8645Z" fill="#F9C033"/>
<path d="M80.9264 15.9198C80.9264 14.9101 80.9403 13.9004 80.9125 12.8769C80.8986 12.4758 80.982 12.296 81.4402 12.3098C82.5649 12.3375 83.7036 12.3513 84.8283 12.3098C85.3837 12.2822 85.3421 12.5864 85.356 12.9461C85.3698 13.3472 85.3143 13.5961 84.8005 13.5546C84.1618 13.5131 83.5092 13.5685 82.8565 13.5408C82.4261 13.527 82.3011 13.6791 82.315 14.0941C82.3566 15.5048 82.1761 15.1867 83.4536 15.2282C83.7036 15.2421 83.9674 15.2421 84.2173 15.2282C84.6339 15.2006 84.9533 15.1867 84.9394 15.8091C84.9255 16.3624 84.7311 16.4869 84.2451 16.4315C84.0229 16.4039 83.7869 16.4177 83.5508 16.4315C83.162 16.4592 82.6344 16.2379 82.44 16.556C82.1761 16.971 82.3566 17.538 82.3566 18.036C82.3566 18.3541 82.6344 18.2849 82.8288 18.2849C83.523 18.2988 84.2173 18.3126 84.9116 18.2849C85.4254 18.2573 85.3976 18.5616 85.3837 18.9073C85.3837 19.2393 85.4393 19.5436 84.9116 19.5297C83.7591 19.5021 82.6066 19.5021 81.4541 19.5297C81.0653 19.5436 80.9264 19.4191 80.9403 19.0318C80.9542 17.9806 80.9264 16.9571 80.9264 15.9198Z" fill="#F9C033"/>
<path d="M68.6651 15.906C68.6651 14.8963 68.679 13.8728 68.6513 12.8631C68.6374 12.4343 68.7901 12.3098 69.2067 12.3237C70.3175 12.3513 71.4284 12.3652 72.5393 12.3237C73.0391 12.3098 73.1086 12.5311 73.0947 12.9323C73.0808 13.2919 73.1224 13.61 72.567 13.5685C71.9283 13.527 71.2757 13.5823 70.623 13.5547C70.2203 13.5408 70.0121 13.6653 70.0676 14.0941C70.0954 14.3016 70.0815 14.509 70.0676 14.7165C70.0259 15.1038 70.1787 15.2559 70.5814 15.2421C71.1368 15.2144 71.6922 15.2559 72.2476 15.2282C72.7475 15.2006 72.6642 15.5325 72.6642 15.823C72.6642 16.0996 72.7753 16.4592 72.2615 16.4316C71.7061 16.4177 71.1507 16.4454 70.5952 16.4177C70.2065 16.4039 70.0676 16.5422 70.0676 16.9433C70.0954 18.6169 69.901 18.2435 71.3451 18.285C71.6922 18.2988 72.0394 18.3264 72.3865 18.285C72.9836 18.2158 73.1363 18.4648 73.1086 19.018C73.0808 19.4053 72.9697 19.5298 72.5809 19.5159C71.4423 19.4883 70.3175 19.4883 69.1789 19.5159C68.7901 19.5298 68.6513 19.4053 68.6651 19.0042C68.679 17.9807 68.6651 16.9433 68.6651 15.906Z" fill="#F9C033"/>
<path d="M103.949 18.0498C103.81 18.0498 103.671 18.0636 103.532 18.0498C102.935 17.9392 102.644 18.2158 102.533 18.7829C102.463 19.101 102.491 19.5159 101.922 19.5298C100.825 19.5574 100.825 19.5851 101.172 18.5616C101.824 16.6667 102.477 14.7718 103.102 12.8769C103.241 12.4482 103.435 12.296 103.893 12.3237C104.296 12.3513 104.602 12.3237 104.768 12.8493C105.407 14.8686 106.129 16.8603 106.809 18.8659C106.879 19.0595 107.184 19.4191 106.809 19.4883C106.407 19.5574 105.907 19.7511 105.532 19.3223C105.49 19.267 105.476 19.1978 105.462 19.1287C105.046 18.0498 105.046 18.0498 103.949 18.0498ZM103.949 14.1909C103.754 14.8271 103.602 15.2974 103.463 15.7677C103.116 16.9295 103.13 16.9433 104.352 16.8465C104.657 16.8188 104.768 16.7635 104.657 16.4316C104.407 15.7538 104.199 15.0484 103.949 14.1909Z" fill="#F9C033"/>
<path d="M108.642 15.9198C108.642 14.9101 108.656 13.9004 108.628 12.8908C108.614 12.4897 108.711 12.3098 109.156 12.3237C109.92 12.3652 110.683 12.3098 111.433 12.3513C112.752 12.4067 113.655 13.3472 113.696 14.675C113.738 15.9336 112.863 16.8603 111.544 17.0125C111.03 17.0678 110.336 16.7358 110.058 17.2061C109.822 17.5934 109.947 18.2435 110.003 18.769C110.072 19.4191 109.822 19.5851 109.197 19.5574C108.753 19.5298 108.587 19.4329 108.6 18.9765C108.67 17.9392 108.642 16.9295 108.642 15.9198ZM110.711 15.7815C111.336 15.7953 111.919 15.8506 112.211 15.2144C112.433 14.7303 112.35 14.2462 112.002 13.8589C111.503 13.3334 110.808 13.4993 110.225 13.5962C109.781 13.6791 110.086 14.2324 110.017 14.5643C109.989 14.7165 110.031 14.8825 110.003 15.0484C109.906 15.6708 110.169 15.906 110.711 15.7815Z" fill="#F9C033"/>
<path d="M37.5058 15.9475C37.478 16.4869 37.5058 16.9986 37.714 17.5104C37.9362 18.036 38.3111 18.2988 38.8943 18.2849C39.4775 18.2711 39.8524 18.0083 40.0191 17.4551C40.1302 17.0955 41.1299 16.8327 41.3937 17.0816C41.5465 17.2476 41.4354 17.4412 41.3937 17.6072C41.1438 18.6169 40.4912 19.267 39.4775 19.4744C38.4083 19.6819 37.4502 19.4329 36.7837 18.5063C35.8534 17.2199 35.8534 14.6612 36.7837 13.3887C37.3947 12.545 38.2695 12.2269 39.2831 12.379C40.2968 12.5173 41.0327 13.0844 41.3382 14.0941C41.4215 14.343 41.727 14.7995 41.2688 14.8686C40.88 14.924 40.2412 15.2697 40.0329 14.4537C39.8524 13.7206 39.1581 13.3887 38.4639 13.6376C37.9779 13.8036 37.7696 14.2047 37.6307 14.6612C37.478 15.0761 37.5335 15.5187 37.5058 15.9475Z" fill="#F9C033"/>
<path d="M63.4995 16.5422C63.4995 15.7123 63.4856 14.8825 63.5134 14.0526C63.5273 13.6653 63.4023 13.4993 62.9996 13.5408C62.7497 13.5685 62.4858 13.5132 62.2359 13.5547C61.6388 13.6376 61.4861 13.3887 61.5138 12.8216C61.5416 12.4482 61.611 12.296 62.0137 12.296C63.4717 12.3237 64.9297 12.3237 66.3738 12.296C66.8321 12.2822 66.9293 12.4758 66.9015 12.8631C66.8737 13.195 66.9987 13.5685 66.4155 13.5408C65.9156 13.527 65.263 13.3057 64.9575 13.6515C64.652 14.0111 64.8603 14.6612 64.8603 15.1867C64.8464 16.4592 64.8325 17.7179 64.8742 18.9765C64.8881 19.5436 64.5687 19.4883 64.2215 19.4744C63.8883 19.4606 63.4439 19.6404 63.4717 18.9903C63.5273 18.202 63.4995 17.3721 63.4995 16.5422Z" fill="#F9C033"/>
<path d="M74.8857 15.8783C74.8857 14.8824 74.9273 13.9004 74.8718 12.9184C74.844 12.3098 75.1634 12.3375 75.5939 12.3237C76.066 12.3098 76.302 12.3652 76.2881 12.9322C76.2465 14.5228 76.2881 16.0996 76.2604 17.6902C76.2465 18.1743 76.3992 18.3264 76.8852 18.2988C77.4823 18.2573 78.0933 18.3126 78.6904 18.2849C79.2041 18.2573 79.1764 18.5616 79.1625 18.9073C79.1625 19.2393 79.218 19.5436 78.6904 19.5297C77.5795 19.5021 76.4687 19.5021 75.3717 19.5297C74.9412 19.5436 74.8857 19.3361 74.8996 18.9903C74.8996 17.9392 74.8857 16.9156 74.8857 15.8783Z" fill="#F9C033"/>
<path d="M50.8638 15.8506C50.8638 14.841 50.8916 13.8174 50.8499 12.8078C50.8221 12.1577 51.2526 12.3375 51.5859 12.3237C51.9191 12.3098 52.2524 12.2269 52.2524 12.8078C52.2246 14.8825 52.2246 16.9571 52.2524 19.018C52.2662 19.5989 51.9191 19.5159 51.5859 19.5021C51.2526 19.4883 50.8221 19.6542 50.8499 19.018C50.8916 17.9668 50.8638 16.9156 50.8638 15.8506Z" fill="#F9C033"/>
<path d="M18.4683 22.9737C18.3016 22.7524 18.5099 22.7109 18.6349 22.628C18.621 22.7524 18.7182 22.9461 18.4683 22.9737Z" fill="#FEFEFE"/>
<path d="M16.3994 11.2172C16.4414 11.1757 16.4694 11.1342 16.5114 11.0927C16.4834 11.1342 16.4414 11.1757 16.3994 11.2172Z" fill="white"/>
<path d="M20.8572 16.1964C20.843 16.2241 20.8287 16.2379 20.8145 16.2656C20.8145 16.2517 20.8145 16.2379 20.8145 16.2241C20.8287 16.2102 20.843 16.2102 20.8572 16.1964C20.8715 16.1964 20.8572 16.1964 20.8572 16.1964Z" fill="#F9C033"/>
</svg>
