<svg width="41" height="53" viewBox="0 0 41 53" fill="none" xmlns="http://www.w3.org/2000/svg">
<path d="M40.0938 0.671875H27.625C27.1334 0.671875 26.7344 1.07177 26.7344 1.5625V5.125H24.9531C23.9708 5.125 23.1719 5.92389 23.1719 6.90625C23.1719 7.88861 23.9708 8.6875 24.9531 8.6875H26.7344V13.1406H30.2969C30.2969 11.1759 31.8947 9.57812 33.8594 9.57812C35.8241 9.57812 37.4219 11.1759 37.4219 13.1406H40.0938C40.5854 13.1406 40.9844 12.7407 40.9844 12.25V1.5625C40.9844 1.07177 40.5854 0.671875 40.0938 0.671875Z" fill="url(#paint0_linear_148_13132)"/>
<path d="M16.0468 52.3281C18.1967 52.3281 19.9958 50.7954 20.4099 48.7656H11.6836C12.0977 50.7954 13.8968 52.3281 16.0468 52.3281Z" fill="url(#paint1_linear_148_13132)"/>
<path fill-rule="evenodd" clip-rule="evenodd" d="M8.92227 16.7031C10.887 16.7031 12.4848 18.3009 12.4848 20.2656H16.0473V17.5938C14.0825 17.5938 12.4848 15.996 12.4848 14.0312C12.4848 12.0665 14.0825 10.4688 16.0473 10.4688V6.01562H15.4408C7.33072 6.01562 0.662609 12.307 0.0605469 20.2656H5.35977C5.35977 18.3009 6.95755 16.7031 8.92227 16.7031ZM9.81273 39.8594H16.0471V32.7344C14.0824 32.7344 12.4846 31.1366 12.4846 29.1719C12.4846 27.2072 14.0824 25.6094 16.0471 25.6094V22.0469H10.7034V20.2656C10.7034 19.2833 9.90446 18.4844 8.9221 18.4844C7.93974 18.4844 7.14085 19.2833 7.14085 20.2656V22.0469H0.0283203C0.19843 26.4626 2.23529 30.5648 5.6731 33.3783L9.81273 36.7653V39.8594ZM24.9531 18.4844C25.9355 18.4844 26.7344 19.2833 26.7344 20.2656V22.0469H32.0657C31.8947 26.4626 29.8587 30.5648 26.4209 33.3783L22.2812 36.7653V39.8594H17.8281V30.9531H16.0469C15.0645 30.9531 14.2656 30.1542 14.2656 29.1719C14.2656 28.1895 15.0645 27.3906 16.0469 27.3906H17.8281V22.0469H23.1719V20.2656C23.1719 19.2833 23.9708 18.4844 24.9531 18.4844Z" fill="url(#paint2_linear_148_13132)"/>
<path d="M21.3906 45.2031H10.7031C10.2115 45.2031 9.8125 45.603 9.8125 46.0938C9.8125 46.5845 10.2115 46.9844 10.7031 46.9844H21.3906C21.8822 46.9844 22.2812 46.5845 22.2812 46.0938C22.2812 45.603 21.8822 45.2031 21.3906 45.2031Z" fill="url(#paint3_linear_148_13132)"/>
<path d="M23.1719 41.6406H8.92188C8.43025 41.6406 8.03125 42.0405 8.03125 42.5312C8.03125 43.022 8.43025 43.4219 8.92188 43.4219H10.7031H21.3906H23.1719C23.6635 43.4219 24.0625 43.022 24.0625 42.5312C24.0625 42.0405 23.6635 41.6406 23.1719 41.6406Z" fill="url(#paint4_linear_148_13132)"/>
<defs>
<linearGradient id="paint0_linear_148_13132" x1="39" y1="-1" x2="31.6275" y2="20.603" gradientUnits="userSpaceOnUse">
<stop stop-color="#00B4D8"/>
<stop offset="0.857292" stop-color="#00B4D8" stop-opacity="0.22"/>
</linearGradient>
<linearGradient id="paint1_linear_148_13132" x1="18.7844" y1="49.1174" x2="17.454" y2="53.3074" gradientUnits="userSpaceOnUse">
<stop stop-color="#00B4D8"/>
<stop offset="1" stop-color="#00B4D8" stop-opacity="0.3"/>
</linearGradient>
<linearGradient id="paint2_linear_148_13132" x1="26.0979" y1="9.35734" x2="0.203977" y2="43.1227" gradientUnits="userSpaceOnUse">
<stop stop-color="#00B4D8"/>
<stop offset="0.857292" stop-color="#00B4D8" stop-opacity="0.22"/>
</linearGradient>
<linearGradient id="paint3_linear_148_13132" x1="19.9586" y1="45.379" x2="19.7055" y2="47.6571" gradientUnits="userSpaceOnUse">
<stop stop-color="#00B4D8"/>
<stop offset="1" stop-color="#00B4D8" stop-opacity="0.3"/>
</linearGradient>
<linearGradient id="paint4_linear_148_13132" x1="21.0763" y1="41.8165" x2="20.8785" y2="44.1057" gradientUnits="userSpaceOnUse">
<stop stop-color="#00B4D8"/>
<stop offset="1" stop-color="#00B4D8" stop-opacity="0.3"/>
</linearGradient>
</defs>
</svg>
