<svg width="48" height="48" viewBox="0 0 48 48" fill="none" xmlns="http://www.w3.org/2000/svg">
<path d="M9.29088 0L0.768555 4.9711L9.29088 9.94219L17.8132 4.9711L9.29088 0Z" fill="url(#paint0_linear_148_13120)"/>
<path d="M29.4193 12.3871H18.5806V6.31738L10.0645 11.28V20.4542L18.5806 15.4838H13.9354V13.9354H18.5806H29.4193H34.0645V15.4838H29.4193L37.9354 20.4542V11.28L29.4193 6.31738V12.3871Z" fill="url(#paint1_linear_148_13120)"/>
<path d="M8.51613 11.2831L0 6.31592V15.4839L8.51613 20.4519V11.2831Z" fill="url(#paint2_linear_148_13120)"/>
<path d="M38.7098 0L30.1875 4.9711L38.7098 9.94219L47.2321 4.9711L38.7098 0Z" fill="url(#paint3_linear_148_13120)"/>
<path d="M39.4834 20.4519L47.9995 15.4839V6.31592L39.4834 11.2831V20.4519Z" fill="url(#paint4_linear_148_13120)"/>
<path d="M8.51613 38.3798L0 33.4126V42.5806L8.51613 47.5486V38.3798Z" fill="url(#paint5_linear_148_13120)"/>
<path d="M8.51628 27.5481L0.766602 32.0671L9.29047 37.0374L17.8143 32.0671L11.6131 28.4516V32.5161H10.0647V27.5458V22.2441L9.29047 22.6955L8.51628 22.2441V27.5481Z" fill="url(#paint6_linear_148_13120)"/>
<path d="M39.4836 22.2441L38.7094 22.6955L37.9352 22.2441V27.5481L30.1855 32.0671L38.7094 37.0374L47.2333 32.0671L41.032 28.4516V32.5161H39.4836V27.5458V22.2441Z" fill="url(#paint7_linear_148_13120)"/>
<path d="M10.0645 38.3769V47.5511L18.5806 42.5808H13.9354V41.0324H18.5806H29.4193H34.0645V42.5808H29.4193L37.9354 47.5511V38.3769L29.4193 33.4143V39.484H18.5806V33.4143L10.0645 38.3769Z" fill="url(#paint8_linear_148_13120)"/>
<path d="M39.4834 47.5486L47.9995 42.5806V33.4126L39.4834 38.3798V47.5486Z" fill="url(#paint9_linear_148_13120)"/>
<defs>
<linearGradient id="paint0_linear_148_13120" x1="14.6382" y1="0.981687" x2="9.79504" y2="11.657" gradientUnits="userSpaceOnUse">
<stop stop-color="#00B4D8"/>
<stop offset="1" stop-color="#00B4D8" stop-opacity="0.32"/>
</linearGradient>
<linearGradient id="paint1_linear_148_13120" x1="32.7438" y1="7.71324" x2="26.4954" y2="23.5517" gradientUnits="userSpaceOnUse">
<stop stop-color="#00B4D8"/>
<stop offset="1" stop-color="#00B4D8" stop-opacity="0.32"/>
</linearGradient>
<linearGradient id="paint2_linear_148_13120" x1="6.92979" y1="7.7117" x2="-1.93076" y2="14.5748" gradientUnits="userSpaceOnUse">
<stop stop-color="#00B4D8"/>
<stop offset="1" stop-color="#00B4D8" stop-opacity="0.32"/>
</linearGradient>
<linearGradient id="paint3_linear_148_13120" x1="44.0572" y1="0.981687" x2="39.214" y2="11.657" gradientUnits="userSpaceOnUse">
<stop stop-color="#00B4D8"/>
<stop offset="1" stop-color="#00B4D8" stop-opacity="0.32"/>
</linearGradient>
<linearGradient id="paint4_linear_148_13120" x1="46.4132" y1="7.7117" x2="37.5526" y2="14.5748" gradientUnits="userSpaceOnUse">
<stop stop-color="#00B4D8"/>
<stop offset="1" stop-color="#00B4D8" stop-opacity="0.32"/>
</linearGradient>
<linearGradient id="paint5_linear_148_13120" x1="6.92979" y1="34.8084" x2="-1.93076" y2="41.6715" gradientUnits="userSpaceOnUse">
<stop stop-color="#00B4D8"/>
<stop offset="1" stop-color="#00B4D8" stop-opacity="0.32"/>
</linearGradient>
<linearGradient id="paint6_linear_148_13120" x1="14.6388" y1="23.7048" x2="5.75736" y2="36.864" gradientUnits="userSpaceOnUse">
<stop stop-color="#00B4D8"/>
<stop offset="1" stop-color="#00B4D8" stop-opacity="0.32"/>
</linearGradient>
<linearGradient id="paint7_linear_148_13120" x1="44.0577" y1="23.7048" x2="35.1763" y2="36.864" gradientUnits="userSpaceOnUse">
<stop stop-color="#00B4D8"/>
<stop offset="1" stop-color="#00B4D8" stop-opacity="0.32"/>
</linearGradient>
<linearGradient id="paint8_linear_148_13120" x1="32.7438" y1="34.8102" x2="26.4954" y2="50.6486" gradientUnits="userSpaceOnUse">
<stop stop-color="#00B4D8"/>
<stop offset="1" stop-color="#00B4D8" stop-opacity="0.32"/>
</linearGradient>
<linearGradient id="paint9_linear_148_13120" x1="46.4132" y1="34.8084" x2="37.5526" y2="41.6715" gradientUnits="userSpaceOnUse">
<stop stop-color="#00B4D8"/>
<stop offset="1" stop-color="#00B4D8" stop-opacity="0.32"/>
</linearGradient>
</defs>
</svg>
