<svg width="76" height="55" viewBox="0 0 76 55" fill="none" xmlns="http://www.w3.org/2000/svg">
<path d="M75.5 40C75.5 38.2649 74.5472 36.5493 72.6854 34.9276C70.8247 33.3069 68.1033 31.8245 64.6972 30.5697C57.889 28.0614 48.4502 26.5 38 26.5C27.5498 26.5 18.111 28.0614 11.3028 30.5697C7.89671 31.8245 5.17532 33.3069 3.31464 34.9276C1.4528 36.5493 0.5 38.2649 0.5 40C0.5 41.7351 1.4528 43.4507 3.31464 45.0724C5.17532 46.6931 7.89671 48.1755 11.3028 49.4303C18.111 51.9386 27.5498 53.5 38 53.5C48.4502 53.5 57.889 51.9386 64.6972 49.4303C68.1033 48.1755 70.8247 46.6931 72.6854 45.0724C74.5472 43.4507 75.5 41.7351 75.5 40Z" stroke="url(#paint0_linear_148_13302)"/>
<path fill-rule="evenodd" clip-rule="evenodd" d="M28.832 6.44531C25.2724 6.44531 22.3867 9.33099 22.3867 12.8906V18.2617H15.9414V12.8906C15.9414 5.77135 21.7128 0 28.832 0C35.9513 0 41.7227 5.77135 41.7227 12.8906V18.2617H35.2773V12.8906C35.2773 9.33099 32.3917 6.44531 28.832 6.44531ZM42.2598 24.9219C39.5943 24.9219 37.4258 27.0904 37.4258 29.7559V38.9508C37.4258 41.463 37.8882 43.9056 38.7824 46.1914H15.4043C13.3312 46.1914 11.6445 44.5048 11.6445 42.4316V25.2441C11.6445 23.171 13.3312 21.4844 15.4043 21.4844H42.2598C43.2677 21.4844 44.1836 21.8839 44.8594 22.5318C44.6798 22.7691 44.5182 23.0236 44.3815 23.2971L44.1546 23.7509C43.7879 24.4841 43.0796 24.9219 42.2598 24.9219ZM30.4434 38.6719V36.7834C32.3188 36.1182 33.666 34.3272 33.666 32.2266C33.666 29.5611 31.4975 27.3926 28.832 27.3926C26.1666 27.3926 23.998 29.5611 23.998 32.2266C23.998 34.3272 25.3452 36.1182 27.2207 36.7834V38.6719C27.2207 39.5618 27.9421 40.2832 28.832 40.2832C29.7219 40.2832 30.4434 39.5618 30.4434 38.6719ZM30.4434 32.2266C30.4434 33.1165 29.7219 33.8379 28.832 33.8379C27.9421 33.8379 27.2207 33.1165 27.2207 32.2266C27.2207 31.3367 27.9421 30.6152 28.832 30.6152C29.7219 30.6152 30.4434 31.3367 30.4434 32.2266ZM63.7441 28.1445C61.708 28.1445 59.8774 27.0132 58.9669 25.1921L58.7401 24.7385C58.4671 24.1925 57.9092 23.8477 57.2988 23.8477H48.7051C48.0947 23.8477 47.5368 24.1925 47.2638 24.7384L47.037 25.1919C46.1265 27.0132 44.2959 28.1445 42.2598 28.1445C41.3699 28.1445 40.6484 28.866 40.6484 29.7559V38.9508C40.6484 42.566 41.7892 46.0101 43.9472 48.9106C46.1051 51.811 49.0762 53.8932 52.539 54.932C52.69 54.9773 52.846 55 53.002 55C53.1579 55 53.3139 54.9773 53.4649 54.932C56.9277 53.8932 59.8988 51.811 62.0568 48.9106C64.2148 46.0101 65.3555 42.566 65.3555 38.9508V29.7559C65.3555 28.866 64.634 28.1445 63.7441 28.1445ZM52.6222 43.6015C52.3076 43.9161 51.8952 44.0735 51.4829 44.0735C51.0706 44.0735 50.6581 43.9162 50.3436 43.6015L47.3053 40.5631C46.676 39.9339 46.676 38.9137 47.3053 38.2844C47.9344 37.6551 48.9547 37.6551 49.584 38.2844L51.483 40.1833L56.4203 35.2461C57.0495 34.6168 58.0698 34.6168 58.6991 35.2461C59.3281 35.8754 59.3281 36.8955 58.6989 37.5248L52.6222 43.6015Z" fill="url(#paint1_linear_148_13302)"/>
<g clip-path="url(#clip0_148_13302)">
<path d="M75.5 40C75.5 38.2649 74.5472 36.5493 72.6854 34.9276C70.8247 33.3069 68.1033 31.8245 64.6972 30.5697C57.889 28.0614 48.4502 26.5 38 26.5C27.5498 26.5 18.111 28.0614 11.3028 30.5697C7.89671 31.8245 5.17532 33.3069 3.31464 34.9276C1.4528 36.5493 0.5 38.2649 0.5 40C0.5 41.7351 1.4528 43.4507 3.31464 45.0724C5.17532 46.6931 7.89671 48.1755 11.3028 49.4303C18.111 51.9386 27.5498 53.5 38 53.5C48.4502 53.5 57.889 51.9386 64.6972 49.4303C68.1033 48.1755 70.8247 46.6931 72.6854 45.0724C74.5472 43.4507 75.5 41.7351 75.5 40Z" stroke="url(#paint2_linear_148_13302)"/>
</g>
<defs>
<linearGradient id="paint0_linear_148_13302" x1="50" y1="58" x2="40" y2="14" gradientUnits="userSpaceOnUse">
<stop stop-color="#00B4D8"/>
<stop offset="0.857292" stop-color="#0C0248"/>
</linearGradient>
<linearGradient id="paint1_linear_148_13302" x1="43" y1="16.5" x2="23.1714" y2="52.5442" gradientUnits="userSpaceOnUse">
<stop stop-color="#00B4D8"/>
<stop offset="1" stop-color="#0C0248"/>
</linearGradient>
<linearGradient id="paint2_linear_148_13302" x1="50" y1="58" x2="40" y2="14" gradientUnits="userSpaceOnUse">
<stop stop-color="#00B4D8"/>
<stop offset="0.857292" stop-color="#0C0248"/>
</linearGradient>
<clipPath id="clip0_148_13302">
<rect width="76" height="14" fill="white" transform="translate(0 40)"/>
</clipPath>
</defs>
</svg>
