<svg width="76" height="55" viewBox="0 0 76 55" fill="none" xmlns="http://www.w3.org/2000/svg">
<path d="M32.4069 55C32.193 55 31.9763 54.9572 31.7694 54.868C31.0453 54.5557 30.6536 53.7652 30.8438 52.9999L36.2926 31.0668H21.6113C21.0799 31.0668 20.5827 30.8048 20.2822 30.3664C19.9817 29.928 19.9169 29.3698 20.1085 28.8741L30.8788 1.03006C31.1189 0.409276 31.7159 0 32.3816 0H47.2017C47.7462 0 48.2539 0.274999 48.5514 0.73111C48.8488 1.18722 48.8958 1.76268 48.6763 2.26101L42.2988 16.7371H54.9121C55.5014 16.7371 56.0437 17.0588 56.3262 17.576C56.6087 18.0931 56.5863 18.7232 56.2678 19.2191L33.7634 54.2592C33.459 54.7332 32.9416 55 32.4069 55V55Z" fill="url(#paint0_linear_407_2258)"/>
<g clip-path="url(#clip0_407_2258)">
<path d="M75.5 34C75.5 32.2649 74.5472 30.5493 72.6854 28.9276C70.8247 27.3069 68.1033 25.8245 64.6972 24.5697C57.889 22.0614 48.4502 20.5 38 20.5C27.5498 20.5 18.111 22.0614 11.3028 24.5697C7.89671 25.8245 5.17532 27.3069 3.31464 28.9276C1.4528 30.5493 0.5 32.2649 0.5 34C0.5 35.7351 1.4528 37.4507 3.31464 39.0724C5.17532 40.6931 7.89671 42.1755 11.3028 43.4303C18.111 45.9386 27.5498 47.5 38 47.5C48.4502 47.5 57.889 45.9386 64.6972 43.4303C68.1033 42.1755 70.8247 40.6931 72.6854 39.0724C74.5472 37.4507 75.5 35.7351 75.5 34Z" stroke="url(#paint1_linear_407_2258)"/>
</g>
<defs>
<linearGradient id="paint0_linear_407_2258" x1="46.5" y1="5.5" x2="8.40278" y2="44.9579" gradientUnits="userSpaceOnUse">
<stop stop-color="#00B4D8"/>
<stop offset="0.857292" stop-color="#0C0248"/>
</linearGradient>
<linearGradient id="paint1_linear_407_2258" x1="50" y1="52" x2="40" y2="8" gradientUnits="userSpaceOnUse">
<stop stop-color="#00B4D8"/>
<stop offset="0.857292" stop-color="#0C0248"/>
</linearGradient>
<clipPath id="clip0_407_2258">
<rect width="76" height="14" fill="white" transform="translate(0 34)"/>
</clipPath>
</defs>
</svg>
