<svg width="77" height="55" viewBox="0 0 77 55" fill="none" xmlns="http://www.w3.org/2000/svg">
<path fill-rule="evenodd" clip-rule="evenodd" d="M53.6523 3.4741C61.1762 11.5422 61.2015 24.0325 53.6534 32.1267C60.5252 30.9805 65.7803 24.9939 65.7803 17.801C65.7803 10.6091 60.5252 4.62029 53.6523 3.4741ZM44.853 42.002L47.9425 42.002C49.3725 42.002 50.0933 43.7338 49.0865 44.7477L39.396 54.5231C38.7639 55.1595 37.734 55.1591 37.1047 54.5209L27.4593 44.7455C26.4564 43.7286 27.1791 42.002 28.6065 42.002L31.9624 42.002L31.9624 37.8555C36.0876 39.1572 40.6283 39.1656 44.853 37.7728L44.853 42.002ZM10.7803 17.801C10.7803 10.6091 16.0353 4.62029 22.9082 3.4741C15.3744 11.553 15.3697 24.0439 22.9071 32.1267C16.0353 30.9805 10.7803 24.9939 10.7803 17.801ZM20.4795 17.8012C20.4795 7.98561 28.465 7.79325e-05 38.2806 7.75034e-05C48.0962 7.70744e-05 56.0817 7.98561 56.0817 17.8012C56.0817 27.6167 48.0962 35.6023 38.2806 35.6023C28.465 35.6023 20.4795 27.6167 20.4795 17.8012ZM40.9914 17.3412L36.9852 15.3824C36.366 15.0795 36.5286 13.9959 37.2812 13.9959L41.565 13.9959C42.4549 13.9959 43.1763 13.2744 43.1763 12.3845C43.1763 11.4946 42.4549 10.7732 41.565 10.7732L39.8301 10.7732L39.8301 9.74732C39.8301 8.85744 39.1087 8.136 38.2188 8.136C37.3289 8.136 36.6075 8.85744 36.6075 9.74732L36.6075 10.8326C32.8364 11.4931 32.2252 16.6421 35.5697 18.2774L39.5759 20.2362C40.2146 20.5485 39.9912 21.5153 39.2798 21.5153L35.0068 21.5153C34.1169 21.5153 33.3955 22.2367 33.3955 23.1266C33.3955 24.0165 34.1169 24.7379 35.0068 24.7379L36.7309 24.7379L36.7309 25.8712C36.7309 26.7611 37.4524 27.4826 38.3422 27.4826C39.2321 27.4826 39.9536 26.7611 39.9536 25.8712L39.9536 24.6784C41.7819 24.3582 43.1762 22.7602 43.1762 20.8415C43.1762 19.3642 42.3186 17.9901 40.9914 17.3412Z" fill="url(#paint0_linear_407_2257)"/>
<g clip-path="url(#clip0_407_2257)">
<path d="M76.2803 35C76.2803 33.2649 75.3275 31.5493 73.4656 29.9276C71.605 28.3069 68.8836 26.8245 65.4775 25.5697C58.6692 23.0614 49.2304 21.5 38.7803 21.5C28.3301 21.5 18.8913 23.0614 12.0831 25.5697C8.67698 26.8245 5.95559 28.3069 4.09491 29.9276C2.23307 31.5493 1.28027 33.2649 1.28027 35C1.28027 36.7351 2.23307 38.4507 4.09491 40.0724C5.95559 41.6931 8.67698 43.1755 12.0831 44.4303C18.8913 46.9386 28.3301 48.5 38.7803 48.5C49.2304 48.5 58.6692 46.9386 65.4775 44.4303C68.8836 43.1755 71.605 41.6931 73.4656 40.0724C75.3275 38.4507 76.2803 36.7351 76.2803 35Z" stroke="url(#paint1_linear_407_2257)"/>
</g>
<defs>
<linearGradient id="paint0_linear_407_2257" x1="46.2803" y1="3.5" x2="21.2803" y2="72" gradientUnits="userSpaceOnUse">
<stop stop-color="#00B4D8"/>
<stop offset="0.857292" stop-color="#0C0248"/>
</linearGradient>
<linearGradient id="paint1_linear_407_2257" x1="50.7803" y1="53" x2="40.7803" y2="9" gradientUnits="userSpaceOnUse">
<stop stop-color="#00B4D8"/>
<stop offset="0.857292" stop-color="#0C0248"/>
</linearGradient>
<clipPath id="clip0_407_2257">
<rect width="76" height="14" fill="white" transform="translate(0.780273 35)"/>
</clipPath>
</defs>
</svg>
