<svg width="27" height="27" viewBox="0 0 27 27" fill="none" xmlns="http://www.w3.org/2000/svg">
<path d="M19.4652 0.00012207H7.0054C3.14261 0.00012207 0 3.14273 0 7.00552V19.4653C0 23.3281 3.14261 26.4707 7.0054 26.4707H19.4652C23.328 26.4707 26.4706 23.3281 26.4706 19.4653V7.00552C26.4706 3.14273 23.328 0.00012207 19.4652 0.00012207ZM13.2355 19.8254C9.60174 19.8254 6.64541 16.8691 6.64541 13.2354C6.64541 9.60171 9.60174 6.64548 13.2355 6.64548C16.8693 6.64548 19.8256 9.60171 19.8256 13.2354C19.8256 16.8691 16.8693 19.8254 13.2355 19.8254ZM21.1563 6.41164C21.0121 6.55588 20.812 6.63866 20.6078 6.63866C20.4041 6.63866 20.204 6.55588 20.0592 6.41164C19.915 6.26688 19.8328 6.0668 19.8328 5.86315C19.8328 5.65893 19.915 5.45932 20.0592 5.31461C20.204 5.17037 20.4036 5.08765 20.6078 5.08765C20.812 5.08765 21.0121 5.17037 21.1563 5.31461C21.3006 5.45937 21.3833 5.65893 21.3833 5.86315C21.3833 6.06732 21.3006 6.26688 21.1563 6.41164Z" fill="#0C0248"/>
</svg>
