<svg width="1440" height="365" viewBox="0 0 1440 365" fill="none" xmlns="http://www.w3.org/2000/svg">
<path d="M1460 251C1424.5 273.833 1317.4 287.3 1177 232.5C1001.5 164 833.5 175 733.5 232.5C633.5 290 535.5 407 271 296C115.202 230.618 -14.6667 310.833 -99 322" stroke="#EEF0FC" stroke-width="5" stroke-dasharray="18 18"/>
<path d="M-97 378.5C-28.5 347.667 122 297.4 290 343C500 400 630 380.5 724 319.5C818 258.5 1047.5 265 1196 343C1344.5 421 1472 442.5 1538 433" stroke="#EEF0FC" stroke-width="5" stroke-dasharray="18 18"/>
<path d="M1455.5 1C1463.33 27.1667 1450.7 87 1337.5 117C1196 154.5 952.5 79 797 154.5C641.5 230 566 346 441 308C316 270 47 171 -78 190" stroke="#EEF0FC" stroke-width="5" stroke-dasharray="18 18"/>
</svg>
