<svg width="1440" height="707" viewBox="0 0 1440 707" fill="none" xmlns="http://www.w3.org/2000/svg">
<path d="M0 44H1440V707H0V44Z" fill="#EEF0FC"/>
<g opacity="0.05">
<path d="M1491.93 254.272C1453.77 278.368 1338.64 292.58 1187.71 234.749C999.042 162.461 818.441 174.069 710.941 234.749C603.441 295.429 498.09 418.9 213.752 301.761C46.2676 232.763 -93.3413 317.415 -184 329.199" stroke="#0C0248" stroke-width="5" stroke-dasharray="18 18"/>
<path d="M-181.85 378.27C-108.212 345.732 53.5763 292.685 234.177 340.807C459.928 400.959 599.678 380.381 700.729 316.007C801.779 251.634 1048.49 258.494 1208.13 340.807C1367.77 423.121 1504.83 445.81 1575.78 435.784" stroke="#0C0248" stroke-width="5" stroke-dasharray="18 18"/>
<path d="M1487.09 1C1495.52 28.6137 1481.93 91.756 1360.24 123.415C1208.13 162.989 946.368 83.3136 779.205 162.989C612.042 242.664 530.879 365.079 396.503 324.978C262.128 284.876 -27.0483 180.401 -161.424 200.452" stroke="#0C0248" stroke-width="5" stroke-dasharray="18 18"/>
</g>
</svg>
