<svg width="224" height="232" viewBox="0 0 224 232" fill="none" xmlns="http://www.w3.org/2000/svg">
<circle cx="112.119" cy="115.472" r="66" transform="rotate(-19.8402 112.119 115.472)" stroke="white" stroke-opacity="0.7" stroke-width="2" stroke-dasharray="5 5"/>
<g clip-path="url(#clip0_148_13195)">
<path d="M112.997 116.712C113.26 117.441 112.506 118.133 111.801 117.802C111.103 117.474 111.137 116.452 111.876 116.185C112.331 116.021 112.832 116.255 112.997 116.712ZM114.634 109.972L113.946 108.065C113.064 105.621 110.37 104.356 107.927 105.238C105.484 106.119 104.219 108.813 105.1 111.256L105.789 113.164C105.838 113.138 106.019 113.037 106.305 112.934C114.466 110.004 114.117 110.077 114.634 109.972ZM104.848 96.7077L92.0254 108.463C92.6152 111.483 97.6197 133.562 118.077 133.882L118.404 133.764C133.944 120.457 123.698 100.268 122.224 97.5671L104.848 96.7077ZM121.257 118.745C121.972 120.728 120.945 122.914 118.963 123.63L111.178 126.439C109.195 127.154 107.009 126.127 106.293 124.144L104.011 117.818C103.531 116.489 103.83 115.041 104.725 114.012L103.889 111.693C102.766 108.582 104.379 105.149 107.49 104.026C110.601 102.904 114.035 104.516 115.157 107.627L115.994 109.946C117.31 110.162 118.484 111.064 118.974 112.419L121.257 118.745ZM114.525 111.335L106.74 114.144C105.427 114.618 104.747 116.067 105.22 117.38L107.503 123.706C107.977 125.019 109.426 125.7 110.739 125.226L118.524 122.417C119.837 121.943 120.517 120.495 120.043 119.182C119.942 118.901 117.859 113.128 117.761 112.855C117.524 112.198 117.043 111.7 116.458 111.425C115.436 110.945 114.552 111.332 114.525 111.335V111.335ZM113.479 118.734L114.164 120.631C114.284 120.965 114.111 121.334 113.777 121.455C113.443 121.575 113.074 121.402 112.954 121.068L112.951 121.069L112.267 119.172C111.347 119.213 110.466 118.659 110.136 117.744C109.731 116.622 110.315 115.379 111.437 114.974C112.561 114.569 113.802 115.152 114.207 116.275C114.538 117.19 114.213 118.178 113.479 118.734ZM125.845 95.0512C125.206 93.9591 124.059 93.2636 122.795 93.2003L104.796 92.309C103.796 92.2595 102.816 92.6128 102.078 93.2899L88.7949 105.468C87.8627 106.324 87.4235 107.592 87.6293 108.84C87.6783 109.135 88.8642 116.129 93.0705 123.197C98.6211 132.526 107.108 138.146 118.136 138.275C118.584 138.279 119.03 138.204 119.452 138.052C119.817 137.897 120.458 137.781 121.161 137.183C129.568 130.042 132.508 120.297 130.824 109.575C129.548 101.449 125.996 95.3094 125.845 95.0512ZM119.15 134.815L119.153 134.817C118.981 134.964 118.295 135.189 118.102 135.166C95.0573 134.841 90.7082 108.419 90.6942 108.343L90.6937 108.341C90.6528 108.102 90.7477 107.872 90.923 107.73L104.178 95.5787L104.177 95.5774C104.319 95.4477 104.505 95.3928 104.682 95.4118L122.641 96.3009L122.642 96.3004C122.878 96.3122 123.078 96.4496 123.18 96.6439C123.615 97.3973 136.492 120.081 119.15 134.815V134.815Z" fill="white"/>
</g>
<path d="M159.693 130.574C159.902 130 160.191 129.483 160.561 129.022C160.94 128.564 161.389 128.238 161.907 128.043C162.431 127.861 163.014 127.882 163.656 128.105L163.225 129.289C163.188 129.275 163.074 129.25 162.886 129.213C162.703 129.189 162.482 129.21 162.224 129.276C161.972 129.355 161.713 129.526 161.446 129.791C161.18 130.056 160.942 130.475 160.733 131.048C160.566 131.508 160.5 131.894 160.536 132.205C160.568 132.526 160.655 132.77 160.796 132.938C160.933 133.116 161.071 133.235 161.208 133.296C161.5 133.402 161.769 133.393 162.016 133.271C162.259 133.157 162.489 132.964 162.705 132.691C162.931 132.422 163.154 132.115 163.376 131.77C163.603 131.438 163.835 131.107 164.072 130.778C164.318 130.453 164.587 130.168 164.878 129.923C165.166 129.687 165.484 129.531 165.831 129.455C166.183 129.392 166.58 129.457 167.021 129.649C167.659 129.913 168.055 130.403 168.21 131.119C168.361 131.845 168.267 132.672 167.929 133.603C167.73 134.148 167.447 134.619 167.079 135.017C166.71 135.415 166.277 135.683 165.78 135.822C165.283 135.96 164.738 135.921 164.146 135.706L164.562 134.564C164.891 134.684 165.179 134.709 165.428 134.64C165.686 134.574 165.911 134.454 166.102 134.279C166.294 134.104 166.451 133.906 166.574 133.684C166.707 133.467 166.807 133.264 166.875 133.076C167.07 132.54 167.132 132.062 167.062 131.643C166.987 131.233 166.781 130.966 166.443 130.843C166.145 130.724 165.873 130.726 165.626 130.849C165.379 130.972 165.148 131.17 164.932 131.443C164.715 131.715 164.498 132.019 164.28 132.355C164.059 132.7 163.83 133.037 163.593 133.366C163.353 133.704 163.089 133.991 162.801 134.227C162.519 134.475 162.197 134.629 161.835 134.689C161.478 134.762 161.078 134.706 160.634 134.523C160.202 134.335 159.878 134.041 159.661 133.643C159.451 133.257 159.346 132.799 159.348 132.268C159.359 131.74 159.474 131.175 159.693 130.574Z" fill="white"/>
<path d="M156.358 138.096C156.69 137.491 157.094 137.068 157.568 136.826C158.052 136.59 158.555 136.495 159.076 136.542C159.598 136.589 160.091 136.74 160.556 136.996C161.078 137.271 161.494 137.625 161.804 138.057C162.109 138.499 162.278 138.98 162.312 139.5C162.341 140.029 162.206 140.566 161.908 141.109C161.652 141.574 161.319 141.932 160.906 142.185C160.497 142.451 160.045 142.59 159.547 142.602C159.059 142.619 158.556 142.497 158.038 142.235C158.011 142.221 157.959 142.192 157.88 142.149C157.805 142.119 157.741 142.09 157.689 142.061L159.92 137.998C159.359 137.69 158.846 137.585 158.381 137.684C157.92 137.796 157.555 138.097 157.286 138.588C157.083 138.956 157.004 139.318 157.049 139.673C157.097 140.042 157.262 140.344 157.544 140.578L156.959 141.643C156.442 141.256 156.112 140.745 155.971 140.108C155.839 139.476 155.968 138.806 156.358 138.096ZM160.437 138.334L158.834 141.252C158.935 141.297 159.077 141.34 159.259 141.383C159.441 141.426 159.635 141.435 159.842 141.412C160.052 141.402 160.261 141.334 160.467 141.208C160.673 141.082 160.856 140.874 161.015 140.585C161.212 140.225 161.29 139.897 161.248 139.6C161.209 139.317 161.109 139.062 160.948 138.837C160.791 138.625 160.62 138.457 160.437 138.334Z" fill="white"/>
<path d="M152.558 144.037C152.904 143.571 153.31 143.225 153.776 142.999C154.243 142.772 154.742 142.687 155.272 142.745C155.797 142.81 156.324 143.039 156.854 143.432C157.37 143.827 157.74 144.276 157.965 144.779C158.19 145.282 158.273 145.792 158.213 146.308C158.156 146.838 157.952 147.34 157.6 147.814C157.255 148.28 156.872 148.612 156.451 148.81C156.024 149.017 155.594 149.109 155.162 149.087C154.738 149.072 154.35 148.965 153.999 148.766L154.687 147.839C155.048 148.007 155.407 148.036 155.762 147.926C156.117 147.816 156.432 147.576 156.706 147.207C157.064 146.725 157.191 146.234 157.088 145.735C156.98 145.243 156.684 144.819 156.202 144.462C155.688 144.08 155.183 143.905 154.688 143.936C154.194 143.98 153.765 144.248 153.402 144.738C153.146 145.083 153.011 145.45 152.997 145.838C152.983 146.226 153.121 146.577 153.41 146.892L152.722 147.819C152.415 147.529 152.187 147.173 152.039 146.752C151.892 146.345 151.856 145.907 151.93 145.439C152.003 144.97 152.213 144.503 152.558 144.037Z" fill="white"/>
<path d="M148.528 148.843C148.891 148.47 149.249 148.239 149.601 148.149C149.954 148.074 150.297 148.094 150.631 148.21C150.958 148.333 151.268 148.502 151.56 148.717C151.846 148.94 152.111 149.169 152.355 149.407L154.612 151.604L153.754 152.485L151.497 150.288C151.239 150.037 150.974 149.828 150.703 149.662C150.432 149.496 150.156 149.422 149.873 149.44C149.59 149.472 149.296 149.646 148.989 149.961C148.696 150.262 148.537 150.561 148.513 150.858C148.489 151.156 148.553 151.441 148.705 151.715C148.85 151.996 149.037 152.255 149.267 152.492L151.556 154.742L150.667 155.656L146.271 151.376L147.014 150.613L148.074 151.352L148.095 151.331C148.03 151.211 147.967 151.018 147.907 150.75C147.854 150.489 147.86 150.188 147.927 149.848C148 149.515 148.2 149.179 148.528 148.843Z" fill="white"/>
<path d="M145.072 152.398L148.936 157.163L148.039 157.891L146.909 156.664C147.032 156.911 147.106 157.186 147.132 157.487C147.156 157.802 147.098 158.12 146.958 158.439C146.816 158.773 146.555 159.094 146.175 159.403L145.977 159.563L145.107 158.491L145.317 158.321C145.791 157.937 146.106 157.579 146.261 157.247C146.423 156.922 146.46 156.603 146.372 156.288C146.29 155.981 146.114 155.66 145.843 155.326L144.105 153.182L145.072 152.398Z" fill="white"/>
<path d="M144.362 161.522C144.578 161.36 144.763 161.311 144.917 161.375C145.07 161.439 145.207 161.557 145.326 161.73C145.429 161.878 145.483 162.035 145.488 162.202C145.494 162.368 145.386 162.528 145.163 162.681C144.95 162.829 144.766 162.871 144.612 162.807C144.45 162.749 144.318 162.646 144.216 162.498C144.096 162.325 144.038 162.152 144.041 161.98C144.041 161.822 144.148 161.669 144.362 161.522ZM141.008 155.561L144.496 160.608L143.472 161.316L139.983 156.269L141.008 155.561Z" fill="white"/>
<path d="M137.216 158.01C137.588 157.793 137.915 157.729 138.199 157.818C138.474 157.912 138.725 158.154 138.952 158.542L140.918 161.91L141.734 161.434L142.188 162.211C141.92 162.367 141.734 162.505 141.63 162.624C141.522 162.756 141.502 162.93 141.57 163.145C141.634 163.374 141.789 163.7 142.037 164.123L141.143 164.645L140.349 163.285L139.131 163.996L138.677 163.219L139.895 162.508L137.754 158.842L136.524 159.56L136.025 158.706L137.216 158.01Z" fill="white"/>
<path d="M133.854 156.824L134.248 157.716L133.438 158.073C133.246 158.158 133.106 158.274 133.019 158.422C132.927 158.561 132.873 158.858 132.855 159.314L132.841 160.583L137.418 165.006L136.238 165.527L132.8 162.011L132.972 166.969L131.778 167.496L131.758 159.651C131.753 159.096 131.783 158.667 131.846 158.366C131.91 158.065 132.028 157.837 132.201 157.685C132.37 157.523 132.606 157.375 132.907 157.242L133.854 156.824Z" fill="white"/>
<path d="M124.432 163.554L123.193 172.376L121.173 172.753L116.779 164.982L118.091 164.737L119.35 167.066L122.8 166.422L123.134 163.796L124.432 163.554ZM122.065 172.052L122.657 167.456L119.855 167.978L122.065 172.052Z" fill="white"/>
<path d="M113.058 164.995C113.578 164.979 113.995 165.061 114.311 165.241C114.617 165.432 114.85 165.685 115.01 166C115.159 166.316 115.265 166.653 115.326 167.011C115.377 167.37 115.408 167.719 115.418 168.059L115.515 171.207L114.286 171.245L114.189 168.096C114.178 167.737 114.132 167.403 114.053 167.095C113.973 166.787 113.826 166.542 113.61 166.358C113.385 166.185 113.052 166.105 112.612 166.119C112.192 166.132 111.87 166.237 111.646 166.434C111.422 166.631 111.27 166.881 111.189 167.183C111.099 167.486 111.053 167.803 111.053 168.133L111.137 171.342L109.863 171.381L109.674 165.249L110.739 165.216L110.988 166.484L111.018 166.483C111.054 166.352 111.143 166.169 111.286 165.935C111.429 165.71 111.643 165.498 111.927 165.3C112.211 165.111 112.588 165.009 113.058 164.995Z" fill="white"/>
<path d="M105.589 164.764C106.483 164.866 107.106 165.23 107.457 165.854C107.808 166.488 107.931 167.257 107.827 168.161C107.72 169.095 107.425 169.826 106.942 170.354C106.448 170.891 105.759 171.109 104.874 171.008C104.477 170.963 104.151 170.86 103.898 170.7C103.645 170.54 103.449 170.362 103.31 170.165C103.162 169.967 103.061 169.789 103.009 169.632C102.946 169.474 102.912 169.374 102.907 169.334L102.877 169.33L102.436 173.054L101.169 172.909L102.13 164.519L103.203 164.642L103.256 165.886L103.286 165.889C103.311 165.852 103.376 165.764 103.483 165.625C103.578 165.495 103.72 165.355 103.908 165.206C104.086 165.055 104.317 164.93 104.6 164.832C104.882 164.743 105.212 164.721 105.589 164.764ZM105.109 165.796C104.532 165.73 104.069 165.863 103.719 166.196C103.368 166.538 103.157 167.017 103.087 167.633C103.018 168.229 103.112 168.728 103.368 169.13C103.613 169.54 104.019 169.778 104.585 169.843C105.022 169.893 105.386 169.834 105.677 169.666C105.957 169.507 106.174 169.28 106.329 168.986C106.473 168.69 106.565 168.373 106.604 168.036C106.643 167.688 106.632 167.349 106.569 167.02C106.495 166.7 106.345 166.426 106.119 166.199C105.883 165.98 105.546 165.846 105.109 165.796Z" fill="white"/>
<path d="M97.9727 170.551C98.2383 170.601 98.3996 170.704 98.4566 170.86C98.5136 171.017 98.5191 171.197 98.4729 171.402C98.4333 171.578 98.3542 171.724 98.2356 171.841C98.117 171.958 97.9261 171.986 97.6627 171.927C97.409 171.87 97.2537 171.763 97.1967 171.607C97.1299 171.448 97.1163 171.281 97.1559 171.105C97.2021 170.901 97.2894 170.741 97.4177 170.626C97.5341 170.519 97.7191 170.494 97.9727 170.551ZM100.085 164.047L98.7358 170.032L97.5212 169.758L98.8704 163.773L100.085 164.047Z" fill="white"/>
<path d="M95.5194 162.855C95.9304 162.982 96.199 163.179 96.3254 163.449C96.4421 163.715 96.4343 164.063 96.3018 164.493L95.1533 168.22L96.0564 168.498L95.7913 169.358C95.4951 169.267 95.2679 169.223 95.1098 169.227C94.9393 169.237 94.7977 169.34 94.6851 169.535C94.5601 169.738 94.4254 170.073 94.2811 170.541L93.292 170.236L93.7558 168.731L92.4083 168.316L92.6733 167.456L94.0208 167.871L95.2709 163.814L93.9091 163.395L94.2006 162.448L95.5194 162.855Z" fill="white"/>
<path d="M89.9156 160.606C90.5472 160.884 91.004 161.248 91.286 161.7C91.564 162.161 91.7024 162.653 91.7014 163.177C91.7004 163.701 91.5932 164.206 91.3798 164.691C91.1514 165.235 90.8353 165.681 90.4315 166.027C90.0186 166.37 89.5544 166.581 89.0389 166.66C88.5142 166.735 87.9681 166.648 87.4006 166.398C86.9155 166.185 86.529 165.884 86.2411 165.495C85.9401 165.112 85.7618 164.673 85.7061 164.178C85.6463 163.693 85.724 163.181 85.9392 162.642C85.9513 162.615 85.9755 162.56 86.0117 162.477C86.0348 162.4 86.0584 162.334 86.0825 162.279L90.3253 164.145C90.5829 163.559 90.6424 163.039 90.5035 162.585C90.3515 162.136 90.0192 161.798 89.5066 161.573C89.1222 161.404 88.7549 161.357 88.4049 161.433C88.0417 161.513 87.7556 161.704 87.5466 162.005L86.4344 161.516C86.7745 160.967 87.2554 160.594 87.877 160.397C88.4946 160.21 89.1742 160.28 89.9156 160.606ZM90.0365 164.69L86.9883 163.349C86.9532 163.454 86.9222 163.599 86.8955 163.784C86.8688 163.969 86.8762 164.163 86.9176 164.367C86.9458 164.576 87.0319 164.778 87.1758 164.972C87.3197 165.167 87.5427 165.33 87.8448 165.463C88.2201 165.628 88.5538 165.677 88.846 165.609C89.1249 165.546 89.3697 165.424 89.5802 165.243C89.7775 165.068 89.9296 164.883 90.0365 164.69Z" fill="white"/>
<path d="M83.8433 157.438C84.6062 157.916 85.0119 158.512 85.0603 159.226C85.1034 159.949 84.8836 160.696 84.4009 161.468C83.9023 162.265 83.3211 162.798 82.6574 163.066C81.98 163.339 81.264 163.239 80.5095 162.766C80.1704 162.554 79.9209 162.321 79.761 162.068C79.601 161.815 79.501 161.569 79.4608 161.332C79.4122 161.089 79.398 160.885 79.4182 160.721C79.43 160.552 79.4422 160.447 79.455 160.408L79.4295 160.392L77.4277 163.563L76.3468 162.887L80.8263 155.728L81.7419 156.301L81.2548 157.447L81.2802 157.463C81.3184 157.439 81.4154 157.388 81.5712 157.309C81.7133 157.232 81.9015 157.167 82.1358 157.113C82.3616 157.054 82.6234 157.041 82.9213 157.074C83.2138 157.115 83.5211 157.237 83.8433 157.438ZM82.9652 158.163C82.4736 157.855 81.9982 157.776 81.5391 157.925C81.0748 158.083 80.6782 158.425 80.3493 158.95C80.031 159.459 79.9009 159.95 79.959 160.422C80.0033 160.898 80.267 161.288 80.7502 161.59C81.1232 161.823 81.4772 161.927 81.8122 161.901C82.1333 161.877 82.427 161.766 82.6932 161.567C82.9509 161.363 83.1699 161.116 83.3502 160.828C83.5359 160.531 83.6712 160.221 83.7562 159.897C83.8273 159.575 83.81 159.264 83.7042 158.962C83.5845 158.663 83.3382 158.396 82.9652 158.163Z" fill="white"/>
<path d="M64.278 100.355C64.0614 100.926 63.7649 101.439 63.3884 101.895C63.0026 102.347 62.5495 102.667 62.029 102.855C61.5028 103.029 60.92 103 60.2808 102.768L60.7281 101.59C60.7655 101.605 60.8784 101.631 61.0666 101.671C61.2491 101.697 61.4698 101.679 61.7287 101.617C61.9819 101.542 62.2436 101.374 62.5139 101.113C62.7842 100.852 63.0276 100.437 63.2442 99.8664C63.4182 99.4083 63.4894 99.0235 63.458 98.712C63.4301 98.3912 63.3468 98.1457 63.2083 97.9754C63.0733 97.7957 62.9374 97.6746 62.8008 97.612C62.511 97.5019 62.2417 97.5067 61.9931 97.6262C61.748 97.7363 61.5155 97.9261 61.2955 98.1956C61.0661 98.4614 60.8384 98.7654 60.6122 99.1074C60.3802 99.4364 60.1436 99.7638 59.9023 100.089C59.6516 100.411 59.3789 100.693 59.0841 100.934C58.7929 101.165 58.4733 101.317 58.1254 101.388C57.7717 101.446 57.3758 101.376 56.9377 101.178C56.3033 100.905 55.9139 100.409 55.7695 99.6909C55.6286 98.9635 55.7339 98.137 56.0854 97.2115C56.2913 96.6693 56.5812 96.2018 56.9551 95.8089C57.3289 95.4161 57.7654 95.154 58.2646 95.0226C58.7637 94.8913 59.3078 94.9375 59.8967 95.1612L59.4653 96.297C59.1381 96.1728 58.8497 96.1435 58.6002 96.2091C58.3412 96.2712 58.1149 96.3885 57.921 96.5609C57.7272 96.7333 57.5672 96.9293 57.441 97.1488C57.3055 97.3647 57.2022 97.5662 57.1312 97.7531C56.9288 98.286 56.8601 98.7627 56.9251 99.1831C56.9935 99.5942 57.1961 99.8637 57.5326 99.9915C57.8282 100.114 58.1003 100.116 58.349 99.9967C58.5976 99.8772 58.8319 99.6827 59.0519 99.4133C59.2719 99.1439 59.4932 98.8428 59.7158 98.5102C59.942 98.1682 60.1757 97.8344 60.417 97.5089C60.6619 97.174 60.9299 96.8908 61.2212 96.6591C61.5066 96.4145 61.8309 96.2649 62.1939 96.2102C62.5512 96.1427 62.9506 96.2035 63.3923 96.3926C63.821 96.5875 64.141 96.8856 64.3523 97.2867C64.5579 97.675 64.656 98.1348 64.6467 98.6661C64.6281 99.1939 64.5052 99.757 64.278 100.355Z" fill="white"/>
<path d="M67.717 92.8806C67.3765 93.4807 66.9672 93.8981 66.4891 94.1327C66.0023 94.3624 65.4984 94.4501 64.9773 94.3958C64.4561 94.3415 63.9651 94.1836 63.5042 93.922C62.9861 93.6395 62.5751 93.2798 62.2712 92.8428C61.9722 92.3972 61.8095 91.9139 61.7831 91.3931C61.7617 90.8635 61.904 90.3291 62.21 89.7899C62.4716 89.3289 62.8104 88.975 63.2264 88.7282C63.6387 88.4678 64.0935 88.3349 64.5909 88.3297C65.0796 88.3196 65.581 88.449 66.0953 88.7179C66.1214 88.7327 66.1736 88.7623 66.2519 88.8067C66.3264 88.8375 66.3898 88.8677 66.4419 88.8973L64.1543 92.9284C64.7109 93.2443 65.2222 93.3563 65.6883 93.2643C66.1507 93.1588 66.52 92.8625 66.7964 92.3754C67.0037 92.0102 67.0876 91.6496 67.0481 91.2937C67.0049 90.9242 66.844 90.6202 66.5654 90.3816L67.1651 89.3249C67.6773 89.7191 67.9994 90.2354 68.1316 90.8738C68.255 91.5072 68.1168 92.1762 67.717 92.8806ZM63.6416 92.5857L65.2852 89.6896C65.1846 89.644 65.0437 89.5985 64.8624 89.5532C64.6812 89.5078 64.4871 89.4954 64.28 89.5158C64.0691 89.5227 63.8597 89.5878 63.6517 89.7112C63.4437 89.8346 63.2582 90.0398 63.0954 90.3268C62.893 90.6834 62.8109 91.0105 62.849 91.308C62.8833 91.592 62.9796 91.8478 63.1378 92.0756C63.2922 92.2897 63.4601 92.4598 63.6416 92.5857Z" fill="white"/>
<path d="M71.5998 86.9927C71.2478 87.4537 70.8369 87.7942 70.367 88.0141C69.8971 88.2341 69.3974 88.3118 68.8679 88.2473C68.3445 88.1748 67.8205 87.9382 67.2959 87.5377C66.7854 87.1353 66.4213 86.6812 66.2036 86.1753C65.986 85.6694 65.9103 85.1587 65.9768 84.6433C66.0413 84.1138 66.2526 83.6146 66.6107 83.1457C66.9627 82.6847 67.3505 82.358 67.7741 82.1656C68.2039 81.9653 68.6346 81.879 69.0664 81.9067C69.4903 81.9284 69.8763 82.0407 70.2246 82.2437L69.5236 83.1617C69.1651 82.9886 68.8074 82.9545 68.4505 83.0595C68.0936 83.1644 67.7755 83.3997 67.4964 83.7653C67.1323 84.2422 66.9981 84.7311 67.0938 85.2319C67.1955 85.7248 67.4849 86.1533 67.9617 86.5174C68.4704 86.9058 68.9729 87.0881 69.4691 87.0644C69.9634 87.0266 70.3957 86.7653 70.7659 86.2805C71.0268 85.9387 71.167 85.5739 71.1863 85.1861C71.2056 84.7982 71.0727 84.4451 70.7874 84.1266L71.4883 83.2086C71.7918 83.5032 72.0147 83.8621 72.1571 84.2854C72.2976 84.6946 72.3278 85.1329 72.2478 85.6002C72.1678 86.0675 71.9518 86.5317 71.5998 86.9927Z" fill="white"/>
<path d="M75.6964 82.2438C75.3285 82.6113 74.9678 82.8374 74.6142 82.9221C74.2606 82.9926 73.9176 82.9677 73.5854 82.8473C73.2602 82.7199 72.9527 82.5465 72.6629 82.3271C72.3801 82.1007 72.1186 81.8672 71.8783 81.6267L69.6521 79.3981L70.5223 78.5288L72.7485 80.7574C73.003 81.0121 73.2645 81.2243 73.5331 81.3942C73.8017 81.564 74.0774 81.642 74.3603 81.628C74.6431 81.5998 74.9402 81.4303 75.2515 81.1193C75.5486 80.8225 75.7114 80.5256 75.7399 80.2286C75.7683 79.9316 75.7084 79.6452 75.56 79.3694C75.4187 79.0865 75.235 78.8247 75.0089 78.5842L72.7509 76.3026L73.6529 75.4015L77.9887 79.7419L77.2353 80.4946L76.1856 79.7409L76.1644 79.7621C76.228 79.8824 76.288 80.0769 76.3444 80.3456C76.3937 80.6073 76.383 80.9078 76.3121 81.2471C76.2341 81.5794 76.0289 81.9117 75.6964 82.2438Z" fill="white"/>
<path d="M79.2021 78.7368L75.4048 73.9183L76.3119 73.2034L77.425 74.4461C77.305 74.1969 77.2344 73.9215 77.2132 73.6199C77.1936 73.3043 77.2561 72.9877 77.4005 72.6702C77.5466 72.3386 77.8121 72.0211 78.197 71.7178L78.3972 71.56L79.2514 72.6439L79.0393 72.811C78.5602 73.1886 78.2406 73.5423 78.0804 73.8722C77.9141 74.1943 77.8727 74.5134 77.9563 74.8295C78.0337 75.1377 78.2055 75.4607 78.4716 75.7984L80.18 77.9662L79.2021 78.7368Z" fill="white"/>
<path d="M80.0389 69.6241C79.8202 69.7828 79.6345 69.8291 79.4818 69.763C79.329 69.6968 79.1942 69.5766 79.0772 69.4022C78.9769 69.2527 78.9252 69.0947 78.9219 68.9283C78.9187 68.7619 79.0291 68.6035 79.2534 68.4531C79.4693 68.3083 79.6536 68.2689 79.8063 68.3351C79.9674 68.3956 80.098 68.5006 80.1983 68.6501C80.3153 68.8245 80.3713 68.9977 80.3662 69.1697C80.3639 69.3278 80.2548 69.4792 80.0389 69.6241ZM83.3094 75.6304L79.8917 70.5356L80.9256 69.842L84.3433 74.9369L83.3094 75.6304Z" fill="white"/>
<path d="M87.1347 73.2353C86.7603 73.4469 86.432 73.5062 86.1496 73.4131C85.876 73.3151 85.6284 73.0702 85.4069 72.6785L83.4876 69.2834L82.665 69.7485L82.2221 68.965C82.492 68.8125 82.6799 68.6775 82.7858 68.5602C82.8956 68.4292 82.9181 68.2556 82.8534 68.0395C82.7924 67.8098 82.6414 67.4816 82.4002 67.0551L83.3012 66.5457L84.0763 67.9168L85.3037 67.2229L85.7467 68.0064L84.5192 68.7003L86.6083 72.3956L87.8488 71.6944L88.336 72.5562L87.1347 73.2353Z" fill="white"/>
<path d="M90.4792 74.4687L90.0978 73.5714L90.9124 73.2253C91.1056 73.1432 91.2471 73.0287 91.3369 72.8819C91.4305 72.7443 91.4892 72.4477 91.5129 71.9922L91.5444 70.7239L87.0301 66.237L88.2174 65.7325L91.6059 69.2961L91.503 64.3363L92.7041 63.8259L92.6149 71.6706C92.6119 72.226 92.5765 72.654 92.5086 72.9544C92.4407 73.2549 92.3192 73.4804 92.1441 73.6309C91.9729 73.7905 91.7354 73.9349 91.4317 74.064L90.4792 74.4687Z" fill="white"/>
<path d="M99.9954 67.8698L101.357 59.0663L103.382 58.7178L107.668 66.5494L106.352 66.7759L105.126 64.4297L101.667 65.025L101.296 67.6459L99.9954 67.8698ZM102.481 59.4056L101.825 63.9934L104.633 63.5101L102.481 59.4056Z" fill="white"/>
<path d="M111.389 66.5884C110.869 66.5971 110.452 66.5091 110.139 66.3244C109.836 66.1294 109.606 65.8732 109.451 65.5558C109.306 65.2382 109.205 64.8999 109.149 64.5407C109.103 64.1815 109.077 63.8319 109.071 63.4919L109.018 60.3423L110.248 60.3217L110.301 63.4712C110.307 63.8312 110.348 64.1656 110.423 64.4743C110.498 64.7831 110.642 65.0307 110.856 65.2172C111.079 65.3935 111.41 65.4779 111.85 65.4705C112.27 65.4634 112.593 65.363 112.82 65.1692C113.047 64.9753 113.203 64.7277 113.288 64.4262C113.383 64.1246 113.432 63.8087 113.437 63.4786L113.398 60.2688L114.673 60.2474L114.776 66.3815L113.711 66.3994L113.479 65.1281L113.449 65.1286C113.412 65.2592 113.32 65.4408 113.174 65.6733C113.027 65.8958 112.811 66.1045 112.524 66.2993C112.237 66.4841 111.859 66.5805 111.389 66.5884Z" fill="white"/>
<path d="M118.853 66.923C117.961 66.8082 117.343 66.4363 117.001 65.8075C116.659 65.1687 116.547 64.3981 116.663 63.4955C116.783 62.5632 117.088 61.8362 117.579 61.3145C118.08 60.7842 118.773 60.5758 119.655 60.6894C120.052 60.7404 120.376 60.8477 120.627 61.011C120.879 61.1744 121.072 61.3556 121.208 61.5545C121.353 61.7548 121.451 61.9337 121.502 62.0914C121.562 62.2504 121.594 62.3504 121.599 62.3913L121.629 62.3952L122.122 58.6777L123.387 58.8404L122.309 67.2164L121.238 67.0786L121.202 65.8338L121.172 65.8299C121.147 65.867 121.08 65.9543 120.972 66.0915C120.875 66.2202 120.731 66.358 120.541 66.5049C120.36 66.6531 120.128 66.7744 119.843 66.8689C119.56 66.9535 119.23 66.9715 118.853 66.923ZM119.348 65.8978C119.924 65.9718 120.389 65.8451 120.743 65.5177C121.099 65.1803 121.317 64.7042 121.396 64.0893C121.472 63.4942 121.385 62.994 121.135 62.5887C120.896 62.1748 120.494 61.9315 119.928 61.8588C119.492 61.8027 119.127 61.8565 118.834 62.0205C118.552 62.1757 118.331 62.3994 118.173 62.6916C118.024 62.985 117.928 63.3003 117.885 63.6376C117.84 63.9847 117.847 64.3233 117.905 64.6535C117.975 64.975 118.121 65.2509 118.343 65.4811C118.577 65.7028 118.912 65.8416 119.348 65.8978Z" fill="white"/>
<path d="M126.549 61.2425C126.284 61.1892 126.124 61.0839 126.07 60.9268C126.015 60.7696 126.012 60.589 126.061 60.3848C126.103 60.2098 126.184 60.0647 126.304 59.9496C126.424 59.8345 126.616 59.8084 126.878 59.8715C127.131 59.9322 127.285 60.0411 127.34 60.1983C127.404 60.3577 127.416 60.525 127.374 60.7C127.325 60.9042 127.235 61.0627 127.105 61.1755C126.987 61.2809 126.802 61.3032 126.549 61.2425ZM124.346 67.7171L125.779 61.7517L126.989 62.0424L125.557 68.0078L124.346 67.7171Z" fill="white"/>
<path d="M128.895 68.9728C128.485 68.8404 128.22 68.6388 128.097 68.368C127.984 68.1002 127.997 67.7522 128.135 67.324L129.336 63.6133L128.436 63.3225L128.713 62.4662C129.008 62.5616 129.235 62.6086 129.393 62.6072C129.564 62.5994 129.707 62.4985 129.822 62.3045C129.95 62.1042 130.089 61.7709 130.24 61.3047L131.225 61.6232L130.74 63.1218L132.082 63.5558L131.805 64.4121L130.463 63.9781L129.156 68.017L130.512 68.4556L130.208 69.3975L128.895 68.9728Z" fill="white"/>
<path d="M134.467 71.2998C133.839 71.0132 133.387 70.6421 133.112 70.1864C132.84 69.7217 132.709 69.2274 132.717 68.7035C132.725 68.1796 132.84 67.6767 133.06 67.1945C133.296 66.6537 133.618 66.2127 134.027 65.8716C134.444 65.5346 134.911 65.3302 135.428 65.2582C135.954 65.1904 136.498 65.2853 137.062 65.5428C137.545 65.7629 137.927 66.0694 138.209 66.4621C138.505 66.85 138.677 67.2914 138.726 67.7864C138.779 68.2722 138.694 68.7832 138.471 69.3191C138.459 69.3464 138.434 69.4009 138.396 69.4828C138.372 69.5597 138.348 69.6255 138.323 69.6801L134.107 67.7549C133.841 68.3371 133.774 68.8563 133.907 69.3126C134.052 69.7639 134.38 70.1058 134.889 70.3384C135.271 70.5128 135.638 70.5648 135.989 70.4942C136.353 70.4187 136.642 70.2317 136.855 69.9333L137.96 70.438C137.613 70.9828 137.127 71.349 136.502 71.5366C135.882 71.7152 135.204 71.6362 134.467 71.2998ZM134.403 67.2142L137.432 68.5973C137.469 68.4931 137.502 68.3487 137.531 68.1642C137.56 67.9797 137.556 67.7852 137.517 67.5807C137.492 67.3713 137.408 67.1684 137.267 66.972C137.126 66.7756 136.905 66.6089 136.605 66.4718C136.232 66.3015 135.899 66.2484 135.606 66.3125C135.326 66.3716 135.08 66.4899 134.867 66.6675C134.667 66.8401 134.513 67.0224 134.403 67.2142Z" fill="white"/>
<path d="M140.494 74.5514C139.738 74.0634 139.34 73.4619 139.302 72.7468C139.269 72.0234 139.499 71.2793 139.992 70.5147C140.502 69.7249 141.091 69.2002 141.758 68.9405C142.439 68.678 143.154 68.7879 143.902 69.2705C144.238 69.4874 144.484 69.7237 144.64 69.9793C144.797 70.2349 144.893 70.4817 144.93 70.7197C144.975 70.9631 144.987 71.1668 144.964 71.3308C144.95 71.5003 144.936 71.6045 144.923 71.6435L144.948 71.6598L146.994 68.517L148.066 69.2083L143.487 76.3042L142.579 75.7186L143.082 74.5793L143.057 74.5631C143.018 74.5858 142.921 74.6358 142.764 74.7131C142.621 74.7873 142.432 74.8498 142.197 74.9005C141.97 74.9565 141.708 74.966 141.411 74.9288C141.119 74.8833 140.813 74.7575 140.494 74.5514ZM141.382 73.8392C141.869 74.1536 142.343 74.2395 142.805 74.0967C143.271 73.9455 143.672 73.6094 144.009 73.0885C144.334 72.5843 144.471 72.0955 144.419 71.6219C144.382 71.1454 144.123 70.7526 143.645 70.4435C143.275 70.2049 142.922 70.0965 142.587 70.1181C142.265 70.1368 141.97 70.2438 141.701 70.4392C141.441 70.6401 141.218 70.8833 141.034 71.169C140.844 71.4631 140.705 71.7717 140.615 72.0948C140.54 72.4149 140.553 72.7268 140.654 73.0304C140.77 73.331 141.012 73.6006 141.382 73.8392Z" fill="white"/>
<defs>
<clipPath id="clip0_148_13195">
<rect width="55" height="55" fill="white" transform="translate(76.2783 98.6372) rotate(-19.8402)"/>
</clipPath>
</defs>
</svg>
