<svg width="30" height="25" viewBox="0 0 30 25" fill="none" xmlns="http://www.w3.org/2000/svg">
<path d="M29.0769 3.50831C27.9956 3.98137 26.8435 4.29493 25.6422 4.44718C26.878 3.71131 27.8212 2.55493 28.2646 1.16112C27.1124 1.84625 25.8403 2.33018 24.4846 2.60025C23.3906 1.43843 21.8313 0.718872 20.1303 0.718872C16.8301 0.718872 14.1732 3.3905 14.1732 6.66568C14.1732 7.13693 14.2132 7.59006 14.3113 8.02143C9.3555 7.78037 4.97034 5.41143 2.02448 1.80275C1.51018 2.69268 1.20851 3.71131 1.20851 4.80787C1.20851 6.86687 2.27163 8.69206 3.85633 9.74875C2.89861 9.73062 1.95906 9.45331 1.16308 9.0165C1.16308 9.03462 1.16308 9.05818 1.16308 9.08175C1.16308 11.9709 3.22936 14.3706 5.93896 14.9234C5.45374 15.0557 4.9249 15.1192 4.37608 15.1192C3.99444 15.1192 3.60917 15.0974 3.24753 15.0177C4.01988 17.3721 6.21156 19.1031 8.81758 19.1592C6.78946 20.7416 4.21434 21.6949 1.42659 21.6949C0.937731 21.6949 0.468865 21.6732 0 21.6134C2.64055 23.3117 5.76995 24.2814 9.14469 24.2814C20.114 24.2814 26.1111 15.2189 26.1111 7.3635C26.1111 7.10068 26.102 6.84693 26.0893 6.595C27.2723 5.75762 28.2664 4.71181 29.0769 3.50831Z" fill="#0C0248"/>
</svg>
